<?xml version="1.0" encoding="utf-8" standalone="no"?>
<!DOCTYPE svg PUBLIC "-//W3C//DTD SVG 1.1//EN"
  "http://www.w3.org/Graphics/SVG/1.1/DTD/svg11.dtd">
<!-- Created with matplotlib (http://matplotlib.org/) -->
<svg height="432pt" version="1.1" viewBox="0 0 576 432" width="576pt" xmlns="http://www.w3.org/2000/svg" xmlns:xlink="http://www.w3.org/1999/xlink">
 <defs>
  <style type="text/css">
*{stroke-linecap:butt;stroke-linejoin:round;stroke-miterlimit:100000;}
  </style>
 </defs>
 <g id="figure_1">
  <g id="patch_1">
   <path d="M 0 432 
L 576 432 
L 576 0 
L 0 0 
z
" style="fill:#ffffff;"/>
  </g>
  <g id="axes_1">
   <g id="patch_2">
    <path d="M 54.525 384.9 
L 503.88 384.9 
L 503.88 22.4 
L 54.525 22.4 
z
" style="fill:#ffffff;"/>
   </g>
   <g id="line2d_1">
    <path d="M 131.42095 384.9 
L 131.42095 377.862532 
L 132.268785 377.862532 
L 132.268785 370.825063 
L 147.306274 370.825063 
L 147.306274 363.787595 
L 149.581485 363.787595 
L 149.581485 356.750126 
L 154.560685 356.750126 
L 154.560685 349.712658 
L 158.993406 349.712658 
L 158.993406 342.675189 
L 163.507536 342.675189 
L 163.507536 335.637721 
L 165.247326 335.637721 
L 165.247326 328.600252 
L 167.995939 328.600252 
L 167.995939 321.562784 
L 170.08881 321.562784 
L 170.08881 314.525315 
L 172.05167 314.525315 
L 172.05167 307.487847 
L 173.742393 307.487847 
L 173.742393 300.450379 
L 174.773415 300.450379 
L 174.773415 293.41291 
L 175.579419 293.41291 
L 175.579419 286.375442 
L 176.285164 286.375442 
L 176.285164 279.337973 
L 176.725681 279.337973 
L 176.725681 272.300505 
L 177.867632 272.300505 
L 177.867632 265.263036 
L 178.956593 265.263036 
L 178.956593 258.225568 
L 179.448284 258.225568 
L 179.448284 251.188099 
L 179.899679 251.188099 
L 179.899679 244.150631 
L 180.292055 244.150631 
L 180.292055 237.113162 
L 180.653019 237.113162 
L 180.653019 230.075694 
L 181.123447 230.075694 
L 181.123447 223.038226 
L 182.686165 223.038226 
L 182.686165 216.000757 
L 183.033154 216.000757 
L 183.033154 208.963289 
L 184.813807 208.963289 
L 184.813807 201.92582 
L 193.524912 201.92582 
L 193.524912 194.888352 
L 194.023177 194.888352 
L 194.023177 187.850883 
L 194.507305 187.850883 
L 194.507305 180.813415 
L 194.968166 180.813415 
L 194.968166 173.775946 
L 195.395215 173.775946 
L 195.395215 166.738478 
L 195.79857 166.738478 
L 195.79857 159.70101 
L 196.154575 159.70101 
L 196.154575 152.663541 
L 196.51113 152.663541 
L 196.51113 145.626073 
L 196.828067 145.626073 
L 196.828067 138.588604 
L 197.152457 138.588604 
L 197.152457 131.551136 
L 197.409812 131.551136 
L 197.409812 124.513667 
L 197.665221 124.513667 
L 197.665221 117.476199 
L 197.936849 117.476199 
L 197.936849 110.43873 
L 198.202407 110.43873 
L 198.202407 103.401262 
L 198.451814 103.401262 
L 198.451814 96.363793 
L 198.665259 96.363793 
L 198.665259 89.326325 
L 198.870291 89.326325 
L 198.870291 82.288857 
L 199.064398 82.288857 
L 199.064398 75.251388 
L 199.269435 75.251388 
L 199.269435 68.21392 
L 199.436948 68.21392 
L 199.436948 61.176451 
L 199.598793 61.176451 
L 199.598793 54.138983 
L 199.757721 54.138983 
L 199.757721 47.101514 
L 199.931255 47.101514 
L 199.931255 40.064046 
L 200.155383 40.064046 
L 200.155383 33.026577 
L 200.971092 33.026577 
L 200.971092 25.989109 
L 416.908065 25.989109 
" style="fill:none;stroke:#f5deb3;stroke-linecap:square;stroke-width:6.0;"/>
   </g>
   <g id="line2d_2">
    <defs>
     <path d="M -0 7.778175 
L 7.778175 0 
L 0 -7.778175 
L -7.778175 -0 
z
" id="mb128950b4c" style="stroke:#f5deb3;stroke-linejoin:miter;stroke-width:1.5;"/>
    </defs>
    <g>
     <use style="fill:#f5deb3;stroke:#f5deb3;stroke-linejoin:miter;stroke-width:1.5;" x="181.123446674" xlink:href="#mb128950b4c" y="223.038225587"/>
     <use style="fill:#f5deb3;stroke:#f5deb3;stroke-linejoin:miter;stroke-width:1.5;" x="199.931254975" xlink:href="#mb128950b4c" y="47.1015142691"/>
     <use style="fill:#f5deb3;stroke:#f5deb3;stroke-linejoin:miter;stroke-width:1.5;" x="200.971091712" xlink:href="#mb128950b4c" y="25.9891089109"/>
     <use style="fill:#f5deb3;stroke:#f5deb3;stroke-linejoin:miter;stroke-width:1.5;" x="200.971091712" xlink:href="#mb128950b4c" y="25.9891089109"/>
     <use style="fill:#f5deb3;stroke:#f5deb3;stroke-linejoin:miter;stroke-width:1.5;" x="416.908064516" xlink:href="#mb128950b4c" y="25.9891089109"/>
    </g>
   </g>
   <g id="line2d_3">
    <path d="M -15527.946774 743.810891 
" style="fill:none;stroke:#f5deb3;stroke-linecap:square;stroke-width:6.0;"/>
    <g>
     <use style="fill:#f5deb3;stroke:#f5deb3;stroke-linejoin:miter;stroke-width:1.5;" x="-15527.9467742" xlink:href="#mb128950b4c" y="743.810891089"/>
    </g>
   </g>
   <g id="line2d_4">
    <path d="M 416.908065 25.989109 
L 456.770202 33.167327 
" style="fill:none;stroke:#f5deb3;stroke-linecap:square;stroke-width:6.0;"/>
    <g>
     <use style="fill:#f5deb3;stroke:#f5deb3;stroke-linejoin:miter;stroke-width:1.5;" x="416.908064516" xlink:href="#mb128950b4c" y="25.9891089109"/>
     <use style="fill:#f5deb3;stroke:#f5deb3;stroke-linejoin:miter;stroke-width:1.5;" x="456.770201613" xlink:href="#mb128950b4c" y="33.1673267327"/>
    </g>
   </g>
   <g id="line2d_5">
    <defs>
     <path d="M 0 1.5 
C 0.397805 1.5 0.77937 1.341951 1.06066 1.06066 
C 1.341951 0.77937 1.5 0.397805 1.5 0 
C 1.5 -0.397805 1.341951 -0.77937 1.06066 -1.06066 
C 0.77937 -1.341951 0.397805 -1.5 0 -1.5 
C -0.397805 -1.5 -0.77937 -1.341951 -1.06066 -1.06066 
C -1.341951 -0.77937 -1.5 -0.397805 -1.5 0 
C -1.5 0.397805 -1.341951 0.77937 -1.06066 1.06066 
C -0.77937 1.341951 -0.397805 1.5 0 1.5 
z
" id="m2929ad4aeb" style="stroke:#f5deb3;stroke-width:0.5;"/>
    </defs>
    <g>
     <use style="fill:#f5deb3;stroke:#f5deb3;stroke-width:0.5;" x="200.971091712" xlink:href="#m2929ad4aeb" y="25.9891089109"/>
     <use style="fill:#f5deb3;stroke:#f5deb3;stroke-width:0.5;" x="200.971091712" xlink:href="#m2929ad4aeb" y="25.9891089109"/>
    </g>
   </g>
   <g id="line2d_6">
    <defs>
     <path d="M 0 1.5 
C 0.397805 1.5 0.77937 1.341951 1.06066 1.06066 
C 1.341951 0.77937 1.5 0.397805 1.5 0 
C 1.5 -0.397805 1.341951 -0.77937 1.06066 -1.06066 
C 0.77937 -1.341951 0.397805 -1.5 0 -1.5 
C -0.397805 -1.5 -0.77937 -1.341951 -1.06066 -1.06066 
C -1.341951 -0.77937 -1.5 -0.397805 -1.5 0 
C -1.5 0.397805 -1.341951 0.77937 -1.06066 1.06066 
C -0.77937 1.341951 -0.397805 1.5 0 1.5 
z
" id="mbcb0b200e2" style="stroke:#000080;stroke-width:0.5;"/>
    </defs>
    <g>
     <use style="fill:#000080;stroke:#000080;stroke-width:0.5;" x="304.232747725" xlink:href="#mbcb0b200e2" y="25.9891089109"/>
     <use style="fill:#000080;stroke:#000080;stroke-width:0.5;" x="304.232747725" xlink:href="#mbcb0b200e2" y="25.9891089109"/>
    </g>
   </g>
   <g id="line2d_7">
    <path d="M 226.483808 384.9 
L 226.483808 383.492506 
L 226.951663 383.492506 
L 226.951663 382.085013 
L 227.085393 382.085013 
L 227.085393 379.973772 
L 227.238297 379.973772 
L 227.238297 379.270025 
L 227.893651 379.270025 
L 227.968537 377.862532 
L 228.168596 377.862532 
L 228.168596 377.158785 
L 228.379949 377.158785 
L 228.379949 376.455038 
L 228.49224 376.455038 
L 228.558075 373.64005 
L 228.905817 373.64005 
L 228.964455 371.52881 
L 229.253239 371.52881 
L 229.253239 370.825063 
L 229.616367 370.825063 
L 229.634079 369.417569 
L 229.892343 369.417569 
L 229.907308 367.306329 
L 230.19385 367.306329 
L 230.19385 366.602582 
L 230.348518 366.602582 
L 230.348518 365.195088 
L 230.463319 365.195088 
L 230.56033 362.380101 
L 230.625961 362.380101 
L 230.70451 358.861367 
L 230.800487 358.861367 
L 230.886364 356.750126 
L 231.073971 356.750126 
L 231.14335 355.342632 
L 231.242466 355.342632 
L 231.330346 351.120151 
L 231.436814 351.120151 
L 231.547274 345.490177 
L 231.748137 345.490177 
L 231.748137 344.78643 
L 231.894192 344.78643 
L 231.999497 342.675189 
L 232.134764 342.675189 
L 232.168714 341.267696 
L 232.335428 341.267696 
L 232.424909 339.156455 
L 232.670484 339.156455 
L 232.679641 337.045215 
L 232.802392 337.045215 
L 232.909177 335.637721 
L 233.030885 335.637721 
L 233.030885 334.933974 
L 233.180209 334.933974 
L 233.180209 334.230227 
L 233.295119 334.230227 
L 233.327362 332.118987 
L 233.526913 332.118987 
L 233.526913 331.41524 
L 233.754985 331.41524 
L 233.856964 327.896506 
L 234.190991 327.896506 
L 234.27965 326.489012 
L 234.447653 326.489012 
L 234.542986 323.674024 
L 234.702719 323.674024 
L 234.702719 322.970278 
L 235.26444 322.970278 
L 235.358185 320.15529 
L 235.831397 320.15529 
L 235.906252 318.747797 
L 236.071669 318.747797 
L 236.179012 316.636556 
L 236.30057 316.636556 
L 236.40407 314.525315 
L 236.506924 314.525315 
L 236.616141 308.895341 
L 236.987895 308.895341 
L 236.997804 306.080353 
L 237.424882 306.080353 
L 237.424882 305.376606 
L 237.83381 305.376606 
L 237.944511 303.265366 
L 238.124403 303.265366 
L 238.124403 302.561619 
L 238.359671 302.561619 
L 238.418697 301.154125 
L 238.735623 301.154125 
L 238.735623 299.746632 
L 238.884786 299.746632 
L 238.884786 299.042885 
L 239.177584 299.042885 
L 239.177584 298.339138 
L 239.69249 298.339138 
L 239.786123 296.931644 
L 240.169492 296.931644 
L 240.169492 296.227897 
L 240.576237 296.227897 
L 240.576237 295.524151 
L 240.810422 295.524151 
L 240.916594 292.709163 
L 241.378799 292.709163 
L 241.475036 290.597923 
L 241.657552 290.597923 
L 241.657552 289.894176 
L 241.836026 289.894176 
L 241.836026 289.190429 
L 242.310402 289.190429 
L 242.310402 288.486682 
L 243.104451 288.486682 
L 243.104451 287.782935 
L 243.414028 287.782935 
L 243.414028 286.375442 
L 244.205428 286.375442 
L 244.205428 284.264201 
L 244.494413 284.264201 
L 244.494413 283.560454 
L 244.629455 283.560454 
L 244.638302 280.04172 
L 245.106705 280.04172 
L 245.106705 279.337973 
L 245.313416 279.337973 
L 245.313416 278.634226 
L 246.372012 278.634226 
L 246.372012 277.226733 
L 246.917611 277.226733 
L 246.917611 276.522986 
L 247.180776 276.522986 
L 247.180776 275.819239 
L 247.363736 275.819239 
L 247.363736 274.411745 
L 247.607205 274.411745 
L 247.607205 273.707998 
L 247.913874 273.707998 
L 247.971865 272.300505 
L 248.326241 272.300505 
L 248.326241 271.596758 
L 248.527913 271.596758 
L 248.527913 270.189264 
L 249.382218 270.189264 
L 249.457779 268.078024 
L 249.555188 268.078024 
L 249.555188 267.374277 
L 249.708911 267.374277 
L 249.73913 265.263036 
L 249.942075 265.263036 
L 250.050664 261.744302 
L 251.534472 261.744302 
L 251.534472 261.040555 
L 251.767389 261.040555 
L 251.767389 260.336808 
L 251.921799 260.336808 
L 251.921799 259.633062 
L 252.59383 259.633062 
L 252.644367 257.521821 
L 253.132368 257.521821 
L 253.132368 256.114327 
L 253.711941 256.114327 
L 253.711941 255.41058 
L 254.154229 255.41058 
L 254.154229 254.706834 
L 254.328659 254.706834 
L 254.328659 254.003087 
L 254.993782 254.003087 
L 255.062375 252.595593 
L 255.788265 252.595593 
L 255.886753 250.484353 
L 256.093793 250.484353 
L 256.093793 249.780606 
L 256.448373 249.780606 
L 256.448373 249.076859 
L 256.928254 249.076859 
L 256.928254 248.373112 
L 257.059543 248.373112 
L 257.059543 247.669365 
L 257.222804 247.669365 
L 257.222804 246.965618 
L 258.653835 246.965618 
L 258.676444 245.558125 
L 258.959019 245.558125 
L 258.959019 244.854378 
L 259.183513 244.854378 
L 259.183513 244.150631 
L 259.65128 244.150631 
L 259.65128 243.446884 
L 260.051597 243.446884 
L 260.051597 242.743137 
L 260.466735 242.743137 
L 260.466735 242.03939 
L 260.679196 242.03939 
L 260.679196 241.335644 
L 260.807427 241.335644 
L 260.807427 240.631897 
L 261.126507 240.631897 
L 261.202671 238.520656 
L 261.495344 238.520656 
L 261.495344 237.113162 
L 261.623789 237.113162 
L 261.623789 236.409416 
L 262.409485 236.409416 
L 262.409485 235.001922 
L 262.574795 235.001922 
L 262.574795 234.298175 
L 262.806712 234.298175 
L 262.806712 233.594428 
L 262.945537 233.594428 
L 262.945537 232.890681 
L 263.399737 232.890681 
L 263.46269 231.483188 
L 264.120482 231.483188 
L 264.120482 230.779441 
L 264.689182 230.779441 
L 264.689182 230.075694 
L 265.237493 230.075694 
L 265.237493 229.371947 
L 265.53417 229.371947 
L 265.594817 227.260707 
L 265.74986 227.260707 
L 265.74986 226.55696 
L 265.900731 226.55696 
L 265.900731 225.853213 
L 266.054424 225.853213 
L 266.054424 224.445719 
L 266.260499 224.445719 
L 266.260499 223.741972 
L 266.684603 223.741972 
L 266.684603 223.038226 
L 266.824717 223.038226 
L 266.824717 222.334479 
L 267.033595 222.334479 
L 267.119508 219.519491 
L 267.347497 219.519491 
L 267.347497 218.815745 
L 267.553278 218.815745 
L 267.570697 215.29701 
L 268.190394 215.29701 
L 268.190394 214.593263 
L 268.476532 214.593263 
L 268.476532 213.18577 
L 269.305783 213.18577 
L 269.402728 211.778276 
L 269.711428 211.778276 
L 269.787007 208.963289 
L 270.386816 208.963289 
L 270.430617 206.148301 
L 270.872414 206.148301 
L 270.872414 204.740808 
L 271.07679 204.740808 
L 271.108482 202.629567 
L 271.238283 202.629567 
L 271.300439 201.222073 
L 271.861612 201.222073 
L 271.89972 199.110833 
L 272.199265 199.110833 
L 272.267009 197.703339 
L 272.350794 197.703339 
L 272.393822 194.888352 
L 272.845142 194.888352 
L 272.845142 194.184605 
L 272.957147 194.184605 
L 272.957147 193.480858 
L 273.086174 193.480858 
L 273.086174 192.073364 
L 273.352495 192.073364 
L 273.352495 191.369618 
L 273.535877 191.369618 
L 273.535877 190.665871 
L 273.683582 190.665871 
L 273.788163 189.258377 
L 273.818705 189.258377 
L 273.818705 188.55463 
L 274.123958 188.55463 
L 274.123958 187.850883 
L 274.719388 187.850883 
L 274.719388 187.147136 
L 274.990557 187.147136 
L 275.080914 185.739643 
L 275.101858 185.739643 
L 275.104911 183.628402 
L 275.375091 183.628402 
L 275.452266 179.405921 
L 275.594787 179.405921 
L 275.608387 177.998427 
L 275.889654 177.998427 
L 275.91551 174.479693 
L 276.087028 174.479693 
L 276.087028 173.0722 
L 276.198771 173.0722 
L 276.198771 172.368453 
L 276.544127 172.368453 
L 276.544127 171.664706 
L 276.657655 171.664706 
L 276.685689 169.553465 
L 276.923303 169.553465 
L 276.923303 168.145972 
L 277.201665 168.145972 
L 277.24616 165.330984 
L 277.520993 165.330984 
L 277.534666 163.923491 
L 277.741459 163.923491 
L 277.806097 161.81225 
L 277.873385 161.81225 
L 277.906341 158.997263 
L 278.062915 158.997263 
L 278.156209 157.589769 
L 278.229113 157.589769 
L 278.266722 156.182275 
L 278.348478 156.182275 
L 278.348478 154.774782 
L 278.475864 154.774782 
L 278.558689 152.663541 
L 278.677636 152.663541 
L 278.767083 150.552301 
L 278.832421 150.552301 
L 278.832421 149.848554 
L 279.164144 149.848554 
L 279.268414 148.44106 
L 279.318593 148.44106 
L 279.318593 147.737313 
L 279.440817 147.737313 
L 279.464015 144.922326 
L 279.764474 144.922326 
L 279.785512 143.514832 
L 279.90812 143.514832 
L 280.008632 139.292351 
L 280.025456 139.292351 
L 280.025456 138.588604 
L 280.303 138.588604 
L 280.303 137.884857 
L 280.472024 137.884857 
L 280.566111 135.773617 
L 280.648654 135.773617 
L 280.676655 133.662376 
L 280.772623 133.662376 
L 280.833515 132.254883 
L 280.992706 132.254883 
L 281.052911 130.143642 
L 281.172935 130.143642 
L 281.252745 127.328655 
L 281.352245 127.328655 
L 281.370916 125.921161 
L 281.500279 125.921161 
L 281.555765 124.513667 
L 281.723976 124.513667 
L 281.723976 123.80992 
L 281.957473 123.80992 
L 282.06572 122.402427 
L 282.089322 122.402427 
L 282.089322 121.69868 
L 282.26439 121.69868 
L 282.305114 118.883692 
L 282.546349 118.883692 
L 282.63968 116.772452 
L 282.720588 116.772452 
L 282.814775 113.957465 
L 282.9357 113.957465 
L 282.988886 112.549971 
L 283.100501 112.549971 
L 283.118467 111.142477 
L 283.251231 111.142477 
L 283.278445 109.734983 
L 283.444932 109.734983 
L 283.547789 107.623743 
L 283.59378 107.623743 
L 283.59378 106.919996 
L 283.893787 106.919996 
L 283.908046 104.105009 
L 284.075661 104.105009 
L 284.143098 101.993768 
L 284.417929 101.993768 
L 284.417929 100.586275 
L 284.681468 100.586275 
L 284.681468 99.178781 
L 284.941139 99.178781 
L 284.941139 98.475034 
L 285.172898 98.475034 
L 285.244139 96.363793 
L 285.655744 96.363793 
L 285.699162 94.9563 
L 285.930306 94.9563 
L 286.039638 93.548806 
L 286.083117 93.548806 
L 286.083117 91.437566 
L 286.402227 91.437566 
L 286.402227 90.733819 
L 286.806046 90.733819 
L 286.915259 89.326325 
L 287.06098 89.326325 
L 287.06098 88.622578 
L 287.554594 88.622578 
L 287.635623 86.511338 
L 287.895793 86.511338 
L 287.969672 82.992603 
L 288.424564 82.992603 
L 288.505699 81.58511 
L 288.574658 81.58511 
L 288.620688 79.473869 
L 288.740656 79.473869 
L 288.77581 76.658882 
L 288.903568 76.658882 
L 288.903568 75.251388 
L 289.018969 75.251388 
L 289.018969 74.547641 
L 289.25629 74.547641 
L 289.262565 72.436401 
L 289.40601 72.436401 
L 289.40601 69.621413 
L 289.517454 69.621413 
L 289.59939 68.21392 
L 289.726684 68.21392 
L 289.814594 66.806426 
L 289.863546 66.806426 
L 289.863546 66.102679 
L 290.12465 66.102679 
L 290.129549 63.991439 
L 290.364405 63.991439 
L 290.380726 61.880198 
L 290.521084 61.880198 
L 290.545483 59.768957 
L 290.686222 59.768957 
L 290.686222 59.065211 
L 290.903672 59.065211 
L 290.935208 54.84273 
L 291.019832 54.84273 
L 291.019832 54.138983 
L 291.212961 54.138983 
L 291.212961 53.435236 
L 291.346467 53.435236 
L 291.346467 52.027742 
L 291.802417 52.027742 
L 291.802417 51.323995 
L 291.970483 51.323995 
L 292.028648 49.916502 
L 292.102373 49.916502 
L 292.10958 47.805261 
L 292.532477 47.805261 
L 292.532477 47.101514 
L 292.676406 47.101514 
L 292.676406 46.397767 
L 293.320987 46.397767 
L 293.346352 44.990274 
L 294.561806 44.990274 
L 294.561806 43.58278 
L 294.771717 43.58278 
L 294.771717 42.879033 
L 294.907243 42.879033 
L 294.907243 41.47154 
L 295.096782 41.47154 
L 295.096782 40.767793 
L 295.393857 40.767793 
L 295.393857 40.064046 
L 295.713317 40.064046 
L 295.713317 39.360299 
L 296.399696 39.360299 
L 296.399696 37.952805 
L 296.63871 37.952805 
L 296.63871 37.249058 
L 296.984585 37.249058 
L 296.984585 36.545312 
L 298.381432 36.545312 
L 298.381432 35.841565 
L 299.049582 35.841565 
L 299.049582 35.137818 
L 299.434207 35.137818 
L 299.434207 34.434071 
L 302.069369 34.434071 
L 302.069369 33.730324 
L 302.599748 33.730324 
L 302.599748 33.026577 
L 302.926042 33.026577 
L 302.926042 32.322831 
L 303.529025 32.322831 
L 303.529025 30.915337 
L 303.753449 30.915337 
L 303.860241 28.100349 
L 304.018304 28.100349 
L 304.018304 26.692856 
L 304.232748 26.692856 
L 304.232748 25.989109 
L 416.908065 25.989109 
L 416.908065 25.989109 
" style="fill:none;stroke:#000080;stroke-linecap:square;stroke-width:1.5;"/>
   </g>
   <g id="line2d_8">
    <defs>
     <path d="M 0 6 
C 1.591219 6 3.117479 5.367802 4.242641 4.242641 
C 5.367802 3.117479 6 1.591219 6 0 
C 6 -1.591219 5.367802 -3.117479 4.242641 -4.242641 
C 3.117479 -5.367802 1.591219 -6 0 -6 
C -1.591219 -6 -3.117479 -5.367802 -4.242641 -4.242641 
C -5.367802 -3.117479 -6 -1.591219 -6 0 
C -6 1.591219 -5.367802 3.117479 -4.242641 4.242641 
C -3.117479 5.367802 -1.591219 6 0 6 
z
" id="md6ee2e509f" style="stroke:#000080;stroke-width:1.5;"/>
    </defs>
    <g>
     <use style="fill:none;stroke:#000080;stroke-width:1.5;" x="279.933277842" xlink:href="#md6ee2e509f" y="142.811085226"/>
     <use style="fill:none;stroke:#000080;stroke-width:1.5;" x="304.232747725" xlink:href="#md6ee2e509f" y="26.6928557562"/>
     <use style="fill:none;stroke:#000080;stroke-width:1.5;" x="304.232747725" xlink:href="#md6ee2e509f" y="25.9891089109"/>
     <use style="fill:none;stroke:#000080;stroke-width:1.5;" x="416.908064516" xlink:href="#md6ee2e509f" y="25.9891089109"/>
    </g>
   </g>
   <g id="line2d_9">
    <path d="M -15527.946774 743.810891 
" style="fill:none;stroke:#000080;stroke-linecap:square;stroke-width:1.5;"/>
    <g>
     <use style="fill:none;stroke:#000080;stroke-width:1.5;" x="-15527.9467742" xlink:href="#md6ee2e509f" y="743.810891089"/>
    </g>
   </g>
   <g id="line2d_10">
    <defs>
     <path d="M 0 1.5 
C 0.397805 1.5 0.77937 1.341951 1.06066 1.06066 
C 1.341951 0.77937 1.5 0.397805 1.5 0 
C 1.5 -0.397805 1.341951 -0.77937 1.06066 -1.06066 
C 0.77937 -1.341951 0.397805 -1.5 0 -1.5 
C -0.397805 -1.5 -0.77937 -1.341951 -1.06066 -1.06066 
C -1.341951 -0.77937 -1.5 -0.397805 -1.5 0 
C -1.5 0.397805 -1.341951 0.77937 -1.06066 1.06066 
C -0.77937 1.341951 -0.397805 1.5 0 1.5 
z
" id="mac2954eee1" style="stroke:#ff00ff;stroke-width:0.5;"/>
    </defs>
    <g>
     <use style="fill:#ff00ff;stroke:#ff00ff;stroke-width:0.5;" x="291.697094812" xlink:href="#mac2954eee1" y="25.9891089109"/>
     <use style="fill:#ff00ff;stroke:#ff00ff;stroke-width:0.5;" x="291.697094812" xlink:href="#mac2954eee1" y="25.9891089109"/>
    </g>
   </g>
   <g id="line2d_11">
    <path d="M 230.231993 384.9 
L 230.231993 384.196253 
L 230.231993 384.196253 
L 230.231993 384.196253 
L 230.275506 384.196253 
L 230.275506 383.492506 
L 230.479479 383.492506 
L 230.569941 380.677519 
L 230.832316 380.677519 
L 230.881075 379.270025 
L 231.131584 379.270025 
L 231.131584 378.566278 
L 231.3083 378.566278 
L 231.401309 376.455038 
L 231.499296 376.455038 
L 231.508085 374.343797 
L 231.721402 374.343797 
L 231.746441 372.936304 
L 231.861091 372.936304 
L 231.903039 370.825063 
L 232.090322 370.825063 
L 232.175789 368.713823 
L 232.341831 368.713823 
L 232.354426 367.306329 
L 232.580342 367.306329 
L 232.589127 365.195088 
L 232.709528 365.195088 
L 232.709528 363.083848 
L 233.056508 363.083848 
L 233.056508 362.380101 
L 233.277692 362.380101 
L 233.378107 360.26886 
L 233.465701 360.26886 
L 233.547476 358.15762 
L 233.645331 358.15762 
L 233.645331 357.453873 
L 233.89593 357.453873 
L 233.89593 356.750126 
L 234.097206 356.750126 
L 234.159963 353.935139 
L 234.258419 353.935139 
L 234.306728 351.823898 
L 234.380979 351.823898 
L 234.380979 351.120151 
L 234.533246 351.120151 
L 234.533246 350.416405 
L 234.746558 350.416405 
L 234.832318 349.008911 
L 234.858739 349.008911 
L 234.858739 348.305164 
L 235.015519 348.305164 
L 235.015519 347.601417 
L 235.33361 347.601417 
L 235.33361 346.89767 
L 235.661345 346.89767 
L 235.708336 344.78643 
L 235.802377 344.78643 
L 235.802377 344.082683 
L 235.963636 344.082683 
L 236.009824 341.267696 
L 236.19868 341.267696 
L 236.308708 339.860202 
L 236.396656 339.860202 
L 236.492848 337.748961 
L 236.510699 337.748961 
L 236.510699 337.045215 
L 236.639695 337.045215 
L 236.639695 336.341468 
L 236.809645 336.341468 
L 236.823524 334.230227 
L 236.986552 334.230227 
L 236.998811 332.118987 
L 237.166411 332.118987 
L 237.166411 331.41524 
L 237.483782 331.41524 
L 237.555633 327.896506 
L 237.628399 327.896506 
L 237.651569 326.489012 
L 237.781174 326.489012 
L 237.864526 322.970278 
L 237.991949 322.970278 
L 237.991949 321.562784 
L 238.131748 321.562784 
L 238.192966 320.15529 
L 238.276552 320.15529 
L 238.295419 318.04405 
L 238.453345 318.04405 
L 238.453345 317.340303 
L 238.740129 317.340303 
L 238.839661 313.821569 
L 238.857443 313.821569 
L 238.857443 313.117822 
L 239.24195 313.117822 
L 239.32794 311.710328 
L 239.36711 311.710328 
L 239.36711 310.302834 
L 239.72077 310.302834 
L 239.757332 308.895341 
L 239.938812 308.895341 
L 239.938812 308.191594 
L 240.143961 308.191594 
L 240.161325 306.7841 
L 240.49145 306.7841 
L 240.548584 305.376606 
L 240.612007 305.376606 
L 240.612007 304.67286 
L 240.980396 304.67286 
L 240.980396 303.969113 
L 241.229772 303.969113 
L 241.229772 303.265366 
L 241.354329 303.265366 
L 241.354329 302.561619 
L 241.667376 302.561619 
L 241.764426 301.154125 
L 241.838056 301.154125 
L 241.884848 299.746632 
L 242.139142 299.746632 
L 242.210892 298.339138 
L 242.591527 298.339138 
L 242.687675 296.227897 
L 242.954362 296.227897 
L 242.965696 294.116657 
L 243.179951 294.116657 
L 243.179951 293.41291 
L 243.599677 293.41291 
L 243.693861 289.894176 
L 244.047815 289.894176 
L 244.047815 287.782935 
L 244.876325 287.782935 
L 244.949884 285.671695 
L 245.128935 285.671695 
L 245.128935 284.967948 
L 245.260346 284.967948 
L 245.260346 284.264201 
L 245.615385 284.264201 
L 245.615385 283.560454 
L 245.746722 283.560454 
L 245.746722 282.856707 
L 245.901717 282.856707 
L 245.901717 282.152961 
L 246.028139 282.152961 
L 246.028139 281.449214 
L 246.632087 281.449214 
L 246.632087 280.745467 
L 246.789156 280.745467 
L 246.789156 280.04172 
L 247.439629 280.04172 
L 247.439629 277.93048 
L 247.670692 277.93048 
L 247.670692 277.226733 
L 247.884098 277.226733 
L 247.884098 275.819239 
L 248.219576 275.819239 
L 248.219576 275.115492 
L 248.339019 275.115492 
L 248.392183 272.300505 
L 248.602287 272.300505 
L 248.602287 271.596758 
L 248.713738 271.596758 
L 248.7506 269.485517 
L 248.968441 269.485517 
L 249.05611 268.078024 
L 249.437899 268.078024 
L 249.437899 266.67053 
L 249.576596 266.67053 
L 249.576596 265.966783 
L 249.815022 265.966783 
L 249.815022 265.263036 
L 250.00618 265.263036 
L 250.00618 264.559289 
L 250.354417 264.559289 
L 250.354417 263.855543 
L 250.784719 263.855543 
L 250.784719 262.448049 
L 250.902081 262.448049 
L 250.902081 261.040555 
L 251.701225 261.040555 
L 251.701225 260.336808 
L 251.822161 260.336808 
L 251.822161 258.225568 
L 252.094895 258.225568 
L 252.094895 257.521821 
L 252.383424 257.521821 
L 252.383424 256.818074 
L 252.632057 256.818074 
L 252.632057 256.114327 
L 252.766094 256.114327 
L 252.766094 255.41058 
L 253.037965 255.41058 
L 253.037965 254.706834 
L 253.185879 254.706834 
L 253.185879 254.003087 
L 253.308456 254.003087 
L 253.308456 252.595593 
L 253.504779 252.595593 
L 253.504779 251.891846 
L 253.619143 251.891846 
L 253.619143 251.188099 
L 253.778025 251.188099 
L 253.778025 250.484353 
L 253.954755 250.484353 
L 253.954755 248.373112 
L 254.406431 248.373112 
L 254.406431 246.965618 
L 254.523626 246.965618 
L 254.523626 246.261871 
L 254.945241 246.261871 
L 254.945241 245.558125 
L 255.847947 245.558125 
L 255.847947 244.150631 
L 256.173646 244.150631 
L 256.173646 243.446884 
L 256.482559 243.446884 
L 256.482559 242.03939 
L 257.12226 242.03939 
L 257.12226 241.335644 
L 257.412196 241.335644 
L 257.412196 239.92815 
L 257.76967 239.92815 
L 257.76967 239.224403 
L 258.105533 239.224403 
L 258.105533 238.520656 
L 258.306738 238.520656 
L 258.387744 235.001922 
L 258.778955 235.001922 
L 258.830513 232.890681 
L 259.014076 232.890681 
L 259.046593 230.075694 
L 259.297323 230.075694 
L 259.297323 229.371947 
L 259.595796 229.371947 
L 259.595796 227.964454 
L 259.74237 227.964454 
L 259.74237 226.55696 
L 260.091065 226.55696 
L 260.091065 225.853213 
L 260.339453 225.853213 
L 260.339453 225.149466 
L 260.626254 225.149466 
L 260.626254 223.741972 
L 261.363149 223.741972 
L 261.363149 223.038226 
L 261.628169 223.038226 
L 261.731117 221.630732 
L 261.889268 221.630732 
L 261.889268 220.223238 
L 262.346281 220.223238 
L 262.369976 218.815745 
L 262.535631 218.815745 
L 262.535631 216.704504 
L 262.673938 216.704504 
L 262.747661 215.29701 
L 262.852001 215.29701 
L 262.852001 214.593263 
L 263.24615 214.593263 
L 263.24615 213.889517 
L 263.362504 213.889517 
L 263.362504 213.18577 
L 263.487667 213.18577 
L 263.545994 208.963289 
L 263.878288 208.963289 
L 263.878288 208.259542 
L 264.058893 208.259542 
L 264.16897 205.444554 
L 264.296816 205.444554 
L 264.341393 203.333314 
L 264.547635 203.333314 
L 264.547635 202.629567 
L 264.922404 202.629567 
L 264.942856 200.518327 
L 265.122399 200.518327 
L 265.202322 199.110833 
L 265.389313 199.110833 
L 265.460106 197.703339 
L 265.54153 197.703339 
L 265.54153 196.999592 
L 265.860353 196.999592 
L 265.871558 195.592099 
L 266.213438 195.592099 
L 266.286707 193.480858 
L 266.485156 193.480858 
L 266.485156 192.777111 
L 266.670072 192.777111 
L 266.705127 190.665871 
L 266.824628 190.665871 
L 266.874918 188.55463 
L 267.049613 188.55463 
L 267.049613 187.850883 
L 267.168837 187.850883 
L 267.168837 187.147136 
L 267.365685 187.147136 
L 267.464419 185.035896 
L 267.689726 185.035896 
L 267.758004 180.813415 
L 268.14578 180.813415 
L 268.210386 178.702174 
L 268.363936 178.702174 
L 268.466552 175.887187 
L 268.509998 175.887187 
L 268.596803 173.775946 
L 268.713116 173.775946 
L 268.761362 171.664706 
L 268.984948 171.664706 
L 268.984948 170.960959 
L 269.184441 170.960959 
L 269.236891 168.849719 
L 269.502421 168.849719 
L 269.611832 166.034731 
L 269.693512 166.034731 
L 269.693512 163.923491 
L 269.91812 163.923491 
L 270.019425 161.108503 
L 270.067265 161.108503 
L 270.067265 160.404756 
L 270.194572 160.404756 
L 270.194572 159.70101 
L 270.484142 159.70101 
L 270.484142 158.997263 
L 270.660078 158.997263 
L 270.660078 158.293516 
L 270.806859 158.293516 
L 270.862922 156.182275 
L 270.956619 156.182275 
L 271.064175 153.367288 
L 271.257131 153.367288 
L 271.355505 151.959794 
L 271.381968 151.959794 
L 271.488382 149.144807 
L 271.625661 149.144807 
L 271.625661 148.44106 
L 271.758172 148.44106 
L 271.758172 147.737313 
L 272.193686 147.737313 
L 272.269877 144.922326 
L 272.422739 144.922326 
L 272.518678 142.107338 
L 272.71976 142.107338 
L 272.78394 140.699845 
L 272.932611 140.699845 
L 273.016595 135.773617 
L 273.346062 135.773617 
L 273.413035 132.958629 
L 273.587056 132.958629 
L 273.657032 131.551136 
L 273.856995 131.551136 
L 273.966937 128.032401 
L 273.973681 128.032401 
L 274.055228 125.217414 
L 274.132296 125.217414 
L 274.132296 124.513667 
L 274.367377 124.513667 
L 274.428616 121.69868 
L 274.528879 121.69868 
L 274.632128 118.883692 
L 274.767413 118.883692 
L 274.860041 113.957465 
L 274.933316 113.957465 
L 274.933316 111.846224 
L 275.245447 111.846224 
L 275.32786 107.623743 
L 275.457304 107.623743 
L 275.493148 106.216249 
L 275.82263 106.216249 
L 275.82263 104.808756 
L 275.984778 104.808756 
L 276.005846 103.401262 
L 276.16777 103.401262 
L 276.16777 101.993768 
L 276.372287 101.993768 
L 276.372287 101.290021 
L 276.585786 101.290021 
L 276.636038 99.178781 
L 277.029221 99.178781 
L 277.029221 98.475034 
L 277.219883 98.475034 
L 277.219883 97.06754 
L 277.431914 97.06754 
L 277.451502 94.9563 
L 277.865179 94.9563 
L 277.865179 94.252553 
L 277.995868 94.252553 
L 278.015811 92.845059 
L 278.131999 92.845059 
L 278.131999 92.141312 
L 278.248395 92.141312 
L 278.248395 90.733819 
L 278.415654 90.733819 
L 278.466602 88.622578 
L 278.835738 88.622578 
L 278.835738 87.918831 
L 278.978677 87.918831 
L 279.017411 85.807591 
L 279.240142 85.807591 
L 279.322682 84.400097 
L 279.426704 84.400097 
L 279.475185 80.881363 
L 279.793447 80.881363 
L 279.86967 78.770122 
L 280.024119 78.770122 
L 280.074518 77.362629 
L 280.309066 77.362629 
L 280.309066 76.658882 
L 280.482826 76.658882 
L 280.581436 75.251388 
L 280.608217 75.251388 
L 280.701064 72.436401 
L 280.728135 72.436401 
L 280.823549 71.028907 
L 280.903869 71.028907 
L 280.903869 70.32516 
L 281.061641 70.32516 
L 281.100823 68.21392 
L 281.291174 68.21392 
L 281.291174 67.510173 
L 281.42707 67.510173 
L 281.42707 66.806426 
L 281.744935 66.806426 
L 281.843518 63.287692 
L 282.021772 63.287692 
L 282.021772 62.583945 
L 282.262664 62.583945 
L 282.292242 61.176451 
L 282.474719 61.176451 
L 282.474719 59.768957 
L 282.66848 59.768957 
L 282.66848 58.361464 
L 282.894534 58.361464 
L 282.894534 57.657717 
L 283.317203 57.657717 
L 283.317203 56.95397 
L 283.518249 56.95397 
L 283.622967 54.84273 
L 283.705908 54.84273 
L 283.705908 54.138983 
L 283.860773 54.138983 
L 283.942968 52.731489 
L 284.996365 52.731489 
L 284.996365 51.323995 
L 286.030766 51.323995 
L 286.030766 50.620248 
L 286.25918 50.620248 
L 286.25918 49.916502 
L 286.644546 49.916502 
L 286.698103 47.805261 
L 287.050598 47.805261 
L 287.050598 47.101514 
L 287.350942 47.101514 
L 287.350942 45.694021 
L 287.736337 45.694021 
L 287.736337 44.286527 
L 288.006972 44.286527 
L 288.006972 42.879033 
L 288.17189 42.879033 
L 288.17189 42.175286 
L 288.431825 42.175286 
L 288.474764 40.767793 
L 288.735175 40.767793 
L 288.735175 39.360299 
L 289.09536 39.360299 
L 289.09536 38.656552 
L 289.712989 38.656552 
L 289.769695 36.545312 
L 290.002854 36.545312 
L 290.056836 35.137818 
L 290.287648 35.137818 
L 290.346195 32.322831 
L 290.744573 32.322831 
L 290.744573 31.619084 
L 290.88681 31.619084 
L 290.88681 30.21159 
L 291.211048 30.21159 
L 291.235402 28.804096 
L 291.426965 28.804096 
L 291.426965 27.396603 
L 291.663954 27.396603 
L 291.697095 25.989109 
L 416.908065 25.989109 
L 416.908065 25.989109 
" style="fill:none;stroke:#ff00ff;stroke-linecap:square;stroke-width:1.5;"/>
   </g>
   <g id="line2d_12">
    <defs>
     <path d="M -0 8.485281 
L 5.091169 0 
L 0 -8.485281 
L -5.091169 -0 
z
" id="me50f3c4155" style="stroke:#ff00ff;stroke-linejoin:miter;stroke-width:1.5;"/>
    </defs>
    <g>
     <use style="fill:none;stroke:#ff00ff;stroke-linejoin:miter;stroke-width:1.5;" x="280.903868528" xlink:href="#me50f3c4155" y="70.3251601631"/>
     <use style="fill:none;stroke:#ff00ff;stroke-linejoin:miter;stroke-width:1.5;" x="291.697094812" xlink:href="#me50f3c4155" y="25.9891089109"/>
     <use style="fill:none;stroke:#ff00ff;stroke-linejoin:miter;stroke-width:1.5;" x="291.697094812" xlink:href="#me50f3c4155" y="25.9891089109"/>
     <use style="fill:none;stroke:#ff00ff;stroke-linejoin:miter;stroke-width:1.5;" x="416.908064516" xlink:href="#me50f3c4155" y="25.9891089109"/>
    </g>
   </g>
   <g id="line2d_13">
    <path d="M -15527.946774 743.810891 
" style="fill:none;stroke:#ff00ff;stroke-linecap:square;stroke-width:1.5;"/>
    <g>
     <use style="fill:none;stroke:#ff00ff;stroke-linejoin:miter;stroke-width:1.5;" x="-15527.9467742" xlink:href="#me50f3c4155" y="743.810891089"/>
    </g>
   </g>
   <g id="line2d_14">
    <path d="M 416.908065 25.989109 
L 456.770202 377.721782 
" style="fill:none;stroke:#000080;stroke-linecap:square;stroke-width:1.5;"/>
    <g>
     <use style="fill:none;stroke:#000080;stroke-width:1.5;" x="416.908064516" xlink:href="#md6ee2e509f" y="25.9891089109"/>
     <use style="fill:none;stroke:#000080;stroke-width:1.5;" x="456.770201613" xlink:href="#md6ee2e509f" y="377.721782178"/>
    </g>
   </g>
   <g id="line2d_15">
    <path d="M 416.908065 25.989109 
L 456.770202 205.444554 
" style="fill:none;stroke:#ff00ff;stroke-linecap:square;stroke-width:1.5;"/>
    <g>
     <use style="fill:none;stroke:#ff00ff;stroke-linejoin:miter;stroke-width:1.5;" x="416.908064516" xlink:href="#me50f3c4155" y="25.9891089109"/>
     <use style="fill:none;stroke:#ff00ff;stroke-linejoin:miter;stroke-width:1.5;" x="456.770201613" xlink:href="#me50f3c4155" y="205.444554455"/>
    </g>
   </g>
   <g id="line2d_16">
    <path d="M 416.908065 384.9 
L 416.908065 25.989109 
" style="fill:none;stroke:#000000;stroke-linecap:square;"/>
   </g>
   <g id="patch_3">
    <path d="M 54.525 22.4 
L 503.88 22.4 
" style="fill:none;stroke:#000000;stroke-linecap:square;stroke-linejoin:miter;"/>
   </g>
   <g id="patch_4">
    <path d="M 503.88 384.9 
L 503.88 22.4 
" style="fill:none;stroke:#000000;stroke-linecap:square;stroke-linejoin:miter;"/>
   </g>
   <g id="patch_5">
    <path d="M 54.525 384.9 
L 503.88 384.9 
" style="fill:none;stroke:#000000;stroke-linecap:square;stroke-linejoin:miter;"/>
   </g>
   <g id="patch_6">
    <path d="M 54.525 384.9 
L 54.525 22.4 
" style="fill:none;stroke:#000000;stroke-linecap:square;stroke-linejoin:miter;"/>
   </g>
   <g id="matplotlib.axis_1">
    <g id="xtick_1">
     <g id="line2d_17">
      <path clip-path="url(#p62c88ed98c)" d="M 54.525 384.9 
L 54.525 22.4 
" style="fill:none;stroke:#000000;stroke-dasharray:1.000000,3.000000;stroke-dashoffset:0.0;stroke-width:0.5;"/>
     </g>
     <g id="line2d_18">
      <defs>
       <path d="M 0 0 
L 0 -4 
" id="m55e5506687" style="stroke:#000000;stroke-width:0.5;"/>
      </defs>
      <g>
       <use style="stroke:#000000;stroke-width:0.5;" x="54.525" xlink:href="#m55e5506687" y="384.9"/>
      </g>
     </g>
     <g id="line2d_19">
      <defs>
       <path d="M 0 0 
L 0 4 
" id="m40394a99d9" style="stroke:#000000;stroke-width:0.5;"/>
      </defs>
      <g>
       <use style="stroke:#000000;stroke-width:0.5;" x="54.525" xlink:href="#m40394a99d9" y="22.4"/>
      </g>
     </g>
     <g id="text_1">
      <!-- 0 -->
      <defs>
       <path d="M 31.78125 66.40625 
Q 24.171875 66.40625 20.328125 58.90625 
Q 16.5 51.421875 16.5 36.375 
Q 16.5 21.390625 20.328125 13.890625 
Q 24.171875 6.390625 31.78125 6.390625 
Q 39.453125 6.390625 43.28125 13.890625 
Q 47.125 21.390625 47.125 36.375 
Q 47.125 51.421875 43.28125 58.90625 
Q 39.453125 66.40625 31.78125 66.40625 
M 31.78125 74.21875 
Q 44.046875 74.21875 50.515625 64.515625 
Q 56.984375 54.828125 56.984375 36.375 
Q 56.984375 17.96875 50.515625 8.265625 
Q 44.046875 -1.421875 31.78125 -1.421875 
Q 19.53125 -1.421875 13.0625 8.265625 
Q 6.59375 17.96875 6.59375 36.375 
Q 6.59375 54.828125 13.0625 64.515625 
Q 19.53125 74.21875 31.78125 74.21875 
" id="BitstreamVeraSans-Roman-30"/>
      </defs>
      <g transform="translate(48.1625 404.096875)scale(0.2 -0.2)">
       <use xlink:href="#BitstreamVeraSans-Roman-30"/>
      </g>
     </g>
    </g>
    <g id="xtick_2">
     <g id="line2d_20">
      <path clip-path="url(#p62c88ed98c)" d="M 106.294009 384.9 
L 106.294009 22.4 
" style="fill:none;stroke:#000000;stroke-dasharray:1.000000,3.000000;stroke-dashoffset:0.0;stroke-width:0.5;"/>
     </g>
     <g id="line2d_21">
      <g>
       <use style="stroke:#000000;stroke-width:0.5;" x="106.294009217" xlink:href="#m55e5506687" y="384.9"/>
      </g>
     </g>
     <g id="line2d_22">
      <g>
       <use style="stroke:#000000;stroke-width:0.5;" x="106.294009217" xlink:href="#m40394a99d9" y="22.4"/>
      </g>
     </g>
     <g id="text_2">
      <!-- 1 -->
      <defs>
       <path d="M 12.40625 8.296875 
L 28.515625 8.296875 
L 28.515625 63.921875 
L 10.984375 60.40625 
L 10.984375 69.390625 
L 28.421875 72.90625 
L 38.28125 72.90625 
L 38.28125 8.296875 
L 54.390625 8.296875 
L 54.390625 0 
L 12.40625 0 
z
" id="BitstreamVeraSans-Roman-31"/>
      </defs>
      <g transform="translate(99.9315092166 404.096875)scale(0.2 -0.2)">
       <use xlink:href="#BitstreamVeraSans-Roman-31"/>
      </g>
     </g>
    </g>
    <g id="xtick_3">
     <g id="line2d_23">
      <path clip-path="url(#p62c88ed98c)" d="M 158.063018 384.9 
L 158.063018 22.4 
" style="fill:none;stroke:#000000;stroke-dasharray:1.000000,3.000000;stroke-dashoffset:0.0;stroke-width:0.5;"/>
     </g>
     <g id="line2d_24">
      <g>
       <use style="stroke:#000000;stroke-width:0.5;" x="158.063018433" xlink:href="#m55e5506687" y="384.9"/>
      </g>
     </g>
     <g id="line2d_25">
      <g>
       <use style="stroke:#000000;stroke-width:0.5;" x="158.063018433" xlink:href="#m40394a99d9" y="22.4"/>
      </g>
     </g>
     <g id="text_3">
      <!-- 2 -->
      <defs>
       <path d="M 19.1875 8.296875 
L 53.609375 8.296875 
L 53.609375 0 
L 7.328125 0 
L 7.328125 8.296875 
Q 12.9375 14.109375 22.625 23.890625 
Q 32.328125 33.6875 34.8125 36.53125 
Q 39.546875 41.84375 41.421875 45.53125 
Q 43.3125 49.21875 43.3125 52.78125 
Q 43.3125 58.59375 39.234375 62.25 
Q 35.15625 65.921875 28.609375 65.921875 
Q 23.96875 65.921875 18.8125 64.3125 
Q 13.671875 62.703125 7.8125 59.421875 
L 7.8125 69.390625 
Q 13.765625 71.78125 18.9375 73 
Q 24.125 74.21875 28.421875 74.21875 
Q 39.75 74.21875 46.484375 68.546875 
Q 53.21875 62.890625 53.21875 53.421875 
Q 53.21875 48.921875 51.53125 44.890625 
Q 49.859375 40.875 45.40625 35.40625 
Q 44.1875 33.984375 37.640625 27.21875 
Q 31.109375 20.453125 19.1875 8.296875 
" id="BitstreamVeraSans-Roman-32"/>
      </defs>
      <g transform="translate(151.700518433 404.096875)scale(0.2 -0.2)">
       <use xlink:href="#BitstreamVeraSans-Roman-32"/>
      </g>
     </g>
    </g>
    <g id="xtick_4">
     <g id="line2d_26">
      <path clip-path="url(#p62c88ed98c)" d="M 209.832028 384.9 
L 209.832028 22.4 
" style="fill:none;stroke:#000000;stroke-dasharray:1.000000,3.000000;stroke-dashoffset:0.0;stroke-width:0.5;"/>
     </g>
     <g id="line2d_27">
      <g>
       <use style="stroke:#000000;stroke-width:0.5;" x="209.83202765" xlink:href="#m55e5506687" y="384.9"/>
      </g>
     </g>
     <g id="line2d_28">
      <g>
       <use style="stroke:#000000;stroke-width:0.5;" x="209.83202765" xlink:href="#m40394a99d9" y="22.4"/>
      </g>
     </g>
     <g id="text_4">
      <!-- 3 -->
      <defs>
       <path d="M 40.578125 39.3125 
Q 47.65625 37.796875 51.625 33 
Q 55.609375 28.21875 55.609375 21.1875 
Q 55.609375 10.40625 48.1875 4.484375 
Q 40.765625 -1.421875 27.09375 -1.421875 
Q 22.515625 -1.421875 17.65625 -0.515625 
Q 12.796875 0.390625 7.625 2.203125 
L 7.625 11.71875 
Q 11.71875 9.328125 16.59375 8.109375 
Q 21.484375 6.890625 26.8125 6.890625 
Q 36.078125 6.890625 40.9375 10.546875 
Q 45.796875 14.203125 45.796875 21.1875 
Q 45.796875 27.640625 41.28125 31.265625 
Q 36.765625 34.90625 28.71875 34.90625 
L 20.21875 34.90625 
L 20.21875 43.015625 
L 29.109375 43.015625 
Q 36.375 43.015625 40.234375 45.921875 
Q 44.09375 48.828125 44.09375 54.296875 
Q 44.09375 59.90625 40.109375 62.90625 
Q 36.140625 65.921875 28.71875 65.921875 
Q 24.65625 65.921875 20.015625 65.03125 
Q 15.375 64.15625 9.8125 62.3125 
L 9.8125 71.09375 
Q 15.4375 72.65625 20.34375 73.4375 
Q 25.25 74.21875 29.59375 74.21875 
Q 40.828125 74.21875 47.359375 69.109375 
Q 53.90625 64.015625 53.90625 55.328125 
Q 53.90625 49.265625 50.4375 45.09375 
Q 46.96875 40.921875 40.578125 39.3125 
" id="BitstreamVeraSans-Roman-33"/>
      </defs>
      <g transform="translate(203.46952765 404.096875)scale(0.2 -0.2)">
       <use xlink:href="#BitstreamVeraSans-Roman-33"/>
      </g>
     </g>
    </g>
    <g id="xtick_5">
     <g id="line2d_29">
      <path clip-path="url(#p62c88ed98c)" d="M 261.601037 384.9 
L 261.601037 22.4 
" style="fill:none;stroke:#000000;stroke-dasharray:1.000000,3.000000;stroke-dashoffset:0.0;stroke-width:0.5;"/>
     </g>
     <g id="line2d_30">
      <g>
       <use style="stroke:#000000;stroke-width:0.5;" x="261.601036866" xlink:href="#m55e5506687" y="384.9"/>
      </g>
     </g>
     <g id="line2d_31">
      <g>
       <use style="stroke:#000000;stroke-width:0.5;" x="261.601036866" xlink:href="#m40394a99d9" y="22.4"/>
      </g>
     </g>
     <g id="text_5">
      <!-- 4 -->
      <defs>
       <path d="M 37.796875 64.3125 
L 12.890625 25.390625 
L 37.796875 25.390625 
z
M 35.203125 72.90625 
L 47.609375 72.90625 
L 47.609375 25.390625 
L 58.015625 25.390625 
L 58.015625 17.1875 
L 47.609375 17.1875 
L 47.609375 0 
L 37.796875 0 
L 37.796875 17.1875 
L 4.890625 17.1875 
L 4.890625 26.703125 
z
" id="BitstreamVeraSans-Roman-34"/>
      </defs>
      <g transform="translate(255.238536866 404.096875)scale(0.2 -0.2)">
       <use xlink:href="#BitstreamVeraSans-Roman-34"/>
      </g>
     </g>
    </g>
    <g id="xtick_6">
     <g id="line2d_32">
      <path clip-path="url(#p62c88ed98c)" d="M 313.370046 384.9 
L 313.370046 22.4 
" style="fill:none;stroke:#000000;stroke-dasharray:1.000000,3.000000;stroke-dashoffset:0.0;stroke-width:0.5;"/>
     </g>
     <g id="line2d_33">
      <g>
       <use style="stroke:#000000;stroke-width:0.5;" x="313.370046083" xlink:href="#m55e5506687" y="384.9"/>
      </g>
     </g>
     <g id="line2d_34">
      <g>
       <use style="stroke:#000000;stroke-width:0.5;" x="313.370046083" xlink:href="#m40394a99d9" y="22.4"/>
      </g>
     </g>
     <g id="text_6">
      <!-- 5 -->
      <defs>
       <path d="M 10.796875 72.90625 
L 49.515625 72.90625 
L 49.515625 64.59375 
L 19.828125 64.59375 
L 19.828125 46.734375 
Q 21.96875 47.46875 24.109375 47.828125 
Q 26.265625 48.1875 28.421875 48.1875 
Q 40.625 48.1875 47.75 41.5 
Q 54.890625 34.8125 54.890625 23.390625 
Q 54.890625 11.625 47.5625 5.09375 
Q 40.234375 -1.421875 26.90625 -1.421875 
Q 22.3125 -1.421875 17.546875 -0.640625 
Q 12.796875 0.140625 7.71875 1.703125 
L 7.71875 11.625 
Q 12.109375 9.234375 16.796875 8.0625 
Q 21.484375 6.890625 26.703125 6.890625 
Q 35.15625 6.890625 40.078125 11.328125 
Q 45.015625 15.765625 45.015625 23.390625 
Q 45.015625 31 40.078125 35.4375 
Q 35.15625 39.890625 26.703125 39.890625 
Q 22.75 39.890625 18.8125 39.015625 
Q 14.890625 38.140625 10.796875 36.28125 
z
" id="BitstreamVeraSans-Roman-35"/>
      </defs>
      <g transform="translate(307.007546083 404.096875)scale(0.2 -0.2)">
       <use xlink:href="#BitstreamVeraSans-Roman-35"/>
      </g>
     </g>
    </g>
    <g id="xtick_7">
     <g id="line2d_35">
      <path clip-path="url(#p62c88ed98c)" d="M 365.139055 384.9 
L 365.139055 22.4 
" style="fill:none;stroke:#000000;stroke-dasharray:1.000000,3.000000;stroke-dashoffset:0.0;stroke-width:0.5;"/>
     </g>
     <g id="line2d_36">
      <g>
       <use style="stroke:#000000;stroke-width:0.5;" x="365.1390553" xlink:href="#m55e5506687" y="384.9"/>
      </g>
     </g>
     <g id="line2d_37">
      <g>
       <use style="stroke:#000000;stroke-width:0.5;" x="365.1390553" xlink:href="#m40394a99d9" y="22.4"/>
      </g>
     </g>
     <g id="text_7">
      <!-- 6 -->
      <defs>
       <path d="M 33.015625 40.375 
Q 26.375 40.375 22.484375 35.828125 
Q 18.609375 31.296875 18.609375 23.390625 
Q 18.609375 15.53125 22.484375 10.953125 
Q 26.375 6.390625 33.015625 6.390625 
Q 39.65625 6.390625 43.53125 10.953125 
Q 47.40625 15.53125 47.40625 23.390625 
Q 47.40625 31.296875 43.53125 35.828125 
Q 39.65625 40.375 33.015625 40.375 
M 52.59375 71.296875 
L 52.59375 62.3125 
Q 48.875 64.0625 45.09375 64.984375 
Q 41.3125 65.921875 37.59375 65.921875 
Q 27.828125 65.921875 22.671875 59.328125 
Q 17.53125 52.734375 16.796875 39.40625 
Q 19.671875 43.65625 24.015625 45.921875 
Q 28.375 48.1875 33.59375 48.1875 
Q 44.578125 48.1875 50.953125 41.515625 
Q 57.328125 34.859375 57.328125 23.390625 
Q 57.328125 12.15625 50.6875 5.359375 
Q 44.046875 -1.421875 33.015625 -1.421875 
Q 20.359375 -1.421875 13.671875 8.265625 
Q 6.984375 17.96875 6.984375 36.375 
Q 6.984375 53.65625 15.1875 63.9375 
Q 23.390625 74.21875 37.203125 74.21875 
Q 40.921875 74.21875 44.703125 73.484375 
Q 48.484375 72.75 52.59375 71.296875 
" id="BitstreamVeraSans-Roman-36"/>
      </defs>
      <g transform="translate(358.7765553 404.096875)scale(0.2 -0.2)">
       <use xlink:href="#BitstreamVeraSans-Roman-36"/>
      </g>
     </g>
    </g>
    <g id="xtick_8">
     <g id="line2d_38">
      <path clip-path="url(#p62c88ed98c)" d="M 416.908065 384.9 
L 416.908065 22.4 
" style="fill:none;stroke:#000000;stroke-dasharray:1.000000,3.000000;stroke-dashoffset:0.0;stroke-width:0.5;"/>
     </g>
     <g id="line2d_39">
      <g>
       <use style="stroke:#000000;stroke-width:0.5;" x="416.908064516" xlink:href="#m55e5506687" y="384.9"/>
      </g>
     </g>
     <g id="line2d_40">
      <g>
       <use style="stroke:#000000;stroke-width:0.5;" x="416.908064516" xlink:href="#m40394a99d9" y="22.4"/>
      </g>
     </g>
     <g id="text_8">
      <!-- 7 -->
      <defs>
       <path d="M 8.203125 72.90625 
L 55.078125 72.90625 
L 55.078125 68.703125 
L 28.609375 0 
L 18.3125 0 
L 43.21875 64.59375 
L 8.203125 64.59375 
z
" id="BitstreamVeraSans-Roman-37"/>
      </defs>
      <g transform="translate(410.545564516 404.096875)scale(0.2 -0.2)">
       <use xlink:href="#BitstreamVeraSans-Roman-37"/>
      </g>
     </g>
    </g>
    <g id="xtick_9">
     <g id="line2d_41">
      <path clip-path="url(#p62c88ed98c)" d="M 468.677074 384.9 
L 468.677074 22.4 
" style="fill:none;stroke:#000000;stroke-dasharray:1.000000,3.000000;stroke-dashoffset:0.0;stroke-width:0.5;"/>
     </g>
     <g id="line2d_42">
      <g>
       <use style="stroke:#000000;stroke-width:0.5;" x="468.677073733" xlink:href="#m55e5506687" y="384.9"/>
      </g>
     </g>
     <g id="line2d_43">
      <g>
       <use style="stroke:#000000;stroke-width:0.5;" x="468.677073733" xlink:href="#m40394a99d9" y="22.4"/>
      </g>
     </g>
     <g id="text_9">
      <!-- 8 -->
      <defs>
       <path d="M 31.78125 34.625 
Q 24.75 34.625 20.71875 30.859375 
Q 16.703125 27.09375 16.703125 20.515625 
Q 16.703125 13.921875 20.71875 10.15625 
Q 24.75 6.390625 31.78125 6.390625 
Q 38.8125 6.390625 42.859375 10.171875 
Q 46.921875 13.96875 46.921875 20.515625 
Q 46.921875 27.09375 42.890625 30.859375 
Q 38.875 34.625 31.78125 34.625 
M 21.921875 38.8125 
Q 15.578125 40.375 12.03125 44.71875 
Q 8.5 49.078125 8.5 55.328125 
Q 8.5 64.0625 14.71875 69.140625 
Q 20.953125 74.21875 31.78125 74.21875 
Q 42.671875 74.21875 48.875 69.140625 
Q 55.078125 64.0625 55.078125 55.328125 
Q 55.078125 49.078125 51.53125 44.71875 
Q 48 40.375 41.703125 38.8125 
Q 48.828125 37.15625 52.796875 32.3125 
Q 56.78125 27.484375 56.78125 20.515625 
Q 56.78125 9.90625 50.3125 4.234375 
Q 43.84375 -1.421875 31.78125 -1.421875 
Q 19.734375 -1.421875 13.25 4.234375 
Q 6.78125 9.90625 6.78125 20.515625 
Q 6.78125 27.484375 10.78125 32.3125 
Q 14.796875 37.15625 21.921875 38.8125 
M 18.3125 54.390625 
Q 18.3125 48.734375 21.84375 45.5625 
Q 25.390625 42.390625 31.78125 42.390625 
Q 38.140625 42.390625 41.71875 45.5625 
Q 45.3125 48.734375 45.3125 54.390625 
Q 45.3125 60.0625 41.71875 63.234375 
Q 38.140625 66.40625 31.78125 66.40625 
Q 25.390625 66.40625 21.84375 63.234375 
Q 18.3125 60.0625 18.3125 54.390625 
" id="BitstreamVeraSans-Roman-38"/>
      </defs>
      <g transform="translate(462.314573733 404.096875)scale(0.2 -0.2)">
       <use xlink:href="#BitstreamVeraSans-Roman-38"/>
      </g>
     </g>
    </g>
    <g id="xtick_10">
     <g id="line2d_44">
      <defs>
       <path d="M 0 0 
L 0 -2 
" id="m016791a069" style="stroke:#000000;stroke-width:0.5;"/>
      </defs>
      <g>
       <use style="stroke:#000000;stroke-width:0.5;" x="70.10902462" xlink:href="#m016791a069" y="384.9"/>
      </g>
     </g>
     <g id="line2d_45">
      <defs>
       <path d="M 0 0 
L 0 2 
" id="m4bacef0439" style="stroke:#000000;stroke-width:0.5;"/>
      </defs>
      <g>
       <use style="stroke:#000000;stroke-width:0.5;" x="70.10902462" xlink:href="#m4bacef0439" y="22.4"/>
      </g>
     </g>
    </g>
    <g id="xtick_11">
     <g id="line2d_46">
      <g>
       <use style="stroke:#000000;stroke-width:0.5;" x="85.69304924" xlink:href="#m016791a069" y="384.9"/>
      </g>
     </g>
     <g id="line2d_47">
      <g>
       <use style="stroke:#000000;stroke-width:0.5;" x="85.69304924" xlink:href="#m4bacef0439" y="22.4"/>
      </g>
     </g>
    </g>
    <g id="xtick_12">
     <g id="line2d_48">
      <g>
       <use style="stroke:#000000;stroke-width:0.5;" x="94.809119253" xlink:href="#m016791a069" y="384.9"/>
      </g>
     </g>
     <g id="line2d_49">
      <g>
       <use style="stroke:#000000;stroke-width:0.5;" x="94.809119253" xlink:href="#m4bacef0439" y="22.4"/>
      </g>
     </g>
    </g>
    <g id="xtick_13">
     <g id="line2d_50">
      <g>
       <use style="stroke:#000000;stroke-width:0.5;" x="101.27707386" xlink:href="#m016791a069" y="384.9"/>
      </g>
     </g>
     <g id="line2d_51">
      <g>
       <use style="stroke:#000000;stroke-width:0.5;" x="101.27707386" xlink:href="#m4bacef0439" y="22.4"/>
      </g>
     </g>
    </g>
    <g id="xtick_14">
     <g id="line2d_52">
      <g>
       <use style="stroke:#000000;stroke-width:0.5;" x="121.878033837" xlink:href="#m016791a069" y="384.9"/>
      </g>
     </g>
     <g id="line2d_53">
      <g>
       <use style="stroke:#000000;stroke-width:0.5;" x="121.878033837" xlink:href="#m4bacef0439" y="22.4"/>
      </g>
     </g>
    </g>
    <g id="xtick_15">
     <g id="line2d_54">
      <g>
       <use style="stroke:#000000;stroke-width:0.5;" x="137.462058457" xlink:href="#m016791a069" y="384.9"/>
      </g>
     </g>
     <g id="line2d_55">
      <g>
       <use style="stroke:#000000;stroke-width:0.5;" x="137.462058457" xlink:href="#m4bacef0439" y="22.4"/>
      </g>
     </g>
    </g>
    <g id="xtick_16">
     <g id="line2d_56">
      <g>
       <use style="stroke:#000000;stroke-width:0.5;" x="146.57812847" xlink:href="#m016791a069" y="384.9"/>
      </g>
     </g>
     <g id="line2d_57">
      <g>
       <use style="stroke:#000000;stroke-width:0.5;" x="146.57812847" xlink:href="#m4bacef0439" y="22.4"/>
      </g>
     </g>
    </g>
    <g id="xtick_17">
     <g id="line2d_58">
      <g>
       <use style="stroke:#000000;stroke-width:0.5;" x="153.046083077" xlink:href="#m016791a069" y="384.9"/>
      </g>
     </g>
     <g id="line2d_59">
      <g>
       <use style="stroke:#000000;stroke-width:0.5;" x="153.046083077" xlink:href="#m4bacef0439" y="22.4"/>
      </g>
     </g>
    </g>
    <g id="xtick_18">
     <g id="line2d_60">
      <g>
       <use style="stroke:#000000;stroke-width:0.5;" x="173.647043053" xlink:href="#m016791a069" y="384.9"/>
      </g>
     </g>
     <g id="line2d_61">
      <g>
       <use style="stroke:#000000;stroke-width:0.5;" x="173.647043053" xlink:href="#m4bacef0439" y="22.4"/>
      </g>
     </g>
    </g>
    <g id="xtick_19">
     <g id="line2d_62">
      <g>
       <use style="stroke:#000000;stroke-width:0.5;" x="189.231067673" xlink:href="#m016791a069" y="384.9"/>
      </g>
     </g>
     <g id="line2d_63">
      <g>
       <use style="stroke:#000000;stroke-width:0.5;" x="189.231067673" xlink:href="#m4bacef0439" y="22.4"/>
      </g>
     </g>
    </g>
    <g id="xtick_20">
     <g id="line2d_64">
      <g>
       <use style="stroke:#000000;stroke-width:0.5;" x="198.347137686" xlink:href="#m016791a069" y="384.9"/>
      </g>
     </g>
     <g id="line2d_65">
      <g>
       <use style="stroke:#000000;stroke-width:0.5;" x="198.347137686" xlink:href="#m4bacef0439" y="22.4"/>
      </g>
     </g>
    </g>
    <g id="xtick_21">
     <g id="line2d_66">
      <g>
       <use style="stroke:#000000;stroke-width:0.5;" x="204.815092293" xlink:href="#m016791a069" y="384.9"/>
      </g>
     </g>
     <g id="line2d_67">
      <g>
       <use style="stroke:#000000;stroke-width:0.5;" x="204.815092293" xlink:href="#m4bacef0439" y="22.4"/>
      </g>
     </g>
    </g>
    <g id="xtick_22">
     <g id="line2d_68">
      <g>
       <use style="stroke:#000000;stroke-width:0.5;" x="225.41605227" xlink:href="#m016791a069" y="384.9"/>
      </g>
     </g>
     <g id="line2d_69">
      <g>
       <use style="stroke:#000000;stroke-width:0.5;" x="225.41605227" xlink:href="#m4bacef0439" y="22.4"/>
      </g>
     </g>
    </g>
    <g id="xtick_23">
     <g id="line2d_70">
      <g>
       <use style="stroke:#000000;stroke-width:0.5;" x="241.00007689" xlink:href="#m016791a069" y="384.9"/>
      </g>
     </g>
     <g id="line2d_71">
      <g>
       <use style="stroke:#000000;stroke-width:0.5;" x="241.00007689" xlink:href="#m4bacef0439" y="22.4"/>
      </g>
     </g>
    </g>
    <g id="xtick_24">
     <g id="line2d_72">
      <g>
       <use style="stroke:#000000;stroke-width:0.5;" x="250.116146903" xlink:href="#m016791a069" y="384.9"/>
      </g>
     </g>
     <g id="line2d_73">
      <g>
       <use style="stroke:#000000;stroke-width:0.5;" x="250.116146903" xlink:href="#m4bacef0439" y="22.4"/>
      </g>
     </g>
    </g>
    <g id="xtick_25">
     <g id="line2d_74">
      <g>
       <use style="stroke:#000000;stroke-width:0.5;" x="256.58410151" xlink:href="#m016791a069" y="384.9"/>
      </g>
     </g>
     <g id="line2d_75">
      <g>
       <use style="stroke:#000000;stroke-width:0.5;" x="256.58410151" xlink:href="#m4bacef0439" y="22.4"/>
      </g>
     </g>
    </g>
    <g id="xtick_26">
     <g id="line2d_76">
      <g>
       <use style="stroke:#000000;stroke-width:0.5;" x="277.185061486" xlink:href="#m016791a069" y="384.9"/>
      </g>
     </g>
     <g id="line2d_77">
      <g>
       <use style="stroke:#000000;stroke-width:0.5;" x="277.185061486" xlink:href="#m4bacef0439" y="22.4"/>
      </g>
     </g>
    </g>
    <g id="xtick_27">
     <g id="line2d_78">
      <g>
       <use style="stroke:#000000;stroke-width:0.5;" x="292.769086106" xlink:href="#m016791a069" y="384.9"/>
      </g>
     </g>
     <g id="line2d_79">
      <g>
       <use style="stroke:#000000;stroke-width:0.5;" x="292.769086106" xlink:href="#m4bacef0439" y="22.4"/>
      </g>
     </g>
    </g>
    <g id="xtick_28">
     <g id="line2d_80">
      <g>
       <use style="stroke:#000000;stroke-width:0.5;" x="301.885156119" xlink:href="#m016791a069" y="384.9"/>
      </g>
     </g>
     <g id="line2d_81">
      <g>
       <use style="stroke:#000000;stroke-width:0.5;" x="301.885156119" xlink:href="#m4bacef0439" y="22.4"/>
      </g>
     </g>
    </g>
    <g id="xtick_29">
     <g id="line2d_82">
      <g>
       <use style="stroke:#000000;stroke-width:0.5;" x="308.353110726" xlink:href="#m016791a069" y="384.9"/>
      </g>
     </g>
     <g id="line2d_83">
      <g>
       <use style="stroke:#000000;stroke-width:0.5;" x="308.353110726" xlink:href="#m4bacef0439" y="22.4"/>
      </g>
     </g>
    </g>
    <g id="xtick_30">
     <g id="line2d_84">
      <g>
       <use style="stroke:#000000;stroke-width:0.5;" x="328.954070703" xlink:href="#m016791a069" y="384.9"/>
      </g>
     </g>
     <g id="line2d_85">
      <g>
       <use style="stroke:#000000;stroke-width:0.5;" x="328.954070703" xlink:href="#m4bacef0439" y="22.4"/>
      </g>
     </g>
    </g>
    <g id="xtick_31">
     <g id="line2d_86">
      <g>
       <use style="stroke:#000000;stroke-width:0.5;" x="344.538095323" xlink:href="#m016791a069" y="384.9"/>
      </g>
     </g>
     <g id="line2d_87">
      <g>
       <use style="stroke:#000000;stroke-width:0.5;" x="344.538095323" xlink:href="#m4bacef0439" y="22.4"/>
      </g>
     </g>
    </g>
    <g id="xtick_32">
     <g id="line2d_88">
      <g>
       <use style="stroke:#000000;stroke-width:0.5;" x="353.654165336" xlink:href="#m016791a069" y="384.9"/>
      </g>
     </g>
     <g id="line2d_89">
      <g>
       <use style="stroke:#000000;stroke-width:0.5;" x="353.654165336" xlink:href="#m4bacef0439" y="22.4"/>
      </g>
     </g>
    </g>
    <g id="xtick_33">
     <g id="line2d_90">
      <g>
       <use style="stroke:#000000;stroke-width:0.5;" x="360.122119943" xlink:href="#m016791a069" y="384.9"/>
      </g>
     </g>
     <g id="line2d_91">
      <g>
       <use style="stroke:#000000;stroke-width:0.5;" x="360.122119943" xlink:href="#m4bacef0439" y="22.4"/>
      </g>
     </g>
    </g>
    <g id="xtick_34">
     <g id="line2d_92">
      <g>
       <use style="stroke:#000000;stroke-width:0.5;" x="380.72307992" xlink:href="#m016791a069" y="384.9"/>
      </g>
     </g>
     <g id="line2d_93">
      <g>
       <use style="stroke:#000000;stroke-width:0.5;" x="380.72307992" xlink:href="#m4bacef0439" y="22.4"/>
      </g>
     </g>
    </g>
    <g id="xtick_35">
     <g id="line2d_94">
      <g>
       <use style="stroke:#000000;stroke-width:0.5;" x="396.30710454" xlink:href="#m016791a069" y="384.9"/>
      </g>
     </g>
     <g id="line2d_95">
      <g>
       <use style="stroke:#000000;stroke-width:0.5;" x="396.30710454" xlink:href="#m4bacef0439" y="22.4"/>
      </g>
     </g>
    </g>
    <g id="xtick_36">
     <g id="line2d_96">
      <g>
       <use style="stroke:#000000;stroke-width:0.5;" x="405.423174553" xlink:href="#m016791a069" y="384.9"/>
      </g>
     </g>
     <g id="line2d_97">
      <g>
       <use style="stroke:#000000;stroke-width:0.5;" x="405.423174553" xlink:href="#m4bacef0439" y="22.4"/>
      </g>
     </g>
    </g>
    <g id="xtick_37">
     <g id="line2d_98">
      <g>
       <use style="stroke:#000000;stroke-width:0.5;" x="411.89112916" xlink:href="#m016791a069" y="384.9"/>
      </g>
     </g>
     <g id="line2d_99">
      <g>
       <use style="stroke:#000000;stroke-width:0.5;" x="411.89112916" xlink:href="#m4bacef0439" y="22.4"/>
      </g>
     </g>
    </g>
    <g id="xtick_38">
     <g id="line2d_100">
      <g>
       <use style="stroke:#000000;stroke-width:0.5;" x="432.492089136" xlink:href="#m016791a069" y="384.9"/>
      </g>
     </g>
     <g id="line2d_101">
      <g>
       <use style="stroke:#000000;stroke-width:0.5;" x="432.492089136" xlink:href="#m4bacef0439" y="22.4"/>
      </g>
     </g>
    </g>
    <g id="xtick_39">
     <g id="line2d_102">
      <g>
       <use style="stroke:#000000;stroke-width:0.5;" x="448.076113756" xlink:href="#m016791a069" y="384.9"/>
      </g>
     </g>
     <g id="line2d_103">
      <g>
       <use style="stroke:#000000;stroke-width:0.5;" x="448.076113756" xlink:href="#m4bacef0439" y="22.4"/>
      </g>
     </g>
    </g>
    <g id="xtick_40">
     <g id="line2d_104">
      <g>
       <use style="stroke:#000000;stroke-width:0.5;" x="457.192183769" xlink:href="#m016791a069" y="384.9"/>
      </g>
     </g>
     <g id="line2d_105">
      <g>
       <use style="stroke:#000000;stroke-width:0.5;" x="457.192183769" xlink:href="#m4bacef0439" y="22.4"/>
      </g>
     </g>
    </g>
    <g id="xtick_41">
     <g id="line2d_106">
      <g>
       <use style="stroke:#000000;stroke-width:0.5;" x="463.660138376" xlink:href="#m016791a069" y="384.9"/>
      </g>
     </g>
     <g id="line2d_107">
      <g>
       <use style="stroke:#000000;stroke-width:0.5;" x="463.660138376" xlink:href="#m4bacef0439" y="22.4"/>
      </g>
     </g>
    </g>
    <g id="xtick_42">
     <g id="line2d_108">
      <g>
       <use style="stroke:#000000;stroke-width:0.5;" x="484.261098353" xlink:href="#m016791a069" y="384.9"/>
      </g>
     </g>
     <g id="line2d_109">
      <g>
       <use style="stroke:#000000;stroke-width:0.5;" x="484.261098353" xlink:href="#m4bacef0439" y="22.4"/>
      </g>
     </g>
    </g>
    <g id="xtick_43">
     <g id="line2d_110">
      <g>
       <use style="stroke:#000000;stroke-width:0.5;" x="499.845122973" xlink:href="#m016791a069" y="384.9"/>
      </g>
     </g>
     <g id="line2d_111">
      <g>
       <use style="stroke:#000000;stroke-width:0.5;" x="499.845122973" xlink:href="#m4bacef0439" y="22.4"/>
      </g>
     </g>
    </g>
    <g id="text_10">
     <!-- log10(# f-evals / dimension) -->
     <defs>
      <path id="BitstreamVeraSans-Roman-20"/>
      <path d="M 51.125 44 
L 36.921875 44 
L 32.8125 27.6875 
L 47.125 27.6875 
z
M 43.796875 71.78125 
L 38.71875 51.515625 
L 52.984375 51.515625 
L 58.109375 71.78125 
L 65.921875 71.78125 
L 60.890625 51.515625 
L 76.125 51.515625 
L 76.125 44 
L 58.984375 44 
L 54.984375 27.6875 
L 70.515625 27.6875 
L 70.515625 20.21875 
L 53.078125 20.21875 
L 48 0 
L 40.1875 0 
L 45.21875 20.21875 
L 30.90625 20.21875 
L 25.875 0 
L 18.015625 0 
L 23.09375 20.21875 
L 7.71875 20.21875 
L 7.71875 27.6875 
L 24.90625 27.6875 
L 29 44 
L 13.28125 44 
L 13.28125 51.515625 
L 30.90625 51.515625 
L 35.890625 71.78125 
z
" id="BitstreamVeraSans-Roman-23"/>
      <path d="M 52 44.1875 
Q 55.375 50.25 60.0625 53.125 
Q 64.75 56 71.09375 56 
Q 79.640625 56 84.28125 50.015625 
Q 88.921875 44.046875 88.921875 33.015625 
L 88.921875 0 
L 79.890625 0 
L 79.890625 32.71875 
Q 79.890625 40.578125 77.09375 44.375 
Q 74.3125 48.1875 68.609375 48.1875 
Q 61.625 48.1875 57.5625 43.546875 
Q 53.515625 38.921875 53.515625 30.90625 
L 53.515625 0 
L 44.484375 0 
L 44.484375 32.71875 
Q 44.484375 40.625 41.703125 44.40625 
Q 38.921875 48.1875 33.109375 48.1875 
Q 26.21875 48.1875 22.15625 43.53125 
Q 18.109375 38.875 18.109375 30.90625 
L 18.109375 0 
L 9.078125 0 
L 9.078125 54.6875 
L 18.109375 54.6875 
L 18.109375 46.1875 
Q 21.1875 51.21875 25.484375 53.609375 
Q 29.78125 56 35.6875 56 
Q 41.65625 56 45.828125 52.96875 
Q 50 49.953125 52 44.1875 
" id="BitstreamVeraSans-Roman-6d"/>
      <path d="M 54.890625 33.015625 
L 54.890625 0 
L 45.90625 0 
L 45.90625 32.71875 
Q 45.90625 40.484375 42.875 44.328125 
Q 39.84375 48.1875 33.796875 48.1875 
Q 26.515625 48.1875 22.3125 43.546875 
Q 18.109375 38.921875 18.109375 30.90625 
L 18.109375 0 
L 9.078125 0 
L 9.078125 54.6875 
L 18.109375 54.6875 
L 18.109375 46.1875 
Q 21.34375 51.125 25.703125 53.5625 
Q 30.078125 56 35.796875 56 
Q 45.21875 56 50.046875 50.171875 
Q 54.890625 44.34375 54.890625 33.015625 
" id="BitstreamVeraSans-Roman-6e"/>
      <path d="M 31 75.875 
Q 24.46875 64.65625 21.28125 53.65625 
Q 18.109375 42.671875 18.109375 31.390625 
Q 18.109375 20.125 21.3125 9.0625 
Q 24.515625 -2 31 -13.1875 
L 23.1875 -13.1875 
Q 15.875 -1.703125 12.234375 9.375 
Q 8.59375 20.453125 8.59375 31.390625 
Q 8.59375 42.28125 12.203125 53.3125 
Q 15.828125 64.359375 23.1875 75.875 
z
" id="BitstreamVeraSans-Roman-28"/>
      <path d="M 30.609375 48.390625 
Q 23.390625 48.390625 19.1875 42.75 
Q 14.984375 37.109375 14.984375 27.296875 
Q 14.984375 17.484375 19.15625 11.84375 
Q 23.34375 6.203125 30.609375 6.203125 
Q 37.796875 6.203125 41.984375 11.859375 
Q 46.1875 17.53125 46.1875 27.296875 
Q 46.1875 37.015625 41.984375 42.703125 
Q 37.796875 48.390625 30.609375 48.390625 
M 30.609375 56 
Q 42.328125 56 49.015625 48.375 
Q 55.71875 40.765625 55.71875 27.296875 
Q 55.71875 13.875 49.015625 6.21875 
Q 42.328125 -1.421875 30.609375 -1.421875 
Q 18.84375 -1.421875 12.171875 6.21875 
Q 5.515625 13.875 5.515625 27.296875 
Q 5.515625 40.765625 12.171875 48.375 
Q 18.84375 56 30.609375 56 
" id="BitstreamVeraSans-Roman-6f"/>
      <path d="M 9.421875 75.984375 
L 18.40625 75.984375 
L 18.40625 0 
L 9.421875 0 
z
" id="BitstreamVeraSans-Roman-6c"/>
      <path d="M 2.984375 54.6875 
L 12.5 54.6875 
L 29.59375 8.796875 
L 46.6875 54.6875 
L 56.203125 54.6875 
L 35.6875 0 
L 23.484375 0 
z
" id="BitstreamVeraSans-Roman-76"/>
      <path d="M 9.421875 54.6875 
L 18.40625 54.6875 
L 18.40625 0 
L 9.421875 0 
z
M 9.421875 75.984375 
L 18.40625 75.984375 
L 18.40625 64.59375 
L 9.421875 64.59375 
z
" id="BitstreamVeraSans-Roman-69"/>
      <path d="M 4.890625 31.390625 
L 31.203125 31.390625 
L 31.203125 23.390625 
L 4.890625 23.390625 
z
" id="BitstreamVeraSans-Roman-2d"/>
      <path d="M 25.390625 72.90625 
L 33.6875 72.90625 
L 8.296875 -9.28125 
L 0 -9.28125 
z
" id="BitstreamVeraSans-Roman-2f"/>
      <path d="M 56.203125 29.59375 
L 56.203125 25.203125 
L 14.890625 25.203125 
Q 15.484375 15.921875 20.484375 11.0625 
Q 25.484375 6.203125 34.421875 6.203125 
Q 39.59375 6.203125 44.453125 7.46875 
Q 49.3125 8.734375 54.109375 11.28125 
L 54.109375 2.78125 
Q 49.265625 0.734375 44.1875 -0.34375 
Q 39.109375 -1.421875 33.890625 -1.421875 
Q 20.796875 -1.421875 13.15625 6.1875 
Q 5.515625 13.8125 5.515625 26.8125 
Q 5.515625 40.234375 12.765625 48.109375 
Q 20.015625 56 32.328125 56 
Q 43.359375 56 49.78125 48.890625 
Q 56.203125 41.796875 56.203125 29.59375 
M 47.21875 32.234375 
Q 47.125 39.59375 43.09375 43.984375 
Q 39.0625 48.390625 32.421875 48.390625 
Q 24.90625 48.390625 20.390625 44.140625 
Q 15.875 39.890625 15.1875 32.171875 
z
" id="BitstreamVeraSans-Roman-65"/>
      <path d="M 45.40625 46.390625 
L 45.40625 75.984375 
L 54.390625 75.984375 
L 54.390625 0 
L 45.40625 0 
L 45.40625 8.203125 
Q 42.578125 3.328125 38.25 0.953125 
Q 33.9375 -1.421875 27.875 -1.421875 
Q 17.96875 -1.421875 11.734375 6.484375 
Q 5.515625 14.40625 5.515625 27.296875 
Q 5.515625 40.1875 11.734375 48.09375 
Q 17.96875 56 27.875 56 
Q 33.9375 56 38.25 53.625 
Q 42.578125 51.265625 45.40625 46.390625 
M 14.796875 27.296875 
Q 14.796875 17.390625 18.875 11.75 
Q 22.953125 6.109375 30.078125 6.109375 
Q 37.203125 6.109375 41.296875 11.75 
Q 45.40625 17.390625 45.40625 27.296875 
Q 45.40625 37.203125 41.296875 42.84375 
Q 37.203125 48.484375 30.078125 48.484375 
Q 22.953125 48.484375 18.875 42.84375 
Q 14.796875 37.203125 14.796875 27.296875 
" id="BitstreamVeraSans-Roman-64"/>
      <path d="M 45.40625 27.984375 
Q 45.40625 37.75 41.375 43.109375 
Q 37.359375 48.484375 30.078125 48.484375 
Q 22.859375 48.484375 18.828125 43.109375 
Q 14.796875 37.75 14.796875 27.984375 
Q 14.796875 18.265625 18.828125 12.890625 
Q 22.859375 7.515625 30.078125 7.515625 
Q 37.359375 7.515625 41.375 12.890625 
Q 45.40625 18.265625 45.40625 27.984375 
M 54.390625 6.78125 
Q 54.390625 -7.171875 48.1875 -13.984375 
Q 42 -20.796875 29.203125 -20.796875 
Q 24.46875 -20.796875 20.265625 -20.09375 
Q 16.0625 -19.390625 12.109375 -17.921875 
L 12.109375 -9.1875 
Q 16.0625 -11.328125 19.921875 -12.34375 
Q 23.78125 -13.375 27.78125 -13.375 
Q 36.625 -13.375 41.015625 -8.765625 
Q 45.40625 -4.15625 45.40625 5.171875 
L 45.40625 9.625 
Q 42.625 4.78125 38.28125 2.390625 
Q 33.9375 0 27.875 0 
Q 17.828125 0 11.671875 7.65625 
Q 5.515625 15.328125 5.515625 27.984375 
Q 5.515625 40.671875 11.671875 48.328125 
Q 17.828125 56 27.875 56 
Q 33.9375 56 38.28125 53.609375 
Q 42.625 51.21875 45.40625 46.390625 
L 45.40625 54.6875 
L 54.390625 54.6875 
z
" id="BitstreamVeraSans-Roman-67"/>
      <path d="M 37.109375 75.984375 
L 37.109375 68.5 
L 28.515625 68.5 
Q 23.6875 68.5 21.796875 66.546875 
Q 19.921875 64.59375 19.921875 59.515625 
L 19.921875 54.6875 
L 34.71875 54.6875 
L 34.71875 47.703125 
L 19.921875 47.703125 
L 19.921875 0 
L 10.890625 0 
L 10.890625 47.703125 
L 2.296875 47.703125 
L 2.296875 54.6875 
L 10.890625 54.6875 
L 10.890625 58.5 
Q 10.890625 67.625 15.140625 71.796875 
Q 19.390625 75.984375 28.609375 75.984375 
z
" id="BitstreamVeraSans-Roman-66"/>
      <path d="M 34.28125 27.484375 
Q 23.390625 27.484375 19.1875 25 
Q 14.984375 22.515625 14.984375 16.5 
Q 14.984375 11.71875 18.140625 8.90625 
Q 21.296875 6.109375 26.703125 6.109375 
Q 34.1875 6.109375 38.703125 11.40625 
Q 43.21875 16.703125 43.21875 25.484375 
L 43.21875 27.484375 
z
M 52.203125 31.203125 
L 52.203125 0 
L 43.21875 0 
L 43.21875 8.296875 
Q 40.140625 3.328125 35.546875 0.953125 
Q 30.953125 -1.421875 24.3125 -1.421875 
Q 15.921875 -1.421875 10.953125 3.296875 
Q 6 8.015625 6 15.921875 
Q 6 25.140625 12.171875 29.828125 
Q 18.359375 34.515625 30.609375 34.515625 
L 43.21875 34.515625 
L 43.21875 35.40625 
Q 43.21875 41.609375 39.140625 45 
Q 35.0625 48.390625 27.6875 48.390625 
Q 23 48.390625 18.546875 47.265625 
Q 14.109375 46.140625 10.015625 43.890625 
L 10.015625 52.203125 
Q 14.9375 54.109375 19.578125 55.046875 
Q 24.21875 56 28.609375 56 
Q 40.484375 56 46.34375 49.84375 
Q 52.203125 43.703125 52.203125 31.203125 
" id="BitstreamVeraSans-Roman-61"/>
      <path d="M 44.28125 53.078125 
L 44.28125 44.578125 
Q 40.484375 46.53125 36.375 47.5 
Q 32.28125 48.484375 27.875 48.484375 
Q 21.1875 48.484375 17.84375 46.4375 
Q 14.5 44.390625 14.5 40.28125 
Q 14.5 37.15625 16.890625 35.375 
Q 19.28125 33.59375 26.515625 31.984375 
L 29.59375 31.296875 
Q 39.15625 29.25 43.1875 25.515625 
Q 47.21875 21.78125 47.21875 15.09375 
Q 47.21875 7.46875 41.1875 3.015625 
Q 35.15625 -1.421875 24.609375 -1.421875 
Q 20.21875 -1.421875 15.453125 -0.5625 
Q 10.6875 0.296875 5.421875 2 
L 5.421875 11.28125 
Q 10.40625 8.6875 15.234375 7.390625 
Q 20.0625 6.109375 24.8125 6.109375 
Q 31.15625 6.109375 34.5625 8.28125 
Q 37.984375 10.453125 37.984375 14.40625 
Q 37.984375 18.0625 35.515625 20.015625 
Q 33.0625 21.96875 24.703125 23.78125 
L 21.578125 24.515625 
Q 13.234375 26.265625 9.515625 29.90625 
Q 5.8125 33.546875 5.8125 39.890625 
Q 5.8125 47.609375 11.28125 51.796875 
Q 16.75 56 26.8125 56 
Q 31.78125 56 36.171875 55.265625 
Q 40.578125 54.546875 44.28125 53.078125 
" id="BitstreamVeraSans-Roman-73"/>
      <path d="M 8.015625 75.875 
L 15.828125 75.875 
Q 23.140625 64.359375 26.78125 53.3125 
Q 30.421875 42.28125 30.421875 31.390625 
Q 30.421875 20.453125 26.78125 9.375 
Q 23.140625 -1.703125 15.828125 -13.1875 
L 8.015625 -13.1875 
Q 14.5 -2 17.703125 9.0625 
Q 20.90625 20.125 20.90625 31.390625 
Q 20.90625 42.671875 17.703125 53.65625 
Q 14.5 64.65625 8.015625 75.875 
" id="BitstreamVeraSans-Roman-29"/>
     </defs>
     <g transform="translate(158.36171875 426.17359375)scale(0.17 -0.17)">
      <use xlink:href="#BitstreamVeraSans-Roman-6c"/>
      <use x="27.783203125" xlink:href="#BitstreamVeraSans-Roman-6f"/>
      <use x="88.96484375" xlink:href="#BitstreamVeraSans-Roman-67"/>
      <use x="152.44140625" xlink:href="#BitstreamVeraSans-Roman-31"/>
      <use x="216.064453125" xlink:href="#BitstreamVeraSans-Roman-30"/>
      <use x="279.6875" xlink:href="#BitstreamVeraSans-Roman-28"/>
      <use x="318.701171875" xlink:href="#BitstreamVeraSans-Roman-23"/>
      <use x="402.490234375" xlink:href="#BitstreamVeraSans-Roman-20"/>
      <use x="434.27734375" xlink:href="#BitstreamVeraSans-Roman-66"/>
      <use x="469.404296875" xlink:href="#BitstreamVeraSans-Roman-2d"/>
      <use x="505.48828125" xlink:href="#BitstreamVeraSans-Roman-65"/>
      <use x="567.01171875" xlink:href="#BitstreamVeraSans-Roman-76"/>
      <use x="626.19140625" xlink:href="#BitstreamVeraSans-Roman-61"/>
      <use x="687.470703125" xlink:href="#BitstreamVeraSans-Roman-6c"/>
      <use x="715.25390625" xlink:href="#BitstreamVeraSans-Roman-73"/>
      <use x="767.353515625" xlink:href="#BitstreamVeraSans-Roman-20"/>
      <use x="799.140625" xlink:href="#BitstreamVeraSans-Roman-2f"/>
      <use x="832.83203125" xlink:href="#BitstreamVeraSans-Roman-20"/>
      <use x="864.619140625" xlink:href="#BitstreamVeraSans-Roman-64"/>
      <use x="928.095703125" xlink:href="#BitstreamVeraSans-Roman-69"/>
      <use x="955.87890625" xlink:href="#BitstreamVeraSans-Roman-6d"/>
      <use x="1053.29101562" xlink:href="#BitstreamVeraSans-Roman-65"/>
      <use x="1114.81445312" xlink:href="#BitstreamVeraSans-Roman-6e"/>
      <use x="1178.19335938" xlink:href="#BitstreamVeraSans-Roman-73"/>
      <use x="1230.29296875" xlink:href="#BitstreamVeraSans-Roman-69"/>
      <use x="1258.07617188" xlink:href="#BitstreamVeraSans-Roman-6f"/>
      <use x="1319.2578125" xlink:href="#BitstreamVeraSans-Roman-6e"/>
      <use x="1382.63671875" xlink:href="#BitstreamVeraSans-Roman-29"/>
     </g>
    </g>
   </g>
   <g id="matplotlib.axis_2">
    <g id="ytick_1">
     <g id="line2d_112">
      <path clip-path="url(#p62c88ed98c)" d="M 54.525 384.9 
L 503.88 384.9 
" style="fill:none;stroke:#000000;stroke-dasharray:1.000000,3.000000;stroke-dashoffset:0.0;stroke-width:0.5;"/>
     </g>
     <g id="line2d_113">
      <defs>
       <path d="M 0 0 
L 4 0 
" id="m4727d8d196" style="stroke:#000000;stroke-width:0.5;"/>
      </defs>
      <g>
       <use style="stroke:#000000;stroke-width:0.5;" x="54.525" xlink:href="#m4727d8d196" y="384.9"/>
      </g>
     </g>
     <g id="line2d_114">
      <defs>
       <path d="M 0 0 
L -4 0 
" id="m992b7b0067" style="stroke:#000000;stroke-width:0.5;"/>
      </defs>
      <g>
       <use style="stroke:#000000;stroke-width:0.5;" x="503.88" xlink:href="#m992b7b0067" y="384.9"/>
      </g>
     </g>
     <g id="text_11">
      <!-- 0.0 -->
      <defs>
       <path d="M 10.6875 12.40625 
L 21 12.40625 
L 21 0 
L 10.6875 0 
z
" id="BitstreamVeraSans-Roman-2e"/>
      </defs>
      <g transform="translate(25.08 389.315)scale(0.16 -0.16)">
       <use xlink:href="#BitstreamVeraSans-Roman-30"/>
       <use x="63.623046875" xlink:href="#BitstreamVeraSans-Roman-2e"/>
       <use x="95.41015625" xlink:href="#BitstreamVeraSans-Roman-30"/>
      </g>
     </g>
    </g>
    <g id="ytick_2">
     <g id="line2d_115">
      <path clip-path="url(#p62c88ed98c)" d="M 54.525 313.117822 
L 503.88 313.117822 
" style="fill:none;stroke:#000000;stroke-dasharray:1.000000,3.000000;stroke-dashoffset:0.0;stroke-width:0.5;"/>
     </g>
     <g id="line2d_116">
      <g>
       <use style="stroke:#000000;stroke-width:0.5;" x="54.525" xlink:href="#m4727d8d196" y="313.117821782"/>
      </g>
     </g>
     <g id="line2d_117">
      <g>
       <use style="stroke:#000000;stroke-width:0.5;" x="503.88" xlink:href="#m992b7b0067" y="313.117821782"/>
      </g>
     </g>
     <g id="text_12">
      <!-- 0.2 -->
      <g transform="translate(25.08 317.532821782)scale(0.16 -0.16)">
       <use xlink:href="#BitstreamVeraSans-Roman-30"/>
       <use x="63.623046875" xlink:href="#BitstreamVeraSans-Roman-2e"/>
       <use x="95.41015625" xlink:href="#BitstreamVeraSans-Roman-32"/>
      </g>
     </g>
    </g>
    <g id="ytick_3">
     <g id="line2d_118">
      <path clip-path="url(#p62c88ed98c)" d="M 54.525 241.335644 
L 503.88 241.335644 
" style="fill:none;stroke:#000000;stroke-dasharray:1.000000,3.000000;stroke-dashoffset:0.0;stroke-width:0.5;"/>
     </g>
     <g id="line2d_119">
      <g>
       <use style="stroke:#000000;stroke-width:0.5;" x="54.525" xlink:href="#m4727d8d196" y="241.335643564"/>
      </g>
     </g>
     <g id="line2d_120">
      <g>
       <use style="stroke:#000000;stroke-width:0.5;" x="503.88" xlink:href="#m992b7b0067" y="241.335643564"/>
      </g>
     </g>
     <g id="text_13">
      <!-- 0.4 -->
      <g transform="translate(25.08 245.750643564)scale(0.16 -0.16)">
       <use xlink:href="#BitstreamVeraSans-Roman-30"/>
       <use x="63.623046875" xlink:href="#BitstreamVeraSans-Roman-2e"/>
       <use x="95.41015625" xlink:href="#BitstreamVeraSans-Roman-34"/>
      </g>
     </g>
    </g>
    <g id="ytick_4">
     <g id="line2d_121">
      <path clip-path="url(#p62c88ed98c)" d="M 54.525 169.553465 
L 503.88 169.553465 
" style="fill:none;stroke:#000000;stroke-dasharray:1.000000,3.000000;stroke-dashoffset:0.0;stroke-width:0.5;"/>
     </g>
     <g id="line2d_122">
      <g>
       <use style="stroke:#000000;stroke-width:0.5;" x="54.525" xlink:href="#m4727d8d196" y="169.553465347"/>
      </g>
     </g>
     <g id="line2d_123">
      <g>
       <use style="stroke:#000000;stroke-width:0.5;" x="503.88" xlink:href="#m992b7b0067" y="169.553465347"/>
      </g>
     </g>
     <g id="text_14">
      <!-- 0.6 -->
      <g transform="translate(25.08 173.968465347)scale(0.16 -0.16)">
       <use xlink:href="#BitstreamVeraSans-Roman-30"/>
       <use x="63.623046875" xlink:href="#BitstreamVeraSans-Roman-2e"/>
       <use x="95.41015625" xlink:href="#BitstreamVeraSans-Roman-36"/>
      </g>
     </g>
    </g>
    <g id="ytick_5">
     <g id="line2d_124">
      <path clip-path="url(#p62c88ed98c)" d="M 54.525 97.771287 
L 503.88 97.771287 
" style="fill:none;stroke:#000000;stroke-dasharray:1.000000,3.000000;stroke-dashoffset:0.0;stroke-width:0.5;"/>
     </g>
     <g id="line2d_125">
      <g>
       <use style="stroke:#000000;stroke-width:0.5;" x="54.525" xlink:href="#m4727d8d196" y="97.7712871287"/>
      </g>
     </g>
     <g id="line2d_126">
      <g>
       <use style="stroke:#000000;stroke-width:0.5;" x="503.88" xlink:href="#m992b7b0067" y="97.7712871287"/>
      </g>
     </g>
     <g id="text_15">
      <!-- 0.8 -->
      <g transform="translate(25.08 102.186287129)scale(0.16 -0.16)">
       <use xlink:href="#BitstreamVeraSans-Roman-30"/>
       <use x="63.623046875" xlink:href="#BitstreamVeraSans-Roman-2e"/>
       <use x="95.41015625" xlink:href="#BitstreamVeraSans-Roman-38"/>
      </g>
     </g>
    </g>
    <g id="ytick_6">
     <g id="line2d_127">
      <path clip-path="url(#p62c88ed98c)" d="M 54.525 25.989109 
L 503.88 25.989109 
" style="fill:none;stroke:#000000;stroke-dasharray:1.000000,3.000000;stroke-dashoffset:0.0;stroke-width:0.5;"/>
     </g>
     <g id="line2d_128">
      <g>
       <use style="stroke:#000000;stroke-width:0.5;" x="54.525" xlink:href="#m4727d8d196" y="25.9891089109"/>
      </g>
     </g>
     <g id="line2d_129">
      <g>
       <use style="stroke:#000000;stroke-width:0.5;" x="503.88" xlink:href="#m992b7b0067" y="25.9891089109"/>
      </g>
     </g>
     <g id="text_16">
      <!-- 1.0 -->
      <g transform="translate(25.08 30.4041089109)scale(0.16 -0.16)">
       <use xlink:href="#BitstreamVeraSans-Roman-31"/>
       <use x="63.623046875" xlink:href="#BitstreamVeraSans-Roman-2e"/>
       <use x="95.41015625" xlink:href="#BitstreamVeraSans-Roman-30"/>
      </g>
     </g>
    </g>
    <g id="text_17">
     <!-- Fraction of function,target pairs -->
     <defs>
      <path d="M 9.8125 72.90625 
L 51.703125 72.90625 
L 51.703125 64.59375 
L 19.671875 64.59375 
L 19.671875 43.109375 
L 48.578125 43.109375 
L 48.578125 34.8125 
L 19.671875 34.8125 
L 19.671875 0 
L 9.8125 0 
z
" id="BitstreamVeraSans-Roman-46"/>
      <path d="M 11.71875 12.40625 
L 22.015625 12.40625 
L 22.015625 4 
L 14.015625 -11.625 
L 7.71875 -11.625 
L 11.71875 4 
z
" id="BitstreamVeraSans-Roman-2c"/>
      <path d="M 18.109375 8.203125 
L 18.109375 -20.796875 
L 9.078125 -20.796875 
L 9.078125 54.6875 
L 18.109375 54.6875 
L 18.109375 46.390625 
Q 20.953125 51.265625 25.265625 53.625 
Q 29.59375 56 35.59375 56 
Q 45.5625 56 51.78125 48.09375 
Q 58.015625 40.1875 58.015625 27.296875 
Q 58.015625 14.40625 51.78125 6.484375 
Q 45.5625 -1.421875 35.59375 -1.421875 
Q 29.59375 -1.421875 25.265625 0.953125 
Q 20.953125 3.328125 18.109375 8.203125 
M 48.6875 27.296875 
Q 48.6875 37.203125 44.609375 42.84375 
Q 40.53125 48.484375 33.40625 48.484375 
Q 26.265625 48.484375 22.1875 42.84375 
Q 18.109375 37.203125 18.109375 27.296875 
Q 18.109375 17.390625 22.1875 11.75 
Q 26.265625 6.109375 33.40625 6.109375 
Q 40.53125 6.109375 44.609375 11.75 
Q 48.6875 17.390625 48.6875 27.296875 
" id="BitstreamVeraSans-Roman-70"/>
      <path d="M 18.3125 70.21875 
L 18.3125 54.6875 
L 36.8125 54.6875 
L 36.8125 47.703125 
L 18.3125 47.703125 
L 18.3125 18.015625 
Q 18.3125 11.328125 20.140625 9.421875 
Q 21.96875 7.515625 27.59375 7.515625 
L 36.8125 7.515625 
L 36.8125 0 
L 27.59375 0 
Q 17.1875 0 13.234375 3.875 
Q 9.28125 7.765625 9.28125 18.015625 
L 9.28125 47.703125 
L 2.6875 47.703125 
L 2.6875 54.6875 
L 9.28125 54.6875 
L 9.28125 70.21875 
z
" id="BitstreamVeraSans-Roman-74"/>
      <path d="M 8.5 21.578125 
L 8.5 54.6875 
L 17.484375 54.6875 
L 17.484375 21.921875 
Q 17.484375 14.15625 20.5 10.265625 
Q 23.53125 6.390625 29.59375 6.390625 
Q 36.859375 6.390625 41.078125 11.03125 
Q 45.3125 15.671875 45.3125 23.6875 
L 45.3125 54.6875 
L 54.296875 54.6875 
L 54.296875 0 
L 45.3125 0 
L 45.3125 8.40625 
Q 42.046875 3.421875 37.71875 1 
Q 33.40625 -1.421875 27.6875 -1.421875 
Q 18.265625 -1.421875 13.375 4.4375 
Q 8.5 10.296875 8.5 21.578125 
" id="BitstreamVeraSans-Roman-75"/>
      <path d="M 41.109375 46.296875 
Q 39.59375 47.171875 37.8125 47.578125 
Q 36.03125 48 33.890625 48 
Q 26.265625 48 22.1875 43.046875 
Q 18.109375 38.09375 18.109375 28.8125 
L 18.109375 0 
L 9.078125 0 
L 9.078125 54.6875 
L 18.109375 54.6875 
L 18.109375 46.1875 
Q 20.953125 51.171875 25.484375 53.578125 
Q 30.03125 56 36.53125 56 
Q 37.453125 56 38.578125 55.875 
Q 39.703125 55.765625 41.0625 55.515625 
z
" id="BitstreamVeraSans-Roman-72"/>
      <path d="M 48.78125 52.59375 
L 48.78125 44.1875 
Q 44.96875 46.296875 41.140625 47.34375 
Q 37.3125 48.390625 33.40625 48.390625 
Q 24.65625 48.390625 19.8125 42.84375 
Q 14.984375 37.3125 14.984375 27.296875 
Q 14.984375 17.28125 19.8125 11.734375 
Q 24.65625 6.203125 33.40625 6.203125 
Q 37.3125 6.203125 41.140625 7.25 
Q 44.96875 8.296875 48.78125 10.40625 
L 48.78125 2.09375 
Q 45.015625 0.34375 40.984375 -0.53125 
Q 36.96875 -1.421875 32.421875 -1.421875 
Q 20.0625 -1.421875 12.78125 6.34375 
Q 5.515625 14.109375 5.515625 27.296875 
Q 5.515625 40.671875 12.859375 48.328125 
Q 20.21875 56 33.015625 56 
Q 37.15625 56 41.109375 55.140625 
Q 45.0625 54.296875 48.78125 52.59375 
" id="BitstreamVeraSans-Roman-63"/>
     </defs>
     <g transform="translate(16.54453125 338.789375)rotate(-90.0)scale(0.17 -0.17)">
      <use xlink:href="#BitstreamVeraSans-Roman-46"/>
      <use x="57.41015625" xlink:href="#BitstreamVeraSans-Roman-72"/>
      <use x="98.5234375" xlink:href="#BitstreamVeraSans-Roman-61"/>
      <use x="159.802734375" xlink:href="#BitstreamVeraSans-Roman-63"/>
      <use x="214.783203125" xlink:href="#BitstreamVeraSans-Roman-74"/>
      <use x="253.9921875" xlink:href="#BitstreamVeraSans-Roman-69"/>
      <use x="281.775390625" xlink:href="#BitstreamVeraSans-Roman-6f"/>
      <use x="342.95703125" xlink:href="#BitstreamVeraSans-Roman-6e"/>
      <use x="406.3359375" xlink:href="#BitstreamVeraSans-Roman-20"/>
      <use x="438.123046875" xlink:href="#BitstreamVeraSans-Roman-6f"/>
      <use x="499.3046875" xlink:href="#BitstreamVeraSans-Roman-66"/>
      <use x="534.509765625" xlink:href="#BitstreamVeraSans-Roman-20"/>
      <use x="566.296875" xlink:href="#BitstreamVeraSans-Roman-66"/>
      <use x="601.501953125" xlink:href="#BitstreamVeraSans-Roman-75"/>
      <use x="664.880859375" xlink:href="#BitstreamVeraSans-Roman-6e"/>
      <use x="728.259765625" xlink:href="#BitstreamVeraSans-Roman-63"/>
      <use x="783.240234375" xlink:href="#BitstreamVeraSans-Roman-74"/>
      <use x="822.44921875" xlink:href="#BitstreamVeraSans-Roman-69"/>
      <use x="850.232421875" xlink:href="#BitstreamVeraSans-Roman-6f"/>
      <use x="911.4140625" xlink:href="#BitstreamVeraSans-Roman-6e"/>
      <use x="974.79296875" xlink:href="#BitstreamVeraSans-Roman-2c"/>
      <use x="1006.58007812" xlink:href="#BitstreamVeraSans-Roman-74"/>
      <use x="1045.7890625" xlink:href="#BitstreamVeraSans-Roman-61"/>
      <use x="1107.06835938" xlink:href="#BitstreamVeraSans-Roman-72"/>
      <use x="1148.16601562" xlink:href="#BitstreamVeraSans-Roman-67"/>
      <use x="1211.64257812" xlink:href="#BitstreamVeraSans-Roman-65"/>
      <use x="1273.16601562" xlink:href="#BitstreamVeraSans-Roman-74"/>
      <use x="1312.375" xlink:href="#BitstreamVeraSans-Roman-20"/>
      <use x="1344.16210938" xlink:href="#BitstreamVeraSans-Roman-70"/>
      <use x="1407.63867188" xlink:href="#BitstreamVeraSans-Roman-61"/>
      <use x="1468.91796875" xlink:href="#BitstreamVeraSans-Roman-69"/>
      <use x="1496.70117188" xlink:href="#BitstreamVeraSans-Roman-72"/>
      <use x="1537.81445312" xlink:href="#BitstreamVeraSans-Roman-73"/>
     </g>
    </g>
   </g>
   <g id="text_18">
    <!-- AdapSS3 -->
    <defs>
     <path d="M 53.515625 70.515625 
L 53.515625 60.890625 
Q 47.90625 63.578125 42.921875 64.890625 
Q 37.9375 66.21875 33.296875 66.21875 
Q 25.25 66.21875 20.875 63.09375 
Q 16.5 59.96875 16.5 54.203125 
Q 16.5 49.359375 19.40625 46.890625 
Q 22.3125 44.4375 30.421875 42.921875 
L 36.375 41.703125 
Q 47.40625 39.59375 52.65625 34.296875 
Q 57.90625 29 57.90625 20.125 
Q 57.90625 9.515625 50.796875 4.046875 
Q 43.703125 -1.421875 29.984375 -1.421875 
Q 24.8125 -1.421875 18.96875 -0.25 
Q 13.140625 0.921875 6.890625 3.21875 
L 6.890625 13.375 
Q 12.890625 10.015625 18.65625 8.296875 
Q 24.421875 6.59375 29.984375 6.59375 
Q 38.421875 6.59375 43.015625 9.90625 
Q 47.609375 13.234375 47.609375 19.390625 
Q 47.609375 24.75 44.3125 27.78125 
Q 41.015625 30.8125 33.5 32.328125 
L 27.484375 33.5 
Q 16.453125 35.6875 11.515625 40.375 
Q 6.59375 45.0625 6.59375 53.421875 
Q 6.59375 63.09375 13.40625 68.65625 
Q 20.21875 74.21875 32.171875 74.21875 
Q 37.3125 74.21875 42.625 73.28125 
Q 47.953125 72.359375 53.515625 70.515625 
" id="BitstreamVeraSans-Roman-53"/>
     <path d="M 34.1875 63.1875 
L 20.796875 26.90625 
L 47.609375 26.90625 
z
M 28.609375 72.90625 
L 39.796875 72.90625 
L 67.578125 0 
L 57.328125 0 
L 50.6875 18.703125 
L 17.828125 18.703125 
L 11.1875 0 
L 0.78125 0 
z
" id="BitstreamVeraSans-Roman-41"/>
    </defs>
    <g transform="translate(464.017862903 382.412719678)scale(0.17 -0.17)">
     <use xlink:href="#BitstreamVeraSans-Roman-41"/>
     <use x="68.392578125" xlink:href="#BitstreamVeraSans-Roman-64"/>
     <use x="131.869140625" xlink:href="#BitstreamVeraSans-Roman-61"/>
     <use x="193.1484375" xlink:href="#BitstreamVeraSans-Roman-70"/>
     <use x="256.625" xlink:href="#BitstreamVeraSans-Roman-53"/>
     <use x="320.1015625" xlink:href="#BitstreamVeraSans-Roman-53"/>
     <use x="383.578125" xlink:href="#BitstreamVeraSans-Roman-33"/>
    </g>
   </g>
   <g id="text_19">
    <!-- F-AUC3 -->
    <defs>
     <path d="M 64.40625 67.28125 
L 64.40625 56.890625 
Q 59.421875 61.53125 53.78125 63.8125 
Q 48.140625 66.109375 41.796875 66.109375 
Q 29.296875 66.109375 22.65625 58.46875 
Q 16.015625 50.828125 16.015625 36.375 
Q 16.015625 21.96875 22.65625 14.328125 
Q 29.296875 6.6875 41.796875 6.6875 
Q 48.140625 6.6875 53.78125 8.984375 
Q 59.421875 11.28125 64.40625 15.921875 
L 64.40625 5.609375 
Q 59.234375 2.09375 53.4375 0.328125 
Q 47.65625 -1.421875 41.21875 -1.421875 
Q 24.65625 -1.421875 15.125 8.703125 
Q 5.609375 18.84375 5.609375 36.375 
Q 5.609375 53.953125 15.125 64.078125 
Q 24.65625 74.21875 41.21875 74.21875 
Q 47.75 74.21875 53.53125 72.484375 
Q 59.328125 70.75 64.40625 67.28125 
" id="BitstreamVeraSans-Roman-43"/>
     <path d="M 8.6875 72.90625 
L 18.609375 72.90625 
L 18.609375 28.609375 
Q 18.609375 16.890625 22.84375 11.734375 
Q 27.09375 6.59375 36.625 6.59375 
Q 46.09375 6.59375 50.34375 11.734375 
Q 54.59375 16.890625 54.59375 28.609375 
L 54.59375 72.90625 
L 64.5 72.90625 
L 64.5 27.390625 
Q 64.5 13.140625 57.4375 5.859375 
Q 50.390625 -1.421875 36.625 -1.421875 
Q 22.796875 -1.421875 15.734375 5.859375 
Q 8.6875 13.140625 8.6875 27.390625 
z
" id="BitstreamVeraSans-Roman-55"/>
    </defs>
    <g transform="translate(464.017862903 210.135491955)scale(0.17 -0.17)">
     <use xlink:href="#BitstreamVeraSans-Roman-46"/>
     <use x="57.51953125" xlink:href="#BitstreamVeraSans-Roman-2d"/>
     <use x="93.572265625" xlink:href="#BitstreamVeraSans-Roman-41"/>
     <use x="161.98046875" xlink:href="#BitstreamVeraSans-Roman-55"/>
     <use x="235.173828125" xlink:href="#BitstreamVeraSans-Roman-43"/>
     <use x="304.998046875" xlink:href="#BitstreamVeraSans-Roman-33"/>
    </g>
   </g>
   <g id="text_20">
    <!-- best 2009 -->
    <defs>
     <path d="M 10.984375 1.515625 
L 10.984375 10.5 
Q 14.703125 8.734375 18.5 7.8125 
Q 22.3125 6.890625 25.984375 6.890625 
Q 35.75 6.890625 40.890625 13.453125 
Q 46.046875 20.015625 46.78125 33.40625 
Q 43.953125 29.203125 39.59375 26.953125 
Q 35.25 24.703125 29.984375 24.703125 
Q 19.046875 24.703125 12.671875 31.3125 
Q 6.296875 37.9375 6.296875 49.421875 
Q 6.296875 60.640625 12.9375 67.421875 
Q 19.578125 74.21875 30.609375 74.21875 
Q 43.265625 74.21875 49.921875 64.515625 
Q 56.59375 54.828125 56.59375 36.375 
Q 56.59375 19.140625 48.40625 8.859375 
Q 40.234375 -1.421875 26.421875 -1.421875 
Q 22.703125 -1.421875 18.890625 -0.6875 
Q 15.09375 0.046875 10.984375 1.515625 
M 30.609375 32.421875 
Q 37.25 32.421875 41.125 36.953125 
Q 45.015625 41.5 45.015625 49.421875 
Q 45.015625 57.28125 41.125 61.84375 
Q 37.25 66.40625 30.609375 66.40625 
Q 23.96875 66.40625 20.09375 61.84375 
Q 16.21875 57.28125 16.21875 49.421875 
Q 16.21875 41.5 20.09375 36.953125 
Q 23.96875 32.421875 30.609375 32.421875 
" id="BitstreamVeraSans-Roman-39"/>
     <path d="M 48.6875 27.296875 
Q 48.6875 37.203125 44.609375 42.84375 
Q 40.53125 48.484375 33.40625 48.484375 
Q 26.265625 48.484375 22.1875 42.84375 
Q 18.109375 37.203125 18.109375 27.296875 
Q 18.109375 17.390625 22.1875 11.75 
Q 26.265625 6.109375 33.40625 6.109375 
Q 40.53125 6.109375 44.609375 11.75 
Q 48.6875 17.390625 48.6875 27.296875 
M 18.109375 46.390625 
Q 20.953125 51.265625 25.265625 53.625 
Q 29.59375 56 35.59375 56 
Q 45.5625 56 51.78125 48.09375 
Q 58.015625 40.1875 58.015625 27.296875 
Q 58.015625 14.40625 51.78125 6.484375 
Q 45.5625 -1.421875 35.59375 -1.421875 
Q 29.59375 -1.421875 25.265625 0.953125 
Q 20.953125 3.328125 18.109375 8.203125 
L 18.109375 0 
L 9.078125 0 
L 9.078125 75.984375 
L 18.109375 75.984375 
z
" id="BitstreamVeraSans-Roman-62"/>
    </defs>
    <g transform="translate(464.017862903 37.8582642327)scale(0.17 -0.17)">
     <use xlink:href="#BitstreamVeraSans-Roman-62"/>
     <use x="63.4765625" xlink:href="#BitstreamVeraSans-Roman-65"/>
     <use x="125.0" xlink:href="#BitstreamVeraSans-Roman-73"/>
     <use x="177.099609375" xlink:href="#BitstreamVeraSans-Roman-74"/>
     <use x="216.30859375" xlink:href="#BitstreamVeraSans-Roman-20"/>
     <use x="248.095703125" xlink:href="#BitstreamVeraSans-Roman-32"/>
     <use x="311.71875" xlink:href="#BitstreamVeraSans-Roman-30"/>
     <use x="375.341796875" xlink:href="#BitstreamVeraSans-Roman-30"/>
     <use x="438.96484375" xlink:href="#BitstreamVeraSans-Roman-39"/>
    </g>
   </g>
   <g id="text_21">
    <!-- bbob f12, 40-D -->
    <defs>
     <path d="M 19.671875 64.796875 
L 19.671875 8.109375 
L 31.59375 8.109375 
Q 46.6875 8.109375 53.6875 14.9375 
Q 60.6875 21.78125 60.6875 36.53125 
Q 60.6875 51.171875 53.6875 57.984375 
Q 46.6875 64.796875 31.59375 64.796875 
z
M 9.8125 72.90625 
L 30.078125 72.90625 
Q 51.265625 72.90625 61.171875 64.09375 
Q 71.09375 55.28125 71.09375 36.53125 
Q 71.09375 17.671875 61.125 8.828125 
Q 51.171875 0 30.078125 0 
L 9.8125 0 
z
" id="BitstreamVeraSans-Roman-44"/>
    </defs>
    <g transform="translate(59.01855 33.77540625)scale(0.102 -0.102)">
     <use xlink:href="#BitstreamVeraSans-Roman-62"/>
     <use x="63.4765625" xlink:href="#BitstreamVeraSans-Roman-62"/>
     <use x="126.953125" xlink:href="#BitstreamVeraSans-Roman-6f"/>
     <use x="188.134765625" xlink:href="#BitstreamVeraSans-Roman-62"/>
     <use x="251.611328125" xlink:href="#BitstreamVeraSans-Roman-20"/>
     <use x="283.3984375" xlink:href="#BitstreamVeraSans-Roman-66"/>
     <use x="318.603515625" xlink:href="#BitstreamVeraSans-Roman-31"/>
     <use x="382.2265625" xlink:href="#BitstreamVeraSans-Roman-32"/>
     <use x="445.849609375" xlink:href="#BitstreamVeraSans-Roman-2c"/>
     <use x="477.63671875" xlink:href="#BitstreamVeraSans-Roman-20"/>
     <use x="509.423828125" xlink:href="#BitstreamVeraSans-Roman-34"/>
     <use x="573.046875" xlink:href="#BitstreamVeraSans-Roman-30"/>
     <use x="636.669921875" xlink:href="#BitstreamVeraSans-Roman-2d"/>
     <use x="672.75390625" xlink:href="#BitstreamVeraSans-Roman-44"/>
    </g>
    <!-- 51 targets: 100..1e-08 -->
    <defs>
     <path d="M 11.71875 12.40625 
L 22.015625 12.40625 
L 22.015625 0 
L 11.71875 0 
z
M 11.71875 51.703125 
L 22.015625 51.703125 
L 22.015625 39.3125 
L 11.71875 39.3125 
z
" id="BitstreamVeraSans-Roman-3a"/>
    </defs>
    <g transform="translate(59.01855 45.197175)scale(0.102 -0.102)">
     <use xlink:href="#BitstreamVeraSans-Roman-35"/>
     <use x="63.623046875" xlink:href="#BitstreamVeraSans-Roman-31"/>
     <use x="127.24609375" xlink:href="#BitstreamVeraSans-Roman-20"/>
     <use x="159.033203125" xlink:href="#BitstreamVeraSans-Roman-74"/>
     <use x="198.2421875" xlink:href="#BitstreamVeraSans-Roman-61"/>
     <use x="259.521484375" xlink:href="#BitstreamVeraSans-Roman-72"/>
     <use x="300.619140625" xlink:href="#BitstreamVeraSans-Roman-67"/>
     <use x="364.095703125" xlink:href="#BitstreamVeraSans-Roman-65"/>
     <use x="425.619140625" xlink:href="#BitstreamVeraSans-Roman-74"/>
     <use x="464.828125" xlink:href="#BitstreamVeraSans-Roman-73"/>
     <use x="516.927734375" xlink:href="#BitstreamVeraSans-Roman-3a"/>
     <use x="550.619140625" xlink:href="#BitstreamVeraSans-Roman-20"/>
     <use x="582.40625" xlink:href="#BitstreamVeraSans-Roman-31"/>
     <use x="646.029296875" xlink:href="#BitstreamVeraSans-Roman-30"/>
     <use x="709.65234375" xlink:href="#BitstreamVeraSans-Roman-30"/>
     <use x="773.275390625" xlink:href="#BitstreamVeraSans-Roman-2e"/>
     <use x="805.0625" xlink:href="#BitstreamVeraSans-Roman-2e"/>
     <use x="836.849609375" xlink:href="#BitstreamVeraSans-Roman-31"/>
     <use x="900.47265625" xlink:href="#BitstreamVeraSans-Roman-65"/>
     <use x="961.99609375" xlink:href="#BitstreamVeraSans-Roman-2d"/>
     <use x="998.080078125" xlink:href="#BitstreamVeraSans-Roman-30"/>
     <use x="1061.703125" xlink:href="#BitstreamVeraSans-Roman-38"/>
    </g>
    <!-- 15 instances -->
    <g transform="translate(59.01855 56.61894375)scale(0.102 -0.102)">
     <use xlink:href="#BitstreamVeraSans-Roman-31"/>
     <use x="63.623046875" xlink:href="#BitstreamVeraSans-Roman-35"/>
     <use x="127.24609375" xlink:href="#BitstreamVeraSans-Roman-20"/>
     <use x="159.033203125" xlink:href="#BitstreamVeraSans-Roman-69"/>
     <use x="186.81640625" xlink:href="#BitstreamVeraSans-Roman-6e"/>
     <use x="250.1953125" xlink:href="#BitstreamVeraSans-Roman-73"/>
     <use x="302.294921875" xlink:href="#BitstreamVeraSans-Roman-74"/>
     <use x="341.50390625" xlink:href="#BitstreamVeraSans-Roman-61"/>
     <use x="402.783203125" xlink:href="#BitstreamVeraSans-Roman-6e"/>
     <use x="466.162109375" xlink:href="#BitstreamVeraSans-Roman-63"/>
     <use x="521.142578125" xlink:href="#BitstreamVeraSans-Roman-65"/>
     <use x="582.666015625" xlink:href="#BitstreamVeraSans-Roman-73"/>
    </g>
   </g>
   <g id="text_22">
    <!-- v0.0.0 -->
    <g style="fill:#808080;" transform="translate(263.52125 379.1953125)scale(0.1 -0.1)">
     <use xlink:href="#BitstreamVeraSans-Roman-76"/>
     <use x="59.1796875" xlink:href="#BitstreamVeraSans-Roman-30"/>
     <use x="122.802734375" xlink:href="#BitstreamVeraSans-Roman-2e"/>
     <use x="154.58984375" xlink:href="#BitstreamVeraSans-Roman-30"/>
     <use x="218.212890625" xlink:href="#BitstreamVeraSans-Roman-2e"/>
     <use x="250.0" xlink:href="#BitstreamVeraSans-Roman-30"/>
    </g>
   </g>
   <g id="text_23">
    <!-- 12 Bent cigar -->
    <defs>
     <path d="M 19.671875 34.8125 
L 19.671875 8.109375 
L 35.5 8.109375 
Q 43.453125 8.109375 47.28125 11.40625 
Q 51.125 14.703125 51.125 21.484375 
Q 51.125 28.328125 47.28125 31.5625 
Q 43.453125 34.8125 35.5 34.8125 
z
M 19.671875 64.796875 
L 19.671875 42.828125 
L 34.28125 42.828125 
Q 41.5 42.828125 45.03125 45.53125 
Q 48.578125 48.25 48.578125 53.8125 
Q 48.578125 59.328125 45.03125 62.0625 
Q 41.5 64.796875 34.28125 64.796875 
z
M 9.8125 72.90625 
L 35.015625 72.90625 
Q 46.296875 72.90625 52.390625 68.21875 
Q 58.5 63.53125 58.5 54.890625 
Q 58.5 48.1875 55.375 44.234375 
Q 52.25 40.28125 46.1875 39.3125 
Q 53.46875 37.75 57.5 32.78125 
Q 61.53125 27.828125 61.53125 20.40625 
Q 61.53125 10.640625 54.890625 5.3125 
Q 48.25 0 35.984375 0 
L 9.8125 0 
z
" id="BitstreamVeraSans-Roman-42"/>
    </defs>
    <g transform="translate(211.9853125 17.4)scale(0.2 -0.2)">
     <use xlink:href="#BitstreamVeraSans-Roman-31"/>
     <use x="63.623046875" xlink:href="#BitstreamVeraSans-Roman-32"/>
     <use x="127.24609375" xlink:href="#BitstreamVeraSans-Roman-20"/>
     <use x="159.033203125" xlink:href="#BitstreamVeraSans-Roman-42"/>
     <use x="227.63671875" xlink:href="#BitstreamVeraSans-Roman-65"/>
     <use x="289.16015625" xlink:href="#BitstreamVeraSans-Roman-6e"/>
     <use x="352.5390625" xlink:href="#BitstreamVeraSans-Roman-74"/>
     <use x="391.748046875" xlink:href="#BitstreamVeraSans-Roman-20"/>
     <use x="423.53515625" xlink:href="#BitstreamVeraSans-Roman-63"/>
     <use x="478.515625" xlink:href="#BitstreamVeraSans-Roman-69"/>
     <use x="506.298828125" xlink:href="#BitstreamVeraSans-Roman-67"/>
     <use x="569.775390625" xlink:href="#BitstreamVeraSans-Roman-61"/>
     <use x="631.0546875" xlink:href="#BitstreamVeraSans-Roman-72"/>
    </g>
   </g>
  </g>
 </g>
 <defs>
  <clipPath id="p62c88ed98c">
   <rect height="362.5" width="449.355" x="54.525" y="22.4"/>
  </clipPath>
 </defs>
</svg>
