<?xml version="1.0" encoding="utf-8" standalone="no"?>
<!DOCTYPE svg PUBLIC "-//W3C//DTD SVG 1.1//EN"
  "http://www.w3.org/Graphics/SVG/1.1/DTD/svg11.dtd">
<!-- Created with matplotlib (http://matplotlib.org/) -->
<svg height="432pt" version="1.1" viewBox="0 0 576 432" width="576pt" xmlns="http://www.w3.org/2000/svg" xmlns:xlink="http://www.w3.org/1999/xlink">
 <defs>
  <style type="text/css">
*{stroke-linecap:butt;stroke-linejoin:round;stroke-miterlimit:100000;}
  </style>
 </defs>
 <g id="figure_1">
  <g id="patch_1">
   <path d="M 0 432 
L 576 432 
L 576 0 
L 0 0 
z
" style="fill:#ffffff;"/>
  </g>
  <g id="axes_1">
   <g id="patch_2">
    <path d="M 54.525 384.9 
L 503.88 384.9 
L 503.88 22.4 
L 54.525 22.4 
z
" style="fill:#ffffff;"/>
   </g>
   <g id="line2d_1">
    <path d="M 18.340015 384.9 
L 18.340015 363.787595 
L 85.693049 363.787595 
L 85.693049 356.750126 
L 91.591784 356.750126 
L 91.591784 349.712658 
L 98.274888 349.712658 
L 98.274888 342.675189 
L 105.376209 342.675189 
L 105.376209 335.637721 
L 111.130357 335.637721 
L 111.130357 328.600252 
L 114.177826 328.600252 
L 114.177826 321.562784 
L 123.399203 321.562784 
L 123.399203 314.525315 
L 127.25185 314.525315 
L 127.25185 307.487847 
L 133.000287 307.487847 
L 133.000287 300.450379 
L 134.967985 300.450379 
L 134.967985 293.41291 
L 136.661053 293.41291 
L 136.661053 286.375442 
L 138.559007 286.375442 
L 138.559007 279.337973 
L 138.983228 279.337973 
L 138.983228 272.300505 
L 139.909432 272.300505 
L 139.909432 265.263036 
L 141.087849 265.263036 
L 141.087849 258.225568 
L 141.467318 258.225568 
L 141.467318 251.188099 
L 143.012212 251.188099 
L 143.012212 244.150631 
L 143.618727 244.150631 
L 143.618727 237.113162 
L 144.292425 237.113162 
L 144.292425 230.075694 
L 144.784773 230.075694 
L 144.784773 216.000757 
L 146.047308 216.000757 
L 146.047308 208.963289 
L 146.578128 208.963289 
L 146.578128 201.92582 
L 146.875921 201.92582 
L 146.875921 194.888352 
L 148.099298 194.888352 
L 148.099298 173.775946 
L 148.308443 173.775946 
L 148.308443 152.663541 
L 148.377728 152.663541 
L 148.377728 145.626073 
L 148.515661 145.626073 
L 148.515661 138.588604 
L 149.059083 138.588604 
L 149.059083 131.551136 
L 149.259527 131.551136 
L 149.259527 124.513667 
L 149.392171 124.513667 
L 149.392171 117.476199 
L 149.655133 117.476199 
L 149.655133 110.43873 
L 149.720396 110.43873 
L 149.720396 103.401262 
L 150.362811 103.401262 
L 150.362811 96.363793 
L 150.426054 96.363793 
L 150.426054 82.288857 
L 150.677263 82.288857 
L 150.677263 75.251388 
L 151.048891 75.251388 
L 151.048891 68.21392 
L 151.232427 68.21392 
L 151.232427 61.176451 
L 151.474834 61.176451 
L 151.474834 25.989109 
L 416.908065 25.989109 
" style="fill:none;stroke:#f5deb3;stroke-linecap:square;stroke-width:6.0;"/>
   </g>
   <g id="line2d_2">
    <defs>
     <path d="M -0 7.778175 
L 7.778175 0 
L 0 -7.778175 
L -7.778175 -0 
z
" id="m906f479b15" style="stroke:#f5deb3;stroke-linejoin:miter;stroke-width:1.5;"/>
    </defs>
    <g>
     <use style="fill:#f5deb3;stroke:#f5deb3;stroke-linejoin:miter;stroke-width:1.5;" x="138.559007475" xlink:href="#m906f479b15" y="286.375441662"/>
     <use style="fill:#f5deb3;stroke:#f5deb3;stroke-linejoin:miter;stroke-width:1.5;" x="149.655132795" xlink:href="#m906f479b15" y="117.476198796"/>
     <use style="fill:#f5deb3;stroke:#f5deb3;stroke-linejoin:miter;stroke-width:1.5;" x="151.47483362" xlink:href="#m906f479b15" y="61.1764511745"/>
     <use style="fill:#f5deb3;stroke:#f5deb3;stroke-linejoin:miter;stroke-width:1.5;" x="151.47483362" xlink:href="#m906f479b15" y="25.9891089109"/>
     <use style="fill:#f5deb3;stroke:#f5deb3;stroke-linejoin:miter;stroke-width:1.5;" x="151.47483362" xlink:href="#m906f479b15" y="25.9891089109"/>
     <use style="fill:#f5deb3;stroke:#f5deb3;stroke-linejoin:miter;stroke-width:1.5;" x="416.908064516" xlink:href="#m906f479b15" y="25.9891089109"/>
    </g>
   </g>
   <g id="line2d_3">
    <path d="M -15527.946774 743.810891 
" style="fill:none;stroke:#f5deb3;stroke-linecap:square;stroke-width:6.0;"/>
    <g>
     <use style="fill:#f5deb3;stroke:#f5deb3;stroke-linejoin:miter;stroke-width:1.5;" x="-15527.9467742" xlink:href="#m906f479b15" y="743.810891089"/>
    </g>
   </g>
   <g id="line2d_4">
    <path d="M 416.908065 25.989109 
L 456.770202 33.167327 
" style="fill:none;stroke:#f5deb3;stroke-linecap:square;stroke-width:6.0;"/>
    <g>
     <use style="fill:#f5deb3;stroke:#f5deb3;stroke-linejoin:miter;stroke-width:1.5;" x="416.908064516" xlink:href="#m906f479b15" y="25.9891089109"/>
     <use style="fill:#f5deb3;stroke:#f5deb3;stroke-linejoin:miter;stroke-width:1.5;" x="456.770201613" xlink:href="#m906f479b15" y="33.1673267327"/>
    </g>
   </g>
   <g id="line2d_5">
    <defs>
     <path d="M 0 1.5 
C 0.397805 1.5 0.77937 1.341951 1.06066 1.06066 
C 1.341951 0.77937 1.5 0.397805 1.5 0 
C 1.5 -0.397805 1.341951 -0.77937 1.06066 -1.06066 
C 0.77937 -1.341951 0.397805 -1.5 0 -1.5 
C -0.397805 -1.5 -0.77937 -1.341951 -1.06066 -1.06066 
C -1.341951 -0.77937 -1.5 -0.397805 -1.5 0 
C -1.5 0.397805 -1.341951 0.77937 -1.06066 1.06066 
C -0.77937 1.341951 -0.397805 1.5 0 1.5 
z
" id="m7a9b70d635" style="stroke:#f5deb3;stroke-width:0.5;"/>
    </defs>
    <g>
     <use style="fill:#f5deb3;stroke:#f5deb3;stroke-width:0.5;" x="151.47483362" xlink:href="#m7a9b70d635" y="25.9891089109"/>
     <use style="fill:#f5deb3;stroke:#f5deb3;stroke-width:0.5;" x="151.47483362" xlink:href="#m7a9b70d635" y="25.9891089109"/>
    </g>
   </g>
   <g id="line2d_6">
    <defs>
     <path d="M 0 1.5 
C 0.397805 1.5 0.77937 1.341951 1.06066 1.06066 
C 1.341951 0.77937 1.5 0.397805 1.5 0 
C 1.5 -0.397805 1.341951 -0.77937 1.06066 -1.06066 
C 0.77937 -1.341951 0.397805 -1.5 0 -1.5 
C -0.397805 -1.5 -0.77937 -1.341951 -1.06066 -1.06066 
C -1.341951 -0.77937 -1.5 -0.397805 -1.5 0 
C -1.5 0.397805 -1.341951 0.77937 -1.06066 1.06066 
C -0.77937 1.341951 -0.397805 1.5 0 1.5 
z
" id="mb04c913e1b" style="stroke:#000080;stroke-width:0.5;"/>
    </defs>
    <g>
     <use style="fill:#000080;stroke:#000080;stroke-width:0.5;" x="227.871489517" xlink:href="#mb04c913e1b" y="25.9891089109"/>
     <use style="fill:#000080;stroke:#000080;stroke-width:0.5;" x="227.871489517" xlink:href="#mb04c913e1b" y="25.9891089109"/>
    </g>
   </g>
   <g id="line2d_7">
    <path d="M 127.949053 384.9 
L 127.949053 383.492506 
L 145.424902 383.492506 
L 145.424902 378.566278 
L 147.242699 378.566278 
L 147.242699 377.158785 
L 147.888188 377.158785 
L 147.888188 376.455038 
L 151.232427 376.455038 
L 151.232427 375.751291 
L 153.436132 375.751291 
L 153.436132 375.047544 
L 155.744105 375.047544 
L 155.744105 372.232557 
L 156.479711 372.232557 
L 156.479711 370.121316 
L 157.378204 370.121316 
L 157.378204 368.713823 
L 158.727589 368.713823 
L 158.727589 366.602582 
L 158.858178 366.602582 
L 158.858178 365.898835 
L 159.584187 365.898835 
L 159.584187 365.195088 
L 160.287485 365.195088 
L 160.287485 364.491341 
L 161.438675 364.491341 
L 161.438675 363.787595 
L 161.592933 363.787595 
L 161.592933 362.380101 
L 163.151785 362.380101 
L 163.151785 359.565114 
L 163.648275 359.565114 
L 163.683322 358.15762 
L 165.819812 358.15762 
L 165.819812 356.750126 
L 166.073144 356.750126 
L 166.073144 356.046379 
L 167.594902 356.046379 
L 167.594902 354.638886 
L 168.318821 354.638886 
L 168.37574 351.823898 
L 169.538913 351.823898 
L 169.565888 350.416405 
L 170.019566 350.416405 
L 170.019566 348.305164 
L 171.253228 348.305164 
L 171.253228 347.601417 
L 171.625266 347.601417 
L 171.625266 346.193924 
L 171.84557 346.193924 
L 171.84557 345.490177 
L 171.967034 345.490177 
L 171.967034 344.78643 
L 172.869324 344.78643 
L 172.869324 344.082683 
L 173.44378 344.082683 
L 173.44378 343.378936 
L 173.959622 343.378936 
L 173.959622 341.971442 
L 174.289775 341.971442 
L 174.289775 341.267696 
L 174.507213 341.267696 
L 174.507213 340.563949 
L 174.893381 340.563949 
L 174.893381 339.860202 
L 176.414749 339.860202 
L 176.414749 339.156455 
L 176.6717 339.156455 
L 176.6717 338.452708 
L 178.080918 338.452708 
L 178.080918 337.045215 
L 178.228107 337.045215 
L 178.228107 336.341468 
L 178.699922 336.341468 
L 178.735809 334.933974 
L 179.44177 334.933974 
L 179.44177 334.230227 
L 181.95434 334.230227 
L 181.95434 333.52648 
L 182.415703 333.52648 
L 182.415703 332.118987 
L 183.252377 332.118987 
L 183.252377 330.711493 
L 184.101435 330.711493 
L 184.101435 329.303999 
L 185.32446 329.303999 
L 185.32446 328.600252 
L 185.879298 328.600252 
L 185.879298 327.192759 
L 186.623666 327.192759 
L 186.623666 325.785265 
L 186.824745 325.785265 
L 186.862248 323.674024 
L 188.219392 323.674024 
L 188.219392 322.266531 
L 189.17479 322.266531 
L 189.17479 321.562784 
L 189.3879 321.562784 
L 189.3879 320.859037 
L 190.434824 320.859037 
L 190.541127 319.451543 
L 190.594091 319.451543 
L 190.594091 318.04405 
L 191.158285 318.04405 
L 191.158285 316.636556 
L 191.567264 316.636556 
L 191.567264 315.932809 
L 192.412402 315.932809 
L 192.441657 314.525315 
L 193.208088 314.525315 
L 193.226918 313.117822 
L 193.976575 313.117822 
L 193.985676 311.006581 
L 194.103649 311.006581 
L 194.103649 310.302834 
L 194.772437 310.302834 
L 194.772437 308.895341 
L 196.202031 308.895341 
L 196.202031 308.191594 
L 196.488756 308.191594 
L 196.496894 306.7841 
L 196.755787 306.7841 
L 196.755787 304.67286 
L 196.932062 304.67286 
L 196.932062 303.969113 
L 197.327622 303.969113 
L 197.327622 302.561619 
L 198.106031 302.561619 
L 198.106031 301.857872 
L 198.241971 301.857872 
L 198.241971 301.154125 
L 198.64493 301.154125 
L 198.64493 299.042885 
L 199.106098 299.042885 
L 199.106098 298.339138 
L 199.94522 298.339138 
L 199.94522 297.635391 
L 200.1813 297.635391 
L 200.1813 296.931644 
L 200.841511 296.931644 
L 200.841511 296.227897 
L 201.154566 296.227897 
L 201.154566 294.116657 
L 201.332455 294.116657 
L 201.378345 292.005416 
L 201.502435 292.005416 
L 201.502435 291.30167 
L 201.82575 291.30167 
L 201.82575 290.597923 
L 202.087443 290.597923 
L 202.087443 289.190429 
L 202.465 289.190429 
L 202.465 288.486682 
L 202.879246 288.486682 
L 202.879246 287.782935 
L 203.177441 287.782935 
L 203.177441 287.079189 
L 203.417968 287.079189 
L 203.507506 285.671695 
L 203.57888 285.671695 
L 203.57888 284.967948 
L 203.720953 284.967948 
L 203.720953 284.264201 
L 204.002434 284.264201 
L 204.037373 282.856707 
L 204.136072 282.856707 
L 204.228571 280.745467 
L 204.326436 280.745467 
L 204.326436 279.337973 
L 204.446743 279.337973 
L 204.446743 277.93048 
L 204.657158 277.93048 
L 204.657158 277.226733 
L 204.848792 277.226733 
L 204.93841 273.707998 
L 205.127671 273.707998 
L 205.127671 273.004252 
L 205.331838 273.004252 
L 205.375739 270.189264 
L 205.637362 270.189264 
L 205.707698 268.781771 
L 205.826228 268.781771 
L 205.826228 268.078024 
L 205.976187 268.078024 
L 205.976187 267.374277 
L 206.119849 267.374277 
L 206.119849 266.67053 
L 206.267868 266.67053 
L 206.267868 265.966783 
L 206.73715 265.966783 
L 206.798987 264.559289 
L 206.865786 264.559289 
L 206.865786 263.855543 
L 207.237246 263.855543 
L 207.287656 262.448049 
L 207.582798 262.448049 
L 207.582798 261.744302 
L 207.716582 261.744302 
L 207.716582 261.040555 
L 207.859394 261.040555 
L 207.859394 259.633062 
L 207.996426 259.633062 
L 208.074357 258.225568 
L 208.277649 258.225568 
L 208.277649 257.521821 
L 208.46001 257.521821 
L 208.498213 256.114327 
L 208.692996 256.114327 
L 208.749688 254.003087 
L 208.946991 254.003087 
L 208.975036 251.891846 
L 209.110097 251.891846 
L 209.110097 251.188099 
L 209.235119 251.188099 
L 209.276639 249.780606 
L 209.496792 249.780606 
L 209.606066 246.965618 
L 209.696723 246.965618 
L 209.805032 244.150631 
L 209.836524 244.150631 
L 209.930736 240.631897 
L 210.091329 240.631897 
L 210.109102 239.224403 
L 210.233122 239.224403 
L 210.321291 237.113162 
L 210.352069 237.113162 
L 210.352069 236.409416 
L 210.466018 236.409416 
L 210.531496 234.298175 
L 210.618505 234.298175 
L 210.618505 232.890681 
L 210.821659 232.890681 
L 210.916126 227.964454 
L 210.954657 227.964454 
L 210.988852 226.55696 
L 211.125113 226.55696 
L 211.214087 225.149466 
L 211.357399 225.149466 
L 211.374199 223.038226 
L 211.591468 223.038226 
L 211.608094 221.630732 
L 211.929875 221.630732 
L 211.954438 220.223238 
L 212.214783 220.223238 
L 212.323718 218.815745 
L 212.38401 218.815745 
L 212.48414 216.704504 
L 212.555958 216.704504 
L 212.631517 214.593263 
L 212.671184 214.593263 
L 212.706824 212.482023 
L 212.817345 212.482023 
L 212.872402 208.259542 
L 212.954736 208.259542 
L 213.056257 206.148301 
L 213.21929 206.148301 
L 213.281089 202.629567 
L 213.369627 202.629567 
L 213.369627 201.92582 
L 213.746797 201.92582 
L 213.852334 199.81458 
L 213.934909 199.81458 
L 214.005981 196.999592 
L 214.050753 196.999592 
L 214.050753 196.295845 
L 214.173418 196.295845 
L 214.217858 193.480858 
L 214.324894 193.480858 
L 214.427758 189.962124 
L 214.457061 189.962124 
L 214.457061 188.55463 
L 214.704609 188.55463 
L 214.805754 184.332149 
L 214.816564 184.332149 
L 214.906446 179.405921 
L 215.25889 179.405921 
L 215.25889 177.998427 
L 215.389206 177.998427 
L 215.497812 173.0722 
L 215.754962 173.0722 
L 215.834291 170.960959 
L 215.927061 170.960959 
L 215.988696 166.738478 
L 216.06039 166.738478 
L 216.162416 164.627237 
L 216.186155 164.627237 
L 216.257224 162.515997 
L 216.422182 162.515997 
L 216.519243 158.293516 
L 216.575947 158.293516 
L 216.575947 156.182275 
L 216.735283 156.182275 
L 216.840884 149.144807 
L 216.9296 149.144807 
L 216.9296 147.033566 
L 217.047347 147.033566 
L 217.128754 144.218579 
L 217.190427 144.218579 
L 217.190427 143.514832 
L 217.387294 143.514832 
L 217.45467 139.996098 
L 217.509066 139.996098 
L 217.611102 135.773617 
L 217.690497 135.773617 
L 217.719011 132.958629 
L 217.889337 132.958629 
L 217.977149 130.847389 
L 218.002176 130.847389 
L 218.067737 128.032401 
L 218.114451 128.032401 
L 218.114451 127.328655 
L 218.303423 127.328655 
L 218.395781 123.106174 
L 218.420346 123.106174 
L 218.420346 122.402427 
L 218.588507 122.402427 
L 218.658458 118.883692 
L 218.876037 118.883692 
L 218.903087 116.068705 
L 219.106419 116.068705 
L 219.106419 115.364958 
L 219.225172 115.364958 
L 219.225172 113.957465 
L 219.490097 113.957465 
L 219.554384 109.031237 
L 219.618488 109.031237 
L 219.7172 106.919996 
L 219.737469 106.919996 
L 219.763503 105.512502 
L 219.907588 105.512502 
L 220.005041 99.882528 
L 220.164637 99.882528 
L 220.272293 97.771287 
L 220.292068 97.771287 
L 220.387873 94.9563 
L 220.528024 94.9563 
L 220.597773 91.437566 
L 220.722779 91.437566 
L 220.830559 89.326325 
L 220.841584 89.326325 
L 220.932335 85.807591 
L 220.987159 85.807591 
L 221.0555 84.400097 
L 221.1617 84.400097 
L 221.256582 81.58511 
L 221.375298 81.58511 
L 221.383369 80.177616 
L 221.570885 80.177616 
L 221.677338 71.028907 
L 221.695916 71.028907 
L 221.709176 68.21392 
L 222.048618 68.21392 
L 222.095578 66.806426 
L 222.292775 66.806426 
L 222.344383 64.695185 
L 222.557299 64.695185 
L 222.557299 63.991439 
L 222.783389 63.991439 
L 222.783389 62.583945 
L 223.062216 62.583945 
L 223.166823 60.472704 
L 223.443419 60.472704 
L 223.543828 57.657717 
L 223.808608 57.657717 
L 223.847214 54.84273 
L 224.103699 54.84273 
L 224.210699 53.435236 
L 224.317192 53.435236 
L 224.317192 52.731489 
L 224.523999 52.731489 
L 224.582405 50.620248 
L 224.733556 50.620248 
L 224.733556 49.212755 
L 224.99164 49.212755 
L 225.083099 44.990274 
L 225.105906 44.990274 
L 225.165096 43.58278 
L 225.4183 43.58278 
L 225.4183 42.879033 
L 225.568419 42.879033 
L 225.568419 41.47154 
L 225.79284 41.47154 
L 225.79284 40.064046 
L 226.132949 40.064046 
L 226.2047 37.249058 
L 226.48086 37.249058 
L 226.48086 35.841565 
L 226.721869 35.841565 
L 226.721869 33.026577 
L 226.897263 33.026577 
L 226.975011 28.804096 
L 227.148449 28.804096 
L 227.148449 28.100349 
L 227.577298 28.100349 
L 227.577298 27.396603 
L 227.87149 27.396603 
L 227.87149 25.989109 
L 416.908065 25.989109 
L 416.908065 25.989109 
" style="fill:none;stroke:#000080;stroke-linecap:square;stroke-width:1.5;"/>
   </g>
   <g id="line2d_8">
    <defs>
     <path d="M 0 6 
C 1.591219 6 3.117479 5.367802 4.242641 4.242641 
C 5.367802 3.117479 6 1.591219 6 0 
C 6 -1.591219 5.367802 -3.117479 4.242641 -4.242641 
C 3.117479 -5.367802 1.591219 -6 0 -6 
C -1.591219 -6 -3.117479 -5.367802 -4.242641 -4.242641 
C -5.367802 -3.117479 -6 -1.591219 -6 0 
C -6 1.591219 -5.367802 3.117479 -4.242641 4.242641 
C -3.117479 5.367802 -1.591219 6 0 6 
z
" id="m8e25c1b28c" style="stroke:#000080;stroke-width:1.5;"/>
    </defs>
    <g>
     <use style="fill:none;stroke:#000080;stroke-width:1.5;" x="209.88143591" xlink:href="#m8e25c1b28c" y="241.335643564"/>
     <use style="fill:none;stroke:#000080;stroke-width:1.5;" x="227.871489517" xlink:href="#m8e25c1b28c" y="27.3966026014"/>
     <use style="fill:none;stroke:#000080;stroke-width:1.5;" x="227.871489517" xlink:href="#m8e25c1b28c" y="25.9891089109"/>
     <use style="fill:none;stroke:#000080;stroke-width:1.5;" x="227.871489517" xlink:href="#m8e25c1b28c" y="25.9891089109"/>
     <use style="fill:none;stroke:#000080;stroke-width:1.5;" x="416.908064516" xlink:href="#m8e25c1b28c" y="25.9891089109"/>
    </g>
   </g>
   <g id="line2d_9">
    <path d="M -15527.946774 743.810891 
" style="fill:none;stroke:#000080;stroke-linecap:square;stroke-width:1.5;"/>
    <g>
     <use style="fill:none;stroke:#000080;stroke-width:1.5;" x="-15527.9467742" xlink:href="#m8e25c1b28c" y="743.810891089"/>
    </g>
   </g>
   <g id="line2d_10">
    <defs>
     <path d="M 0 1.5 
C 0.397805 1.5 0.77937 1.341951 1.06066 1.06066 
C 1.341951 0.77937 1.5 0.397805 1.5 0 
C 1.5 -0.397805 1.341951 -0.77937 1.06066 -1.06066 
C 0.77937 -1.341951 0.397805 -1.5 0 -1.5 
C -0.397805 -1.5 -0.77937 -1.341951 -1.06066 -1.06066 
C -1.341951 -0.77937 -1.5 -0.397805 -1.5 0 
C -1.5 0.397805 -1.341951 0.77937 -1.06066 1.06066 
C -0.77937 1.341951 -0.397805 1.5 0 1.5 
z
" id="mbb5689462b" style="stroke:#ff00ff;stroke-width:0.5;"/>
    </defs>
    <g>
     <use style="fill:#ff00ff;stroke:#ff00ff;stroke-width:0.5;" x="219.00498256" xlink:href="#mbb5689462b" y="25.9891089109"/>
     <use style="fill:#ff00ff;stroke:#ff00ff;stroke-width:0.5;" x="219.00498256" xlink:href="#mbb5689462b" y="25.9891089109"/>
    </g>
   </g>
   <g id="line2d_11">
    <path d="M 128.289711 384.9 
L 128.289711 384.196253 
L 133.675503 384.196253 
L 133.675503 382.085013 
L 135.464867 382.085013 
L 135.464867 381.381266 
L 150.925697 381.381266 
L 150.925697 379.270025 
L 151.171415 379.270025 
L 151.171415 378.566278 
L 153.325379 378.566278 
L 153.325379 376.455038 
L 153.656017 376.455038 
L 153.656017 375.751291 
L 153.873771 375.751291 
L 153.873771 375.047544 
L 154.356143 375.047544 
L 154.356143 371.52881 
L 154.51466 371.52881 
L 154.619721 370.121316 
L 155.341714 370.121316 
L 155.341714 369.417569 
L 155.793902 369.417569 
L 155.793902 368.713823 
L 157.051343 368.713823 
L 157.051343 368.010076 
L 157.927714 368.010076 
L 157.927714 367.306329 
L 158.552282 367.306329 
L 158.552282 365.898835 
L 158.727589 365.898835 
L 158.727589 363.787595 
L 159.87645 363.787595 
L 159.87645 362.380101 
L 162.863074 362.380101 
L 162.863074 360.972607 
L 163.542803 360.972607 
L 163.542803 360.26886 
L 163.753254 360.26886 
L 163.753254 359.565114 
L 164.643108 359.565114 
L 164.643108 358.861367 
L 164.776936 358.861367 
L 164.776936 358.15762 
L 164.943108 358.15762 
L 164.943108 357.453873 
L 165.30442 357.453873 
L 165.30442 356.750126 
L 165.724072 356.750126 
L 165.724072 353.231392 
L 167.058858 353.231392 
L 167.058858 352.527645 
L 168.118462 352.527645 
L 168.118462 351.823898 
L 168.658194 351.823898 
L 168.658194 351.120151 
L 169.157837 351.120151 
L 169.157837 350.416405 
L 169.430692 350.416405 
L 169.538913 348.305164 
L 170.072343 348.305164 
L 170.072343 347.601417 
L 171.203155 347.601417 
L 171.203155 346.89767 
L 171.55135 346.89767 
L 171.55135 345.490177 
L 171.698941 345.490177 
L 171.698941 344.78643 
L 172.039599 344.78643 
L 172.039599 344.082683 
L 172.279804 344.082683 
L 172.279804 343.378936 
L 173.307243 343.378936 
L 173.307243 341.267696 
L 174.442202 341.267696 
L 174.442202 340.563949 
L 174.957103 340.563949 
L 174.957103 339.860202 
L 175.168212 339.860202 
L 175.168212 339.156455 
L 175.646371 339.156455 
L 175.646371 337.748961 
L 176.154827 337.748961 
L 176.154827 335.637721 
L 176.553472 335.637721 
L 176.63236 334.230227 
L 177.387349 334.230227 
L 177.387349 333.52648 
L 177.988434 333.52648 
L 178.09937 332.118987 
L 178.154633 332.118987 
L 178.154633 331.41524 
L 180.757729 331.41524 
L 180.757729 330.711493 
L 181.244042 330.711493 
L 181.244042 330.007746 
L 181.845312 330.007746 
L 181.845312 328.600252 
L 182.446127 328.600252 
L 182.446127 327.192759 
L 182.882704 327.192759 
L 182.882704 325.785265 
L 183.471297 325.785265 
L 183.572736 324.377771 
L 183.616069 324.377771 
L 183.616069 323.674024 
L 184.059028 323.674024 
L 184.059028 322.970278 
L 185.337831 322.970278 
L 185.337831 322.266531 
L 187.04883 322.266531 
L 187.04883 321.562784 
L 187.732033 321.562784 
L 187.732033 320.859037 
L 188.160521 320.859037 
L 188.160521 320.15529 
L 188.55784 320.15529 
L 188.55784 319.451543 
L 189.421366 319.451543 
L 189.421366 318.747797 
L 189.59901 318.747797 
L 189.59901 318.04405 
L 189.982782 318.04405 
L 190.080416 314.525315 
L 190.950971 314.525315 
L 190.961382 313.117822 
L 191.06523 313.117822 
L 191.085942 311.006581 
L 191.43516 311.006581 
L 191.43516 310.302834 
L 191.758953 310.302834 
L 191.758953 309.599088 
L 193.292699 309.599088 
L 193.34893 308.191594 
L 193.535358 308.191594 
L 193.600244 305.376606 
L 194.003866 305.376606 
L 194.112699 302.561619 
L 195.008413 302.561619 
L 195.008413 301.857872 
L 195.5071 301.857872 
L 195.5071 299.746632 
L 195.994966 299.746632 
L 196.003285 298.339138 
L 196.439862 298.339138 
L 196.439862 297.635391 
L 196.561897 297.635391 
L 196.602429 294.820404 
L 196.699409 294.820404 
L 196.699409 294.116657 
L 196.900115 294.116657 
L 196.900115 292.709163 
L 197.019685 292.709163 
L 197.083196 290.597923 
L 197.62366 290.597923 
L 197.662323 288.486682 
L 197.984501 288.486682 
L 197.992116 286.375442 
L 198.309635 286.375442 
L 198.309635 285.671695 
L 198.733504 285.671695 
L 198.733504 283.560454 
L 198.946128 283.560454 
L 198.946128 282.856707 
L 199.228937 282.856707 
L 199.228937 282.152961 
L 199.372599 282.152961 
L 199.372599 281.449214 
L 199.508232 281.449214 
L 199.508232 280.745467 
L 199.720739 280.745467 
L 199.720739 279.337973 
L 199.896305 279.337973 
L 199.910292 277.226733 
L 200.229599 277.226733 
L 200.325886 275.819239 
L 200.612297 275.819239 
L 200.706963 273.707998 
L 200.975259 273.707998 
L 201.001914 271.596758 
L 201.108217 271.596758 
L 201.200821 270.189264 
L 201.463322 270.189264 
L 201.463322 269.485517 
L 201.857828 269.485517 
L 201.857828 268.781771 
L 202.03662 268.781771 
L 202.144483 265.966783 
L 202.47124 265.966783 
L 202.47124 265.263036 
L 202.903737 265.263036 
L 202.903737 264.559289 
L 203.098713 264.559289 
L 203.20161 259.633062 
L 203.213685 259.633062 
L 203.316058 258.225568 
L 203.340078 258.225568 
L 203.340078 257.521821 
L 203.459796 257.521821 
L 203.459796 256.818074 
L 203.644109 256.818074 
L 203.720953 250.484353 
L 203.815173 250.484353 
L 203.826922 248.373112 
L 204.060635 248.373112 
L 204.159232 246.261871 
L 204.36661 246.261871 
L 204.36661 245.558125 
L 204.526591 245.558125 
L 204.572092 243.446884 
L 204.679788 243.446884 
L 204.679788 242.743137 
L 204.792598 242.743137 
L 204.88244 239.224403 
L 204.971925 239.224403 
L 205.066614 237.816909 
L 205.133214 237.816909 
L 205.227227 234.298175 
L 205.249291 234.298175 
L 205.265825 232.890681 
L 205.386701 232.890681 
L 205.457824 231.483188 
L 205.528722 231.483188 
L 205.528722 230.779441 
L 205.664441 230.779441 
L 205.756263 228.6682 
L 205.793964 228.6682 
L 205.793964 227.964454 
L 205.928095 227.964454 
L 206.008191 222.334479 
L 206.188693 222.334479 
L 206.188693 220.926985 
L 206.446305 220.926985 
L 206.456758 218.111998 
L 206.726827 218.111998 
L 206.76809 214.593263 
L 206.865786 214.593263 
L 206.973275 212.482023 
L 207.019184 212.482023 
L 207.065001 210.370782 
L 207.131015 210.370782 
L 207.131015 209.667036 
L 207.242292 209.667036 
L 207.353021 208.259542 
L 207.373095 208.259542 
L 207.393152 206.148301 
L 207.652267 206.148301 
L 207.756069 203.333314 
L 207.780713 203.333314 
L 207.820088 199.81458 
L 208.006182 199.81458 
L 208.045165 197.703339 
L 208.229413 197.703339 
L 208.229413 196.295845 
L 208.34981 196.295845 
L 208.37861 194.888352 
L 208.474344 194.888352 
L 208.569671 189.962124 
L 208.664596 189.962124 
L 208.683534 188.55463 
L 208.890795 188.55463 
L 208.91891 187.147136 
L 209.07292 187.147136 
L 209.17964 182.924655 
L 209.193522 182.924655 
L 209.193522 180.109668 
L 209.354857 180.109668 
L 209.405324 178.702174 
L 209.537832 178.702174 
L 209.642373 174.479693 
L 209.854499 174.479693 
L 209.935212 170.257212 
L 210.015636 170.257212 
L 210.015636 168.849719 
L 210.140172 168.849719 
L 210.224287 164.627237 
L 210.299281 164.627237 
L 210.31249 161.81225 
L 210.461646 161.81225 
L 210.570692 158.293516 
L 210.592437 158.293516 
L 210.596784 154.071035 
L 210.731115 154.071035 
L 210.761337 151.256047 
L 210.894691 151.256047 
L 210.988852 149.144807 
L 211.15481 149.144807 
L 211.243667 144.218579 
L 211.273208 144.218579 
L 211.32376 142.811085 
L 211.458013 142.811085 
L 211.545682 139.996098 
L 211.58315 139.996098 
L 211.58315 138.588604 
L 211.703458 138.588604 
L 211.740665 137.18111 
L 211.880669 137.18111 
L 211.913485 132.958629 
L 212.027965 132.958629 
L 212.121568 128.032401 
L 212.198599 128.032401 
L 212.283433 126.624908 
L 212.315667 126.624908 
L 212.412092 123.80992 
L 212.440138 123.80992 
L 212.472148 118.883692 
L 212.793707 118.883692 
L 212.852754 113.253718 
L 212.997743 113.253718 
L 213.001649 109.734983 
L 213.130157 109.734983 
L 213.1922 107.623743 
L 213.42335 107.623743 
L 213.530412 104.105009 
L 213.53804 104.105009 
L 213.644559 99.882528 
L 213.667319 99.882528 
L 213.667319 99.178781 
L 213.86737 99.178781 
L 213.942401 94.9563 
L 213.983562 94.9563 
L 214.002246 92.845059 
L 214.106593 92.845059 
L 214.180831 90.030072 
L 214.217858 90.030072 
L 214.328576 85.103844 
L 214.409424 85.103844 
L 214.409424 84.400097 
L 214.526504 84.400097 
L 214.584816 80.881363 
L 214.830969 80.881363 
L 214.920794 78.770122 
L 214.98167 78.770122 
L 215.088698 75.955135 
L 215.127814 75.955135 
L 215.138471 73.140148 
L 215.350543 73.140148 
L 215.455833 68.917666 
L 215.483828 68.917666 
L 215.5432 66.806426 
L 215.637177 66.806426 
L 215.74805 59.065211 
L 215.844618 59.065211 
L 215.889312 56.95397 
L 215.995534 56.95397 
L 215.995534 55.546476 
L 216.114862 55.546476 
L 216.138651 52.731489 
L 216.263981 52.731489 
L 216.311221 47.101514 
L 216.489165 47.101514 
L 216.592597 44.990274 
L 216.718738 44.990274 
L 216.824417 42.879033 
L 216.95582 42.879033 
L 216.95582 42.175286 
L 217.10599 42.175286 
L 217.190427 37.952805 
L 217.219582 37.952805 
L 217.219582 36.545312 
L 217.585637 36.545312 
L 217.585637 35.841565 
L 217.810643 35.841565 
L 217.886195 32.322831 
L 217.977149 32.322831 
L 217.977149 30.21159 
L 218.229263 30.21159 
L 218.281818 28.804096 
L 218.848954 28.804096 
L 218.848954 27.396603 
L 219.004983 27.396603 
L 219.004983 25.989109 
L 416.908065 25.989109 
L 416.908065 25.989109 
" style="fill:none;stroke:#ff00ff;stroke-linecap:square;stroke-width:1.5;"/>
   </g>
   <g id="line2d_12">
    <defs>
     <path d="M -0 8.485281 
L 5.091169 0 
L 0 -8.485281 
L -5.091169 -0 
z
" id="mc49cc3d0d0" style="stroke:#ff00ff;stroke-linejoin:miter;stroke-width:1.5;"/>
    </defs>
    <g>
     <use style="fill:none;stroke:#ff00ff;stroke-linejoin:miter;stroke-width:1.5;" x="183.61606932" xlink:href="#mc49cc3d0d0" y="323.674024461"/>
     <use style="fill:none;stroke:#ff00ff;stroke-linejoin:miter;stroke-width:1.5;" x="211.458012725" xlink:href="#mc49cc3d0d0" y="142.107338381"/>
     <use style="fill:none;stroke:#ff00ff;stroke-linejoin:miter;stroke-width:1.5;" x="219.00498256" xlink:href="#mc49cc3d0d0" y="27.3966026014"/>
     <use style="fill:none;stroke:#ff00ff;stroke-linejoin:miter;stroke-width:1.5;" x="219.00498256" xlink:href="#mc49cc3d0d0" y="25.9891089109"/>
     <use style="fill:none;stroke:#ff00ff;stroke-linejoin:miter;stroke-width:1.5;" x="416.908064516" xlink:href="#mc49cc3d0d0" y="25.9891089109"/>
    </g>
   </g>
   <g id="line2d_13">
    <path d="M -15527.946774 743.810891 
" style="fill:none;stroke:#ff00ff;stroke-linecap:square;stroke-width:1.5;"/>
    <g>
     <use style="fill:none;stroke:#ff00ff;stroke-linejoin:miter;stroke-width:1.5;" x="-15527.9467742" xlink:href="#mc49cc3d0d0" y="743.810891089"/>
    </g>
   </g>
   <g id="line2d_14">
    <path d="M 416.908065 25.989109 
L 456.770202 377.721782 
" style="fill:none;stroke:#000080;stroke-linecap:square;stroke-width:1.5;"/>
    <g>
     <use style="fill:none;stroke:#000080;stroke-width:1.5;" x="416.908064516" xlink:href="#m8e25c1b28c" y="25.9891089109"/>
     <use style="fill:none;stroke:#000080;stroke-width:1.5;" x="456.770201613" xlink:href="#m8e25c1b28c" y="377.721782178"/>
    </g>
   </g>
   <g id="line2d_15">
    <path d="M 416.908065 25.989109 
L 456.770202 205.444554 
" style="fill:none;stroke:#ff00ff;stroke-linecap:square;stroke-width:1.5;"/>
    <g>
     <use style="fill:none;stroke:#ff00ff;stroke-linejoin:miter;stroke-width:1.5;" x="416.908064516" xlink:href="#mc49cc3d0d0" y="25.9891089109"/>
     <use style="fill:none;stroke:#ff00ff;stroke-linejoin:miter;stroke-width:1.5;" x="456.770201613" xlink:href="#mc49cc3d0d0" y="205.444554455"/>
    </g>
   </g>
   <g id="line2d_16">
    <path d="M 416.908065 384.9 
L 416.908065 25.989109 
" style="fill:none;stroke:#000000;stroke-linecap:square;"/>
   </g>
   <g id="patch_3">
    <path d="M 54.525 22.4 
L 503.88 22.4 
" style="fill:none;stroke:#000000;stroke-linecap:square;stroke-linejoin:miter;"/>
   </g>
   <g id="patch_4">
    <path d="M 503.88 384.9 
L 503.88 22.4 
" style="fill:none;stroke:#000000;stroke-linecap:square;stroke-linejoin:miter;"/>
   </g>
   <g id="patch_5">
    <path d="M 54.525 384.9 
L 503.88 384.9 
" style="fill:none;stroke:#000000;stroke-linecap:square;stroke-linejoin:miter;"/>
   </g>
   <g id="patch_6">
    <path d="M 54.525 384.9 
L 54.525 22.4 
" style="fill:none;stroke:#000000;stroke-linecap:square;stroke-linejoin:miter;"/>
   </g>
   <g id="matplotlib.axis_1">
    <g id="xtick_1">
     <g id="line2d_17">
      <path clip-path="url(#p43584f6049)" d="M 54.525 384.9 
L 54.525 22.4 
" style="fill:none;stroke:#000000;stroke-dasharray:1.000000,3.000000;stroke-dashoffset:0.0;stroke-width:0.5;"/>
     </g>
     <g id="line2d_18">
      <defs>
       <path d="M 0 0 
L 0 -4 
" id="mdecab2391a" style="stroke:#000000;stroke-width:0.5;"/>
      </defs>
      <g>
       <use style="stroke:#000000;stroke-width:0.5;" x="54.525" xlink:href="#mdecab2391a" y="384.9"/>
      </g>
     </g>
     <g id="line2d_19">
      <defs>
       <path d="M 0 0 
L 0 4 
" id="mf19823249c" style="stroke:#000000;stroke-width:0.5;"/>
      </defs>
      <g>
       <use style="stroke:#000000;stroke-width:0.5;" x="54.525" xlink:href="#mf19823249c" y="22.4"/>
      </g>
     </g>
     <g id="text_1">
      <!-- 0 -->
      <defs>
       <path d="M 31.78125 66.40625 
Q 24.171875 66.40625 20.328125 58.90625 
Q 16.5 51.421875 16.5 36.375 
Q 16.5 21.390625 20.328125 13.890625 
Q 24.171875 6.390625 31.78125 6.390625 
Q 39.453125 6.390625 43.28125 13.890625 
Q 47.125 21.390625 47.125 36.375 
Q 47.125 51.421875 43.28125 58.90625 
Q 39.453125 66.40625 31.78125 66.40625 
M 31.78125 74.21875 
Q 44.046875 74.21875 50.515625 64.515625 
Q 56.984375 54.828125 56.984375 36.375 
Q 56.984375 17.96875 50.515625 8.265625 
Q 44.046875 -1.421875 31.78125 -1.421875 
Q 19.53125 -1.421875 13.0625 8.265625 
Q 6.59375 17.96875 6.59375 36.375 
Q 6.59375 54.828125 13.0625 64.515625 
Q 19.53125 74.21875 31.78125 74.21875 
" id="BitstreamVeraSans-Roman-30"/>
      </defs>
      <g transform="translate(48.1625 404.096875)scale(0.2 -0.2)">
       <use xlink:href="#BitstreamVeraSans-Roman-30"/>
      </g>
     </g>
    </g>
    <g id="xtick_2">
     <g id="line2d_20">
      <path clip-path="url(#p43584f6049)" d="M 106.294009 384.9 
L 106.294009 22.4 
" style="fill:none;stroke:#000000;stroke-dasharray:1.000000,3.000000;stroke-dashoffset:0.0;stroke-width:0.5;"/>
     </g>
     <g id="line2d_21">
      <g>
       <use style="stroke:#000000;stroke-width:0.5;" x="106.294009217" xlink:href="#mdecab2391a" y="384.9"/>
      </g>
     </g>
     <g id="line2d_22">
      <g>
       <use style="stroke:#000000;stroke-width:0.5;" x="106.294009217" xlink:href="#mf19823249c" y="22.4"/>
      </g>
     </g>
     <g id="text_2">
      <!-- 1 -->
      <defs>
       <path d="M 12.40625 8.296875 
L 28.515625 8.296875 
L 28.515625 63.921875 
L 10.984375 60.40625 
L 10.984375 69.390625 
L 28.421875 72.90625 
L 38.28125 72.90625 
L 38.28125 8.296875 
L 54.390625 8.296875 
L 54.390625 0 
L 12.40625 0 
z
" id="BitstreamVeraSans-Roman-31"/>
      </defs>
      <g transform="translate(99.9315092166 404.096875)scale(0.2 -0.2)">
       <use xlink:href="#BitstreamVeraSans-Roman-31"/>
      </g>
     </g>
    </g>
    <g id="xtick_3">
     <g id="line2d_23">
      <path clip-path="url(#p43584f6049)" d="M 158.063018 384.9 
L 158.063018 22.4 
" style="fill:none;stroke:#000000;stroke-dasharray:1.000000,3.000000;stroke-dashoffset:0.0;stroke-width:0.5;"/>
     </g>
     <g id="line2d_24">
      <g>
       <use style="stroke:#000000;stroke-width:0.5;" x="158.063018433" xlink:href="#mdecab2391a" y="384.9"/>
      </g>
     </g>
     <g id="line2d_25">
      <g>
       <use style="stroke:#000000;stroke-width:0.5;" x="158.063018433" xlink:href="#mf19823249c" y="22.4"/>
      </g>
     </g>
     <g id="text_3">
      <!-- 2 -->
      <defs>
       <path d="M 19.1875 8.296875 
L 53.609375 8.296875 
L 53.609375 0 
L 7.328125 0 
L 7.328125 8.296875 
Q 12.9375 14.109375 22.625 23.890625 
Q 32.328125 33.6875 34.8125 36.53125 
Q 39.546875 41.84375 41.421875 45.53125 
Q 43.3125 49.21875 43.3125 52.78125 
Q 43.3125 58.59375 39.234375 62.25 
Q 35.15625 65.921875 28.609375 65.921875 
Q 23.96875 65.921875 18.8125 64.3125 
Q 13.671875 62.703125 7.8125 59.421875 
L 7.8125 69.390625 
Q 13.765625 71.78125 18.9375 73 
Q 24.125 74.21875 28.421875 74.21875 
Q 39.75 74.21875 46.484375 68.546875 
Q 53.21875 62.890625 53.21875 53.421875 
Q 53.21875 48.921875 51.53125 44.890625 
Q 49.859375 40.875 45.40625 35.40625 
Q 44.1875 33.984375 37.640625 27.21875 
Q 31.109375 20.453125 19.1875 8.296875 
" id="BitstreamVeraSans-Roman-32"/>
      </defs>
      <g transform="translate(151.700518433 404.096875)scale(0.2 -0.2)">
       <use xlink:href="#BitstreamVeraSans-Roman-32"/>
      </g>
     </g>
    </g>
    <g id="xtick_4">
     <g id="line2d_26">
      <path clip-path="url(#p43584f6049)" d="M 209.832028 384.9 
L 209.832028 22.4 
" style="fill:none;stroke:#000000;stroke-dasharray:1.000000,3.000000;stroke-dashoffset:0.0;stroke-width:0.5;"/>
     </g>
     <g id="line2d_27">
      <g>
       <use style="stroke:#000000;stroke-width:0.5;" x="209.83202765" xlink:href="#mdecab2391a" y="384.9"/>
      </g>
     </g>
     <g id="line2d_28">
      <g>
       <use style="stroke:#000000;stroke-width:0.5;" x="209.83202765" xlink:href="#mf19823249c" y="22.4"/>
      </g>
     </g>
     <g id="text_4">
      <!-- 3 -->
      <defs>
       <path d="M 40.578125 39.3125 
Q 47.65625 37.796875 51.625 33 
Q 55.609375 28.21875 55.609375 21.1875 
Q 55.609375 10.40625 48.1875 4.484375 
Q 40.765625 -1.421875 27.09375 -1.421875 
Q 22.515625 -1.421875 17.65625 -0.515625 
Q 12.796875 0.390625 7.625 2.203125 
L 7.625 11.71875 
Q 11.71875 9.328125 16.59375 8.109375 
Q 21.484375 6.890625 26.8125 6.890625 
Q 36.078125 6.890625 40.9375 10.546875 
Q 45.796875 14.203125 45.796875 21.1875 
Q 45.796875 27.640625 41.28125 31.265625 
Q 36.765625 34.90625 28.71875 34.90625 
L 20.21875 34.90625 
L 20.21875 43.015625 
L 29.109375 43.015625 
Q 36.375 43.015625 40.234375 45.921875 
Q 44.09375 48.828125 44.09375 54.296875 
Q 44.09375 59.90625 40.109375 62.90625 
Q 36.140625 65.921875 28.71875 65.921875 
Q 24.65625 65.921875 20.015625 65.03125 
Q 15.375 64.15625 9.8125 62.3125 
L 9.8125 71.09375 
Q 15.4375 72.65625 20.34375 73.4375 
Q 25.25 74.21875 29.59375 74.21875 
Q 40.828125 74.21875 47.359375 69.109375 
Q 53.90625 64.015625 53.90625 55.328125 
Q 53.90625 49.265625 50.4375 45.09375 
Q 46.96875 40.921875 40.578125 39.3125 
" id="BitstreamVeraSans-Roman-33"/>
      </defs>
      <g transform="translate(203.46952765 404.096875)scale(0.2 -0.2)">
       <use xlink:href="#BitstreamVeraSans-Roman-33"/>
      </g>
     </g>
    </g>
    <g id="xtick_5">
     <g id="line2d_29">
      <path clip-path="url(#p43584f6049)" d="M 261.601037 384.9 
L 261.601037 22.4 
" style="fill:none;stroke:#000000;stroke-dasharray:1.000000,3.000000;stroke-dashoffset:0.0;stroke-width:0.5;"/>
     </g>
     <g id="line2d_30">
      <g>
       <use style="stroke:#000000;stroke-width:0.5;" x="261.601036866" xlink:href="#mdecab2391a" y="384.9"/>
      </g>
     </g>
     <g id="line2d_31">
      <g>
       <use style="stroke:#000000;stroke-width:0.5;" x="261.601036866" xlink:href="#mf19823249c" y="22.4"/>
      </g>
     </g>
     <g id="text_5">
      <!-- 4 -->
      <defs>
       <path d="M 37.796875 64.3125 
L 12.890625 25.390625 
L 37.796875 25.390625 
z
M 35.203125 72.90625 
L 47.609375 72.90625 
L 47.609375 25.390625 
L 58.015625 25.390625 
L 58.015625 17.1875 
L 47.609375 17.1875 
L 47.609375 0 
L 37.796875 0 
L 37.796875 17.1875 
L 4.890625 17.1875 
L 4.890625 26.703125 
z
" id="BitstreamVeraSans-Roman-34"/>
      </defs>
      <g transform="translate(255.238536866 404.096875)scale(0.2 -0.2)">
       <use xlink:href="#BitstreamVeraSans-Roman-34"/>
      </g>
     </g>
    </g>
    <g id="xtick_6">
     <g id="line2d_32">
      <path clip-path="url(#p43584f6049)" d="M 313.370046 384.9 
L 313.370046 22.4 
" style="fill:none;stroke:#000000;stroke-dasharray:1.000000,3.000000;stroke-dashoffset:0.0;stroke-width:0.5;"/>
     </g>
     <g id="line2d_33">
      <g>
       <use style="stroke:#000000;stroke-width:0.5;" x="313.370046083" xlink:href="#mdecab2391a" y="384.9"/>
      </g>
     </g>
     <g id="line2d_34">
      <g>
       <use style="stroke:#000000;stroke-width:0.5;" x="313.370046083" xlink:href="#mf19823249c" y="22.4"/>
      </g>
     </g>
     <g id="text_6">
      <!-- 5 -->
      <defs>
       <path d="M 10.796875 72.90625 
L 49.515625 72.90625 
L 49.515625 64.59375 
L 19.828125 64.59375 
L 19.828125 46.734375 
Q 21.96875 47.46875 24.109375 47.828125 
Q 26.265625 48.1875 28.421875 48.1875 
Q 40.625 48.1875 47.75 41.5 
Q 54.890625 34.8125 54.890625 23.390625 
Q 54.890625 11.625 47.5625 5.09375 
Q 40.234375 -1.421875 26.90625 -1.421875 
Q 22.3125 -1.421875 17.546875 -0.640625 
Q 12.796875 0.140625 7.71875 1.703125 
L 7.71875 11.625 
Q 12.109375 9.234375 16.796875 8.0625 
Q 21.484375 6.890625 26.703125 6.890625 
Q 35.15625 6.890625 40.078125 11.328125 
Q 45.015625 15.765625 45.015625 23.390625 
Q 45.015625 31 40.078125 35.4375 
Q 35.15625 39.890625 26.703125 39.890625 
Q 22.75 39.890625 18.8125 39.015625 
Q 14.890625 38.140625 10.796875 36.28125 
z
" id="BitstreamVeraSans-Roman-35"/>
      </defs>
      <g transform="translate(307.007546083 404.096875)scale(0.2 -0.2)">
       <use xlink:href="#BitstreamVeraSans-Roman-35"/>
      </g>
     </g>
    </g>
    <g id="xtick_7">
     <g id="line2d_35">
      <path clip-path="url(#p43584f6049)" d="M 365.139055 384.9 
L 365.139055 22.4 
" style="fill:none;stroke:#000000;stroke-dasharray:1.000000,3.000000;stroke-dashoffset:0.0;stroke-width:0.5;"/>
     </g>
     <g id="line2d_36">
      <g>
       <use style="stroke:#000000;stroke-width:0.5;" x="365.1390553" xlink:href="#mdecab2391a" y="384.9"/>
      </g>
     </g>
     <g id="line2d_37">
      <g>
       <use style="stroke:#000000;stroke-width:0.5;" x="365.1390553" xlink:href="#mf19823249c" y="22.4"/>
      </g>
     </g>
     <g id="text_7">
      <!-- 6 -->
      <defs>
       <path d="M 33.015625 40.375 
Q 26.375 40.375 22.484375 35.828125 
Q 18.609375 31.296875 18.609375 23.390625 
Q 18.609375 15.53125 22.484375 10.953125 
Q 26.375 6.390625 33.015625 6.390625 
Q 39.65625 6.390625 43.53125 10.953125 
Q 47.40625 15.53125 47.40625 23.390625 
Q 47.40625 31.296875 43.53125 35.828125 
Q 39.65625 40.375 33.015625 40.375 
M 52.59375 71.296875 
L 52.59375 62.3125 
Q 48.875 64.0625 45.09375 64.984375 
Q 41.3125 65.921875 37.59375 65.921875 
Q 27.828125 65.921875 22.671875 59.328125 
Q 17.53125 52.734375 16.796875 39.40625 
Q 19.671875 43.65625 24.015625 45.921875 
Q 28.375 48.1875 33.59375 48.1875 
Q 44.578125 48.1875 50.953125 41.515625 
Q 57.328125 34.859375 57.328125 23.390625 
Q 57.328125 12.15625 50.6875 5.359375 
Q 44.046875 -1.421875 33.015625 -1.421875 
Q 20.359375 -1.421875 13.671875 8.265625 
Q 6.984375 17.96875 6.984375 36.375 
Q 6.984375 53.65625 15.1875 63.9375 
Q 23.390625 74.21875 37.203125 74.21875 
Q 40.921875 74.21875 44.703125 73.484375 
Q 48.484375 72.75 52.59375 71.296875 
" id="BitstreamVeraSans-Roman-36"/>
      </defs>
      <g transform="translate(358.7765553 404.096875)scale(0.2 -0.2)">
       <use xlink:href="#BitstreamVeraSans-Roman-36"/>
      </g>
     </g>
    </g>
    <g id="xtick_8">
     <g id="line2d_38">
      <path clip-path="url(#p43584f6049)" d="M 416.908065 384.9 
L 416.908065 22.4 
" style="fill:none;stroke:#000000;stroke-dasharray:1.000000,3.000000;stroke-dashoffset:0.0;stroke-width:0.5;"/>
     </g>
     <g id="line2d_39">
      <g>
       <use style="stroke:#000000;stroke-width:0.5;" x="416.908064516" xlink:href="#mdecab2391a" y="384.9"/>
      </g>
     </g>
     <g id="line2d_40">
      <g>
       <use style="stroke:#000000;stroke-width:0.5;" x="416.908064516" xlink:href="#mf19823249c" y="22.4"/>
      </g>
     </g>
     <g id="text_8">
      <!-- 7 -->
      <defs>
       <path d="M 8.203125 72.90625 
L 55.078125 72.90625 
L 55.078125 68.703125 
L 28.609375 0 
L 18.3125 0 
L 43.21875 64.59375 
L 8.203125 64.59375 
z
" id="BitstreamVeraSans-Roman-37"/>
      </defs>
      <g transform="translate(410.545564516 404.096875)scale(0.2 -0.2)">
       <use xlink:href="#BitstreamVeraSans-Roman-37"/>
      </g>
     </g>
    </g>
    <g id="xtick_9">
     <g id="line2d_41">
      <path clip-path="url(#p43584f6049)" d="M 468.677074 384.9 
L 468.677074 22.4 
" style="fill:none;stroke:#000000;stroke-dasharray:1.000000,3.000000;stroke-dashoffset:0.0;stroke-width:0.5;"/>
     </g>
     <g id="line2d_42">
      <g>
       <use style="stroke:#000000;stroke-width:0.5;" x="468.677073733" xlink:href="#mdecab2391a" y="384.9"/>
      </g>
     </g>
     <g id="line2d_43">
      <g>
       <use style="stroke:#000000;stroke-width:0.5;" x="468.677073733" xlink:href="#mf19823249c" y="22.4"/>
      </g>
     </g>
     <g id="text_9">
      <!-- 8 -->
      <defs>
       <path d="M 31.78125 34.625 
Q 24.75 34.625 20.71875 30.859375 
Q 16.703125 27.09375 16.703125 20.515625 
Q 16.703125 13.921875 20.71875 10.15625 
Q 24.75 6.390625 31.78125 6.390625 
Q 38.8125 6.390625 42.859375 10.171875 
Q 46.921875 13.96875 46.921875 20.515625 
Q 46.921875 27.09375 42.890625 30.859375 
Q 38.875 34.625 31.78125 34.625 
M 21.921875 38.8125 
Q 15.578125 40.375 12.03125 44.71875 
Q 8.5 49.078125 8.5 55.328125 
Q 8.5 64.0625 14.71875 69.140625 
Q 20.953125 74.21875 31.78125 74.21875 
Q 42.671875 74.21875 48.875 69.140625 
Q 55.078125 64.0625 55.078125 55.328125 
Q 55.078125 49.078125 51.53125 44.71875 
Q 48 40.375 41.703125 38.8125 
Q 48.828125 37.15625 52.796875 32.3125 
Q 56.78125 27.484375 56.78125 20.515625 
Q 56.78125 9.90625 50.3125 4.234375 
Q 43.84375 -1.421875 31.78125 -1.421875 
Q 19.734375 -1.421875 13.25 4.234375 
Q 6.78125 9.90625 6.78125 20.515625 
Q 6.78125 27.484375 10.78125 32.3125 
Q 14.796875 37.15625 21.921875 38.8125 
M 18.3125 54.390625 
Q 18.3125 48.734375 21.84375 45.5625 
Q 25.390625 42.390625 31.78125 42.390625 
Q 38.140625 42.390625 41.71875 45.5625 
Q 45.3125 48.734375 45.3125 54.390625 
Q 45.3125 60.0625 41.71875 63.234375 
Q 38.140625 66.40625 31.78125 66.40625 
Q 25.390625 66.40625 21.84375 63.234375 
Q 18.3125 60.0625 18.3125 54.390625 
" id="BitstreamVeraSans-Roman-38"/>
      </defs>
      <g transform="translate(462.314573733 404.096875)scale(0.2 -0.2)">
       <use xlink:href="#BitstreamVeraSans-Roman-38"/>
      </g>
     </g>
    </g>
    <g id="xtick_10">
     <g id="line2d_44">
      <defs>
       <path d="M 0 0 
L 0 -2 
" id="maeb3c4a226" style="stroke:#000000;stroke-width:0.5;"/>
      </defs>
      <g>
       <use style="stroke:#000000;stroke-width:0.5;" x="70.10902462" xlink:href="#maeb3c4a226" y="384.9"/>
      </g>
     </g>
     <g id="line2d_45">
      <defs>
       <path d="M 0 0 
L 0 2 
" id="m4ae805d6ac" style="stroke:#000000;stroke-width:0.5;"/>
      </defs>
      <g>
       <use style="stroke:#000000;stroke-width:0.5;" x="70.10902462" xlink:href="#m4ae805d6ac" y="22.4"/>
      </g>
     </g>
    </g>
    <g id="xtick_11">
     <g id="line2d_46">
      <g>
       <use style="stroke:#000000;stroke-width:0.5;" x="85.69304924" xlink:href="#maeb3c4a226" y="384.9"/>
      </g>
     </g>
     <g id="line2d_47">
      <g>
       <use style="stroke:#000000;stroke-width:0.5;" x="85.69304924" xlink:href="#m4ae805d6ac" y="22.4"/>
      </g>
     </g>
    </g>
    <g id="xtick_12">
     <g id="line2d_48">
      <g>
       <use style="stroke:#000000;stroke-width:0.5;" x="94.809119253" xlink:href="#maeb3c4a226" y="384.9"/>
      </g>
     </g>
     <g id="line2d_49">
      <g>
       <use style="stroke:#000000;stroke-width:0.5;" x="94.809119253" xlink:href="#m4ae805d6ac" y="22.4"/>
      </g>
     </g>
    </g>
    <g id="xtick_13">
     <g id="line2d_50">
      <g>
       <use style="stroke:#000000;stroke-width:0.5;" x="101.27707386" xlink:href="#maeb3c4a226" y="384.9"/>
      </g>
     </g>
     <g id="line2d_51">
      <g>
       <use style="stroke:#000000;stroke-width:0.5;" x="101.27707386" xlink:href="#m4ae805d6ac" y="22.4"/>
      </g>
     </g>
    </g>
    <g id="xtick_14">
     <g id="line2d_52">
      <g>
       <use style="stroke:#000000;stroke-width:0.5;" x="121.878033837" xlink:href="#maeb3c4a226" y="384.9"/>
      </g>
     </g>
     <g id="line2d_53">
      <g>
       <use style="stroke:#000000;stroke-width:0.5;" x="121.878033837" xlink:href="#m4ae805d6ac" y="22.4"/>
      </g>
     </g>
    </g>
    <g id="xtick_15">
     <g id="line2d_54">
      <g>
       <use style="stroke:#000000;stroke-width:0.5;" x="137.462058457" xlink:href="#maeb3c4a226" y="384.9"/>
      </g>
     </g>
     <g id="line2d_55">
      <g>
       <use style="stroke:#000000;stroke-width:0.5;" x="137.462058457" xlink:href="#m4ae805d6ac" y="22.4"/>
      </g>
     </g>
    </g>
    <g id="xtick_16">
     <g id="line2d_56">
      <g>
       <use style="stroke:#000000;stroke-width:0.5;" x="146.57812847" xlink:href="#maeb3c4a226" y="384.9"/>
      </g>
     </g>
     <g id="line2d_57">
      <g>
       <use style="stroke:#000000;stroke-width:0.5;" x="146.57812847" xlink:href="#m4ae805d6ac" y="22.4"/>
      </g>
     </g>
    </g>
    <g id="xtick_17">
     <g id="line2d_58">
      <g>
       <use style="stroke:#000000;stroke-width:0.5;" x="153.046083077" xlink:href="#maeb3c4a226" y="384.9"/>
      </g>
     </g>
     <g id="line2d_59">
      <g>
       <use style="stroke:#000000;stroke-width:0.5;" x="153.046083077" xlink:href="#m4ae805d6ac" y="22.4"/>
      </g>
     </g>
    </g>
    <g id="xtick_18">
     <g id="line2d_60">
      <g>
       <use style="stroke:#000000;stroke-width:0.5;" x="173.647043053" xlink:href="#maeb3c4a226" y="384.9"/>
      </g>
     </g>
     <g id="line2d_61">
      <g>
       <use style="stroke:#000000;stroke-width:0.5;" x="173.647043053" xlink:href="#m4ae805d6ac" y="22.4"/>
      </g>
     </g>
    </g>
    <g id="xtick_19">
     <g id="line2d_62">
      <g>
       <use style="stroke:#000000;stroke-width:0.5;" x="189.231067673" xlink:href="#maeb3c4a226" y="384.9"/>
      </g>
     </g>
     <g id="line2d_63">
      <g>
       <use style="stroke:#000000;stroke-width:0.5;" x="189.231067673" xlink:href="#m4ae805d6ac" y="22.4"/>
      </g>
     </g>
    </g>
    <g id="xtick_20">
     <g id="line2d_64">
      <g>
       <use style="stroke:#000000;stroke-width:0.5;" x="198.347137686" xlink:href="#maeb3c4a226" y="384.9"/>
      </g>
     </g>
     <g id="line2d_65">
      <g>
       <use style="stroke:#000000;stroke-width:0.5;" x="198.347137686" xlink:href="#m4ae805d6ac" y="22.4"/>
      </g>
     </g>
    </g>
    <g id="xtick_21">
     <g id="line2d_66">
      <g>
       <use style="stroke:#000000;stroke-width:0.5;" x="204.815092293" xlink:href="#maeb3c4a226" y="384.9"/>
      </g>
     </g>
     <g id="line2d_67">
      <g>
       <use style="stroke:#000000;stroke-width:0.5;" x="204.815092293" xlink:href="#m4ae805d6ac" y="22.4"/>
      </g>
     </g>
    </g>
    <g id="xtick_22">
     <g id="line2d_68">
      <g>
       <use style="stroke:#000000;stroke-width:0.5;" x="225.41605227" xlink:href="#maeb3c4a226" y="384.9"/>
      </g>
     </g>
     <g id="line2d_69">
      <g>
       <use style="stroke:#000000;stroke-width:0.5;" x="225.41605227" xlink:href="#m4ae805d6ac" y="22.4"/>
      </g>
     </g>
    </g>
    <g id="xtick_23">
     <g id="line2d_70">
      <g>
       <use style="stroke:#000000;stroke-width:0.5;" x="241.00007689" xlink:href="#maeb3c4a226" y="384.9"/>
      </g>
     </g>
     <g id="line2d_71">
      <g>
       <use style="stroke:#000000;stroke-width:0.5;" x="241.00007689" xlink:href="#m4ae805d6ac" y="22.4"/>
      </g>
     </g>
    </g>
    <g id="xtick_24">
     <g id="line2d_72">
      <g>
       <use style="stroke:#000000;stroke-width:0.5;" x="250.116146903" xlink:href="#maeb3c4a226" y="384.9"/>
      </g>
     </g>
     <g id="line2d_73">
      <g>
       <use style="stroke:#000000;stroke-width:0.5;" x="250.116146903" xlink:href="#m4ae805d6ac" y="22.4"/>
      </g>
     </g>
    </g>
    <g id="xtick_25">
     <g id="line2d_74">
      <g>
       <use style="stroke:#000000;stroke-width:0.5;" x="256.58410151" xlink:href="#maeb3c4a226" y="384.9"/>
      </g>
     </g>
     <g id="line2d_75">
      <g>
       <use style="stroke:#000000;stroke-width:0.5;" x="256.58410151" xlink:href="#m4ae805d6ac" y="22.4"/>
      </g>
     </g>
    </g>
    <g id="xtick_26">
     <g id="line2d_76">
      <g>
       <use style="stroke:#000000;stroke-width:0.5;" x="277.185061486" xlink:href="#maeb3c4a226" y="384.9"/>
      </g>
     </g>
     <g id="line2d_77">
      <g>
       <use style="stroke:#000000;stroke-width:0.5;" x="277.185061486" xlink:href="#m4ae805d6ac" y="22.4"/>
      </g>
     </g>
    </g>
    <g id="xtick_27">
     <g id="line2d_78">
      <g>
       <use style="stroke:#000000;stroke-width:0.5;" x="292.769086106" xlink:href="#maeb3c4a226" y="384.9"/>
      </g>
     </g>
     <g id="line2d_79">
      <g>
       <use style="stroke:#000000;stroke-width:0.5;" x="292.769086106" xlink:href="#m4ae805d6ac" y="22.4"/>
      </g>
     </g>
    </g>
    <g id="xtick_28">
     <g id="line2d_80">
      <g>
       <use style="stroke:#000000;stroke-width:0.5;" x="301.885156119" xlink:href="#maeb3c4a226" y="384.9"/>
      </g>
     </g>
     <g id="line2d_81">
      <g>
       <use style="stroke:#000000;stroke-width:0.5;" x="301.885156119" xlink:href="#m4ae805d6ac" y="22.4"/>
      </g>
     </g>
    </g>
    <g id="xtick_29">
     <g id="line2d_82">
      <g>
       <use style="stroke:#000000;stroke-width:0.5;" x="308.353110726" xlink:href="#maeb3c4a226" y="384.9"/>
      </g>
     </g>
     <g id="line2d_83">
      <g>
       <use style="stroke:#000000;stroke-width:0.5;" x="308.353110726" xlink:href="#m4ae805d6ac" y="22.4"/>
      </g>
     </g>
    </g>
    <g id="xtick_30">
     <g id="line2d_84">
      <g>
       <use style="stroke:#000000;stroke-width:0.5;" x="328.954070703" xlink:href="#maeb3c4a226" y="384.9"/>
      </g>
     </g>
     <g id="line2d_85">
      <g>
       <use style="stroke:#000000;stroke-width:0.5;" x="328.954070703" xlink:href="#m4ae805d6ac" y="22.4"/>
      </g>
     </g>
    </g>
    <g id="xtick_31">
     <g id="line2d_86">
      <g>
       <use style="stroke:#000000;stroke-width:0.5;" x="344.538095323" xlink:href="#maeb3c4a226" y="384.9"/>
      </g>
     </g>
     <g id="line2d_87">
      <g>
       <use style="stroke:#000000;stroke-width:0.5;" x="344.538095323" xlink:href="#m4ae805d6ac" y="22.4"/>
      </g>
     </g>
    </g>
    <g id="xtick_32">
     <g id="line2d_88">
      <g>
       <use style="stroke:#000000;stroke-width:0.5;" x="353.654165336" xlink:href="#maeb3c4a226" y="384.9"/>
      </g>
     </g>
     <g id="line2d_89">
      <g>
       <use style="stroke:#000000;stroke-width:0.5;" x="353.654165336" xlink:href="#m4ae805d6ac" y="22.4"/>
      </g>
     </g>
    </g>
    <g id="xtick_33">
     <g id="line2d_90">
      <g>
       <use style="stroke:#000000;stroke-width:0.5;" x="360.122119943" xlink:href="#maeb3c4a226" y="384.9"/>
      </g>
     </g>
     <g id="line2d_91">
      <g>
       <use style="stroke:#000000;stroke-width:0.5;" x="360.122119943" xlink:href="#m4ae805d6ac" y="22.4"/>
      </g>
     </g>
    </g>
    <g id="xtick_34">
     <g id="line2d_92">
      <g>
       <use style="stroke:#000000;stroke-width:0.5;" x="380.72307992" xlink:href="#maeb3c4a226" y="384.9"/>
      </g>
     </g>
     <g id="line2d_93">
      <g>
       <use style="stroke:#000000;stroke-width:0.5;" x="380.72307992" xlink:href="#m4ae805d6ac" y="22.4"/>
      </g>
     </g>
    </g>
    <g id="xtick_35">
     <g id="line2d_94">
      <g>
       <use style="stroke:#000000;stroke-width:0.5;" x="396.30710454" xlink:href="#maeb3c4a226" y="384.9"/>
      </g>
     </g>
     <g id="line2d_95">
      <g>
       <use style="stroke:#000000;stroke-width:0.5;" x="396.30710454" xlink:href="#m4ae805d6ac" y="22.4"/>
      </g>
     </g>
    </g>
    <g id="xtick_36">
     <g id="line2d_96">
      <g>
       <use style="stroke:#000000;stroke-width:0.5;" x="405.423174553" xlink:href="#maeb3c4a226" y="384.9"/>
      </g>
     </g>
     <g id="line2d_97">
      <g>
       <use style="stroke:#000000;stroke-width:0.5;" x="405.423174553" xlink:href="#m4ae805d6ac" y="22.4"/>
      </g>
     </g>
    </g>
    <g id="xtick_37">
     <g id="line2d_98">
      <g>
       <use style="stroke:#000000;stroke-width:0.5;" x="411.89112916" xlink:href="#maeb3c4a226" y="384.9"/>
      </g>
     </g>
     <g id="line2d_99">
      <g>
       <use style="stroke:#000000;stroke-width:0.5;" x="411.89112916" xlink:href="#m4ae805d6ac" y="22.4"/>
      </g>
     </g>
    </g>
    <g id="xtick_38">
     <g id="line2d_100">
      <g>
       <use style="stroke:#000000;stroke-width:0.5;" x="432.492089136" xlink:href="#maeb3c4a226" y="384.9"/>
      </g>
     </g>
     <g id="line2d_101">
      <g>
       <use style="stroke:#000000;stroke-width:0.5;" x="432.492089136" xlink:href="#m4ae805d6ac" y="22.4"/>
      </g>
     </g>
    </g>
    <g id="xtick_39">
     <g id="line2d_102">
      <g>
       <use style="stroke:#000000;stroke-width:0.5;" x="448.076113756" xlink:href="#maeb3c4a226" y="384.9"/>
      </g>
     </g>
     <g id="line2d_103">
      <g>
       <use style="stroke:#000000;stroke-width:0.5;" x="448.076113756" xlink:href="#m4ae805d6ac" y="22.4"/>
      </g>
     </g>
    </g>
    <g id="xtick_40">
     <g id="line2d_104">
      <g>
       <use style="stroke:#000000;stroke-width:0.5;" x="457.192183769" xlink:href="#maeb3c4a226" y="384.9"/>
      </g>
     </g>
     <g id="line2d_105">
      <g>
       <use style="stroke:#000000;stroke-width:0.5;" x="457.192183769" xlink:href="#m4ae805d6ac" y="22.4"/>
      </g>
     </g>
    </g>
    <g id="xtick_41">
     <g id="line2d_106">
      <g>
       <use style="stroke:#000000;stroke-width:0.5;" x="463.660138376" xlink:href="#maeb3c4a226" y="384.9"/>
      </g>
     </g>
     <g id="line2d_107">
      <g>
       <use style="stroke:#000000;stroke-width:0.5;" x="463.660138376" xlink:href="#m4ae805d6ac" y="22.4"/>
      </g>
     </g>
    </g>
    <g id="xtick_42">
     <g id="line2d_108">
      <g>
       <use style="stroke:#000000;stroke-width:0.5;" x="484.261098353" xlink:href="#maeb3c4a226" y="384.9"/>
      </g>
     </g>
     <g id="line2d_109">
      <g>
       <use style="stroke:#000000;stroke-width:0.5;" x="484.261098353" xlink:href="#m4ae805d6ac" y="22.4"/>
      </g>
     </g>
    </g>
    <g id="xtick_43">
     <g id="line2d_110">
      <g>
       <use style="stroke:#000000;stroke-width:0.5;" x="499.845122973" xlink:href="#maeb3c4a226" y="384.9"/>
      </g>
     </g>
     <g id="line2d_111">
      <g>
       <use style="stroke:#000000;stroke-width:0.5;" x="499.845122973" xlink:href="#m4ae805d6ac" y="22.4"/>
      </g>
     </g>
    </g>
    <g id="text_10">
     <!-- log10(# f-evals / dimension) -->
     <defs>
      <path id="BitstreamVeraSans-Roman-20"/>
      <path d="M 51.125 44 
L 36.921875 44 
L 32.8125 27.6875 
L 47.125 27.6875 
z
M 43.796875 71.78125 
L 38.71875 51.515625 
L 52.984375 51.515625 
L 58.109375 71.78125 
L 65.921875 71.78125 
L 60.890625 51.515625 
L 76.125 51.515625 
L 76.125 44 
L 58.984375 44 
L 54.984375 27.6875 
L 70.515625 27.6875 
L 70.515625 20.21875 
L 53.078125 20.21875 
L 48 0 
L 40.1875 0 
L 45.21875 20.21875 
L 30.90625 20.21875 
L 25.875 0 
L 18.015625 0 
L 23.09375 20.21875 
L 7.71875 20.21875 
L 7.71875 27.6875 
L 24.90625 27.6875 
L 29 44 
L 13.28125 44 
L 13.28125 51.515625 
L 30.90625 51.515625 
L 35.890625 71.78125 
z
" id="BitstreamVeraSans-Roman-23"/>
      <path d="M 52 44.1875 
Q 55.375 50.25 60.0625 53.125 
Q 64.75 56 71.09375 56 
Q 79.640625 56 84.28125 50.015625 
Q 88.921875 44.046875 88.921875 33.015625 
L 88.921875 0 
L 79.890625 0 
L 79.890625 32.71875 
Q 79.890625 40.578125 77.09375 44.375 
Q 74.3125 48.1875 68.609375 48.1875 
Q 61.625 48.1875 57.5625 43.546875 
Q 53.515625 38.921875 53.515625 30.90625 
L 53.515625 0 
L 44.484375 0 
L 44.484375 32.71875 
Q 44.484375 40.625 41.703125 44.40625 
Q 38.921875 48.1875 33.109375 48.1875 
Q 26.21875 48.1875 22.15625 43.53125 
Q 18.109375 38.875 18.109375 30.90625 
L 18.109375 0 
L 9.078125 0 
L 9.078125 54.6875 
L 18.109375 54.6875 
L 18.109375 46.1875 
Q 21.1875 51.21875 25.484375 53.609375 
Q 29.78125 56 35.6875 56 
Q 41.65625 56 45.828125 52.96875 
Q 50 49.953125 52 44.1875 
" id="BitstreamVeraSans-Roman-6d"/>
      <path d="M 54.890625 33.015625 
L 54.890625 0 
L 45.90625 0 
L 45.90625 32.71875 
Q 45.90625 40.484375 42.875 44.328125 
Q 39.84375 48.1875 33.796875 48.1875 
Q 26.515625 48.1875 22.3125 43.546875 
Q 18.109375 38.921875 18.109375 30.90625 
L 18.109375 0 
L 9.078125 0 
L 9.078125 54.6875 
L 18.109375 54.6875 
L 18.109375 46.1875 
Q 21.34375 51.125 25.703125 53.5625 
Q 30.078125 56 35.796875 56 
Q 45.21875 56 50.046875 50.171875 
Q 54.890625 44.34375 54.890625 33.015625 
" id="BitstreamVeraSans-Roman-6e"/>
      <path d="M 31 75.875 
Q 24.46875 64.65625 21.28125 53.65625 
Q 18.109375 42.671875 18.109375 31.390625 
Q 18.109375 20.125 21.3125 9.0625 
Q 24.515625 -2 31 -13.1875 
L 23.1875 -13.1875 
Q 15.875 -1.703125 12.234375 9.375 
Q 8.59375 20.453125 8.59375 31.390625 
Q 8.59375 42.28125 12.203125 53.3125 
Q 15.828125 64.359375 23.1875 75.875 
z
" id="BitstreamVeraSans-Roman-28"/>
      <path d="M 30.609375 48.390625 
Q 23.390625 48.390625 19.1875 42.75 
Q 14.984375 37.109375 14.984375 27.296875 
Q 14.984375 17.484375 19.15625 11.84375 
Q 23.34375 6.203125 30.609375 6.203125 
Q 37.796875 6.203125 41.984375 11.859375 
Q 46.1875 17.53125 46.1875 27.296875 
Q 46.1875 37.015625 41.984375 42.703125 
Q 37.796875 48.390625 30.609375 48.390625 
M 30.609375 56 
Q 42.328125 56 49.015625 48.375 
Q 55.71875 40.765625 55.71875 27.296875 
Q 55.71875 13.875 49.015625 6.21875 
Q 42.328125 -1.421875 30.609375 -1.421875 
Q 18.84375 -1.421875 12.171875 6.21875 
Q 5.515625 13.875 5.515625 27.296875 
Q 5.515625 40.765625 12.171875 48.375 
Q 18.84375 56 30.609375 56 
" id="BitstreamVeraSans-Roman-6f"/>
      <path d="M 9.421875 75.984375 
L 18.40625 75.984375 
L 18.40625 0 
L 9.421875 0 
z
" id="BitstreamVeraSans-Roman-6c"/>
      <path d="M 2.984375 54.6875 
L 12.5 54.6875 
L 29.59375 8.796875 
L 46.6875 54.6875 
L 56.203125 54.6875 
L 35.6875 0 
L 23.484375 0 
z
" id="BitstreamVeraSans-Roman-76"/>
      <path d="M 9.421875 54.6875 
L 18.40625 54.6875 
L 18.40625 0 
L 9.421875 0 
z
M 9.421875 75.984375 
L 18.40625 75.984375 
L 18.40625 64.59375 
L 9.421875 64.59375 
z
" id="BitstreamVeraSans-Roman-69"/>
      <path d="M 4.890625 31.390625 
L 31.203125 31.390625 
L 31.203125 23.390625 
L 4.890625 23.390625 
z
" id="BitstreamVeraSans-Roman-2d"/>
      <path d="M 25.390625 72.90625 
L 33.6875 72.90625 
L 8.296875 -9.28125 
L 0 -9.28125 
z
" id="BitstreamVeraSans-Roman-2f"/>
      <path d="M 56.203125 29.59375 
L 56.203125 25.203125 
L 14.890625 25.203125 
Q 15.484375 15.921875 20.484375 11.0625 
Q 25.484375 6.203125 34.421875 6.203125 
Q 39.59375 6.203125 44.453125 7.46875 
Q 49.3125 8.734375 54.109375 11.28125 
L 54.109375 2.78125 
Q 49.265625 0.734375 44.1875 -0.34375 
Q 39.109375 -1.421875 33.890625 -1.421875 
Q 20.796875 -1.421875 13.15625 6.1875 
Q 5.515625 13.8125 5.515625 26.8125 
Q 5.515625 40.234375 12.765625 48.109375 
Q 20.015625 56 32.328125 56 
Q 43.359375 56 49.78125 48.890625 
Q 56.203125 41.796875 56.203125 29.59375 
M 47.21875 32.234375 
Q 47.125 39.59375 43.09375 43.984375 
Q 39.0625 48.390625 32.421875 48.390625 
Q 24.90625 48.390625 20.390625 44.140625 
Q 15.875 39.890625 15.1875 32.171875 
z
" id="BitstreamVeraSans-Roman-65"/>
      <path d="M 45.40625 46.390625 
L 45.40625 75.984375 
L 54.390625 75.984375 
L 54.390625 0 
L 45.40625 0 
L 45.40625 8.203125 
Q 42.578125 3.328125 38.25 0.953125 
Q 33.9375 -1.421875 27.875 -1.421875 
Q 17.96875 -1.421875 11.734375 6.484375 
Q 5.515625 14.40625 5.515625 27.296875 
Q 5.515625 40.1875 11.734375 48.09375 
Q 17.96875 56 27.875 56 
Q 33.9375 56 38.25 53.625 
Q 42.578125 51.265625 45.40625 46.390625 
M 14.796875 27.296875 
Q 14.796875 17.390625 18.875 11.75 
Q 22.953125 6.109375 30.078125 6.109375 
Q 37.203125 6.109375 41.296875 11.75 
Q 45.40625 17.390625 45.40625 27.296875 
Q 45.40625 37.203125 41.296875 42.84375 
Q 37.203125 48.484375 30.078125 48.484375 
Q 22.953125 48.484375 18.875 42.84375 
Q 14.796875 37.203125 14.796875 27.296875 
" id="BitstreamVeraSans-Roman-64"/>
      <path d="M 45.40625 27.984375 
Q 45.40625 37.75 41.375 43.109375 
Q 37.359375 48.484375 30.078125 48.484375 
Q 22.859375 48.484375 18.828125 43.109375 
Q 14.796875 37.75 14.796875 27.984375 
Q 14.796875 18.265625 18.828125 12.890625 
Q 22.859375 7.515625 30.078125 7.515625 
Q 37.359375 7.515625 41.375 12.890625 
Q 45.40625 18.265625 45.40625 27.984375 
M 54.390625 6.78125 
Q 54.390625 -7.171875 48.1875 -13.984375 
Q 42 -20.796875 29.203125 -20.796875 
Q 24.46875 -20.796875 20.265625 -20.09375 
Q 16.0625 -19.390625 12.109375 -17.921875 
L 12.109375 -9.1875 
Q 16.0625 -11.328125 19.921875 -12.34375 
Q 23.78125 -13.375 27.78125 -13.375 
Q 36.625 -13.375 41.015625 -8.765625 
Q 45.40625 -4.15625 45.40625 5.171875 
L 45.40625 9.625 
Q 42.625 4.78125 38.28125 2.390625 
Q 33.9375 0 27.875 0 
Q 17.828125 0 11.671875 7.65625 
Q 5.515625 15.328125 5.515625 27.984375 
Q 5.515625 40.671875 11.671875 48.328125 
Q 17.828125 56 27.875 56 
Q 33.9375 56 38.28125 53.609375 
Q 42.625 51.21875 45.40625 46.390625 
L 45.40625 54.6875 
L 54.390625 54.6875 
z
" id="BitstreamVeraSans-Roman-67"/>
      <path d="M 37.109375 75.984375 
L 37.109375 68.5 
L 28.515625 68.5 
Q 23.6875 68.5 21.796875 66.546875 
Q 19.921875 64.59375 19.921875 59.515625 
L 19.921875 54.6875 
L 34.71875 54.6875 
L 34.71875 47.703125 
L 19.921875 47.703125 
L 19.921875 0 
L 10.890625 0 
L 10.890625 47.703125 
L 2.296875 47.703125 
L 2.296875 54.6875 
L 10.890625 54.6875 
L 10.890625 58.5 
Q 10.890625 67.625 15.140625 71.796875 
Q 19.390625 75.984375 28.609375 75.984375 
z
" id="BitstreamVeraSans-Roman-66"/>
      <path d="M 34.28125 27.484375 
Q 23.390625 27.484375 19.1875 25 
Q 14.984375 22.515625 14.984375 16.5 
Q 14.984375 11.71875 18.140625 8.90625 
Q 21.296875 6.109375 26.703125 6.109375 
Q 34.1875 6.109375 38.703125 11.40625 
Q 43.21875 16.703125 43.21875 25.484375 
L 43.21875 27.484375 
z
M 52.203125 31.203125 
L 52.203125 0 
L 43.21875 0 
L 43.21875 8.296875 
Q 40.140625 3.328125 35.546875 0.953125 
Q 30.953125 -1.421875 24.3125 -1.421875 
Q 15.921875 -1.421875 10.953125 3.296875 
Q 6 8.015625 6 15.921875 
Q 6 25.140625 12.171875 29.828125 
Q 18.359375 34.515625 30.609375 34.515625 
L 43.21875 34.515625 
L 43.21875 35.40625 
Q 43.21875 41.609375 39.140625 45 
Q 35.0625 48.390625 27.6875 48.390625 
Q 23 48.390625 18.546875 47.265625 
Q 14.109375 46.140625 10.015625 43.890625 
L 10.015625 52.203125 
Q 14.9375 54.109375 19.578125 55.046875 
Q 24.21875 56 28.609375 56 
Q 40.484375 56 46.34375 49.84375 
Q 52.203125 43.703125 52.203125 31.203125 
" id="BitstreamVeraSans-Roman-61"/>
      <path d="M 44.28125 53.078125 
L 44.28125 44.578125 
Q 40.484375 46.53125 36.375 47.5 
Q 32.28125 48.484375 27.875 48.484375 
Q 21.1875 48.484375 17.84375 46.4375 
Q 14.5 44.390625 14.5 40.28125 
Q 14.5 37.15625 16.890625 35.375 
Q 19.28125 33.59375 26.515625 31.984375 
L 29.59375 31.296875 
Q 39.15625 29.25 43.1875 25.515625 
Q 47.21875 21.78125 47.21875 15.09375 
Q 47.21875 7.46875 41.1875 3.015625 
Q 35.15625 -1.421875 24.609375 -1.421875 
Q 20.21875 -1.421875 15.453125 -0.5625 
Q 10.6875 0.296875 5.421875 2 
L 5.421875 11.28125 
Q 10.40625 8.6875 15.234375 7.390625 
Q 20.0625 6.109375 24.8125 6.109375 
Q 31.15625 6.109375 34.5625 8.28125 
Q 37.984375 10.453125 37.984375 14.40625 
Q 37.984375 18.0625 35.515625 20.015625 
Q 33.0625 21.96875 24.703125 23.78125 
L 21.578125 24.515625 
Q 13.234375 26.265625 9.515625 29.90625 
Q 5.8125 33.546875 5.8125 39.890625 
Q 5.8125 47.609375 11.28125 51.796875 
Q 16.75 56 26.8125 56 
Q 31.78125 56 36.171875 55.265625 
Q 40.578125 54.546875 44.28125 53.078125 
" id="BitstreamVeraSans-Roman-73"/>
      <path d="M 8.015625 75.875 
L 15.828125 75.875 
Q 23.140625 64.359375 26.78125 53.3125 
Q 30.421875 42.28125 30.421875 31.390625 
Q 30.421875 20.453125 26.78125 9.375 
Q 23.140625 -1.703125 15.828125 -13.1875 
L 8.015625 -13.1875 
Q 14.5 -2 17.703125 9.0625 
Q 20.90625 20.125 20.90625 31.390625 
Q 20.90625 42.671875 17.703125 53.65625 
Q 14.5 64.65625 8.015625 75.875 
" id="BitstreamVeraSans-Roman-29"/>
     </defs>
     <g transform="translate(158.36171875 426.17359375)scale(0.17 -0.17)">
      <use xlink:href="#BitstreamVeraSans-Roman-6c"/>
      <use x="27.783203125" xlink:href="#BitstreamVeraSans-Roman-6f"/>
      <use x="88.96484375" xlink:href="#BitstreamVeraSans-Roman-67"/>
      <use x="152.44140625" xlink:href="#BitstreamVeraSans-Roman-31"/>
      <use x="216.064453125" xlink:href="#BitstreamVeraSans-Roman-30"/>
      <use x="279.6875" xlink:href="#BitstreamVeraSans-Roman-28"/>
      <use x="318.701171875" xlink:href="#BitstreamVeraSans-Roman-23"/>
      <use x="402.490234375" xlink:href="#BitstreamVeraSans-Roman-20"/>
      <use x="434.27734375" xlink:href="#BitstreamVeraSans-Roman-66"/>
      <use x="469.404296875" xlink:href="#BitstreamVeraSans-Roman-2d"/>
      <use x="505.48828125" xlink:href="#BitstreamVeraSans-Roman-65"/>
      <use x="567.01171875" xlink:href="#BitstreamVeraSans-Roman-76"/>
      <use x="626.19140625" xlink:href="#BitstreamVeraSans-Roman-61"/>
      <use x="687.470703125" xlink:href="#BitstreamVeraSans-Roman-6c"/>
      <use x="715.25390625" xlink:href="#BitstreamVeraSans-Roman-73"/>
      <use x="767.353515625" xlink:href="#BitstreamVeraSans-Roman-20"/>
      <use x="799.140625" xlink:href="#BitstreamVeraSans-Roman-2f"/>
      <use x="832.83203125" xlink:href="#BitstreamVeraSans-Roman-20"/>
      <use x="864.619140625" xlink:href="#BitstreamVeraSans-Roman-64"/>
      <use x="928.095703125" xlink:href="#BitstreamVeraSans-Roman-69"/>
      <use x="955.87890625" xlink:href="#BitstreamVeraSans-Roman-6d"/>
      <use x="1053.29101562" xlink:href="#BitstreamVeraSans-Roman-65"/>
      <use x="1114.81445312" xlink:href="#BitstreamVeraSans-Roman-6e"/>
      <use x="1178.19335938" xlink:href="#BitstreamVeraSans-Roman-73"/>
      <use x="1230.29296875" xlink:href="#BitstreamVeraSans-Roman-69"/>
      <use x="1258.07617188" xlink:href="#BitstreamVeraSans-Roman-6f"/>
      <use x="1319.2578125" xlink:href="#BitstreamVeraSans-Roman-6e"/>
      <use x="1382.63671875" xlink:href="#BitstreamVeraSans-Roman-29"/>
     </g>
    </g>
   </g>
   <g id="matplotlib.axis_2">
    <g id="ytick_1">
     <g id="line2d_112">
      <path clip-path="url(#p43584f6049)" d="M 54.525 384.9 
L 503.88 384.9 
" style="fill:none;stroke:#000000;stroke-dasharray:1.000000,3.000000;stroke-dashoffset:0.0;stroke-width:0.5;"/>
     </g>
     <g id="line2d_113">
      <defs>
       <path d="M 0 0 
L 4 0 
" id="mec02c248c9" style="stroke:#000000;stroke-width:0.5;"/>
      </defs>
      <g>
       <use style="stroke:#000000;stroke-width:0.5;" x="54.525" xlink:href="#mec02c248c9" y="384.9"/>
      </g>
     </g>
     <g id="line2d_114">
      <defs>
       <path d="M 0 0 
L -4 0 
" id="m5d81772b81" style="stroke:#000000;stroke-width:0.5;"/>
      </defs>
      <g>
       <use style="stroke:#000000;stroke-width:0.5;" x="503.88" xlink:href="#m5d81772b81" y="384.9"/>
      </g>
     </g>
     <g id="text_11">
      <!-- 0.0 -->
      <defs>
       <path d="M 10.6875 12.40625 
L 21 12.40625 
L 21 0 
L 10.6875 0 
z
" id="BitstreamVeraSans-Roman-2e"/>
      </defs>
      <g transform="translate(25.08 389.315)scale(0.16 -0.16)">
       <use xlink:href="#BitstreamVeraSans-Roman-30"/>
       <use x="63.623046875" xlink:href="#BitstreamVeraSans-Roman-2e"/>
       <use x="95.41015625" xlink:href="#BitstreamVeraSans-Roman-30"/>
      </g>
     </g>
    </g>
    <g id="ytick_2">
     <g id="line2d_115">
      <path clip-path="url(#p43584f6049)" d="M 54.525 313.117822 
L 503.88 313.117822 
" style="fill:none;stroke:#000000;stroke-dasharray:1.000000,3.000000;stroke-dashoffset:0.0;stroke-width:0.5;"/>
     </g>
     <g id="line2d_116">
      <g>
       <use style="stroke:#000000;stroke-width:0.5;" x="54.525" xlink:href="#mec02c248c9" y="313.117821782"/>
      </g>
     </g>
     <g id="line2d_117">
      <g>
       <use style="stroke:#000000;stroke-width:0.5;" x="503.88" xlink:href="#m5d81772b81" y="313.117821782"/>
      </g>
     </g>
     <g id="text_12">
      <!-- 0.2 -->
      <g transform="translate(25.08 317.532821782)scale(0.16 -0.16)">
       <use xlink:href="#BitstreamVeraSans-Roman-30"/>
       <use x="63.623046875" xlink:href="#BitstreamVeraSans-Roman-2e"/>
       <use x="95.41015625" xlink:href="#BitstreamVeraSans-Roman-32"/>
      </g>
     </g>
    </g>
    <g id="ytick_3">
     <g id="line2d_118">
      <path clip-path="url(#p43584f6049)" d="M 54.525 241.335644 
L 503.88 241.335644 
" style="fill:none;stroke:#000000;stroke-dasharray:1.000000,3.000000;stroke-dashoffset:0.0;stroke-width:0.5;"/>
     </g>
     <g id="line2d_119">
      <g>
       <use style="stroke:#000000;stroke-width:0.5;" x="54.525" xlink:href="#mec02c248c9" y="241.335643564"/>
      </g>
     </g>
     <g id="line2d_120">
      <g>
       <use style="stroke:#000000;stroke-width:0.5;" x="503.88" xlink:href="#m5d81772b81" y="241.335643564"/>
      </g>
     </g>
     <g id="text_13">
      <!-- 0.4 -->
      <g transform="translate(25.08 245.750643564)scale(0.16 -0.16)">
       <use xlink:href="#BitstreamVeraSans-Roman-30"/>
       <use x="63.623046875" xlink:href="#BitstreamVeraSans-Roman-2e"/>
       <use x="95.41015625" xlink:href="#BitstreamVeraSans-Roman-34"/>
      </g>
     </g>
    </g>
    <g id="ytick_4">
     <g id="line2d_121">
      <path clip-path="url(#p43584f6049)" d="M 54.525 169.553465 
L 503.88 169.553465 
" style="fill:none;stroke:#000000;stroke-dasharray:1.000000,3.000000;stroke-dashoffset:0.0;stroke-width:0.5;"/>
     </g>
     <g id="line2d_122">
      <g>
       <use style="stroke:#000000;stroke-width:0.5;" x="54.525" xlink:href="#mec02c248c9" y="169.553465347"/>
      </g>
     </g>
     <g id="line2d_123">
      <g>
       <use style="stroke:#000000;stroke-width:0.5;" x="503.88" xlink:href="#m5d81772b81" y="169.553465347"/>
      </g>
     </g>
     <g id="text_14">
      <!-- 0.6 -->
      <g transform="translate(25.08 173.968465347)scale(0.16 -0.16)">
       <use xlink:href="#BitstreamVeraSans-Roman-30"/>
       <use x="63.623046875" xlink:href="#BitstreamVeraSans-Roman-2e"/>
       <use x="95.41015625" xlink:href="#BitstreamVeraSans-Roman-36"/>
      </g>
     </g>
    </g>
    <g id="ytick_5">
     <g id="line2d_124">
      <path clip-path="url(#p43584f6049)" d="M 54.525 97.771287 
L 503.88 97.771287 
" style="fill:none;stroke:#000000;stroke-dasharray:1.000000,3.000000;stroke-dashoffset:0.0;stroke-width:0.5;"/>
     </g>
     <g id="line2d_125">
      <g>
       <use style="stroke:#000000;stroke-width:0.5;" x="54.525" xlink:href="#mec02c248c9" y="97.7712871287"/>
      </g>
     </g>
     <g id="line2d_126">
      <g>
       <use style="stroke:#000000;stroke-width:0.5;" x="503.88" xlink:href="#m5d81772b81" y="97.7712871287"/>
      </g>
     </g>
     <g id="text_15">
      <!-- 0.8 -->
      <g transform="translate(25.08 102.186287129)scale(0.16 -0.16)">
       <use xlink:href="#BitstreamVeraSans-Roman-30"/>
       <use x="63.623046875" xlink:href="#BitstreamVeraSans-Roman-2e"/>
       <use x="95.41015625" xlink:href="#BitstreamVeraSans-Roman-38"/>
      </g>
     </g>
    </g>
    <g id="ytick_6">
     <g id="line2d_127">
      <path clip-path="url(#p43584f6049)" d="M 54.525 25.989109 
L 503.88 25.989109 
" style="fill:none;stroke:#000000;stroke-dasharray:1.000000,3.000000;stroke-dashoffset:0.0;stroke-width:0.5;"/>
     </g>
     <g id="line2d_128">
      <g>
       <use style="stroke:#000000;stroke-width:0.5;" x="54.525" xlink:href="#mec02c248c9" y="25.9891089109"/>
      </g>
     </g>
     <g id="line2d_129">
      <g>
       <use style="stroke:#000000;stroke-width:0.5;" x="503.88" xlink:href="#m5d81772b81" y="25.9891089109"/>
      </g>
     </g>
     <g id="text_16">
      <!-- 1.0 -->
      <g transform="translate(25.08 30.4041089109)scale(0.16 -0.16)">
       <use xlink:href="#BitstreamVeraSans-Roman-31"/>
       <use x="63.623046875" xlink:href="#BitstreamVeraSans-Roman-2e"/>
       <use x="95.41015625" xlink:href="#BitstreamVeraSans-Roman-30"/>
      </g>
     </g>
    </g>
    <g id="text_17">
     <!-- Fraction of function,target pairs -->
     <defs>
      <path d="M 9.8125 72.90625 
L 51.703125 72.90625 
L 51.703125 64.59375 
L 19.671875 64.59375 
L 19.671875 43.109375 
L 48.578125 43.109375 
L 48.578125 34.8125 
L 19.671875 34.8125 
L 19.671875 0 
L 9.8125 0 
z
" id="BitstreamVeraSans-Roman-46"/>
      <path d="M 11.71875 12.40625 
L 22.015625 12.40625 
L 22.015625 4 
L 14.015625 -11.625 
L 7.71875 -11.625 
L 11.71875 4 
z
" id="BitstreamVeraSans-Roman-2c"/>
      <path d="M 18.109375 8.203125 
L 18.109375 -20.796875 
L 9.078125 -20.796875 
L 9.078125 54.6875 
L 18.109375 54.6875 
L 18.109375 46.390625 
Q 20.953125 51.265625 25.265625 53.625 
Q 29.59375 56 35.59375 56 
Q 45.5625 56 51.78125 48.09375 
Q 58.015625 40.1875 58.015625 27.296875 
Q 58.015625 14.40625 51.78125 6.484375 
Q 45.5625 -1.421875 35.59375 -1.421875 
Q 29.59375 -1.421875 25.265625 0.953125 
Q 20.953125 3.328125 18.109375 8.203125 
M 48.6875 27.296875 
Q 48.6875 37.203125 44.609375 42.84375 
Q 40.53125 48.484375 33.40625 48.484375 
Q 26.265625 48.484375 22.1875 42.84375 
Q 18.109375 37.203125 18.109375 27.296875 
Q 18.109375 17.390625 22.1875 11.75 
Q 26.265625 6.109375 33.40625 6.109375 
Q 40.53125 6.109375 44.609375 11.75 
Q 48.6875 17.390625 48.6875 27.296875 
" id="BitstreamVeraSans-Roman-70"/>
      <path d="M 18.3125 70.21875 
L 18.3125 54.6875 
L 36.8125 54.6875 
L 36.8125 47.703125 
L 18.3125 47.703125 
L 18.3125 18.015625 
Q 18.3125 11.328125 20.140625 9.421875 
Q 21.96875 7.515625 27.59375 7.515625 
L 36.8125 7.515625 
L 36.8125 0 
L 27.59375 0 
Q 17.1875 0 13.234375 3.875 
Q 9.28125 7.765625 9.28125 18.015625 
L 9.28125 47.703125 
L 2.6875 47.703125 
L 2.6875 54.6875 
L 9.28125 54.6875 
L 9.28125 70.21875 
z
" id="BitstreamVeraSans-Roman-74"/>
      <path d="M 8.5 21.578125 
L 8.5 54.6875 
L 17.484375 54.6875 
L 17.484375 21.921875 
Q 17.484375 14.15625 20.5 10.265625 
Q 23.53125 6.390625 29.59375 6.390625 
Q 36.859375 6.390625 41.078125 11.03125 
Q 45.3125 15.671875 45.3125 23.6875 
L 45.3125 54.6875 
L 54.296875 54.6875 
L 54.296875 0 
L 45.3125 0 
L 45.3125 8.40625 
Q 42.046875 3.421875 37.71875 1 
Q 33.40625 -1.421875 27.6875 -1.421875 
Q 18.265625 -1.421875 13.375 4.4375 
Q 8.5 10.296875 8.5 21.578125 
" id="BitstreamVeraSans-Roman-75"/>
      <path d="M 41.109375 46.296875 
Q 39.59375 47.171875 37.8125 47.578125 
Q 36.03125 48 33.890625 48 
Q 26.265625 48 22.1875 43.046875 
Q 18.109375 38.09375 18.109375 28.8125 
L 18.109375 0 
L 9.078125 0 
L 9.078125 54.6875 
L 18.109375 54.6875 
L 18.109375 46.1875 
Q 20.953125 51.171875 25.484375 53.578125 
Q 30.03125 56 36.53125 56 
Q 37.453125 56 38.578125 55.875 
Q 39.703125 55.765625 41.0625 55.515625 
z
" id="BitstreamVeraSans-Roman-72"/>
      <path d="M 48.78125 52.59375 
L 48.78125 44.1875 
Q 44.96875 46.296875 41.140625 47.34375 
Q 37.3125 48.390625 33.40625 48.390625 
Q 24.65625 48.390625 19.8125 42.84375 
Q 14.984375 37.3125 14.984375 27.296875 
Q 14.984375 17.28125 19.8125 11.734375 
Q 24.65625 6.203125 33.40625 6.203125 
Q 37.3125 6.203125 41.140625 7.25 
Q 44.96875 8.296875 48.78125 10.40625 
L 48.78125 2.09375 
Q 45.015625 0.34375 40.984375 -0.53125 
Q 36.96875 -1.421875 32.421875 -1.421875 
Q 20.0625 -1.421875 12.78125 6.34375 
Q 5.515625 14.109375 5.515625 27.296875 
Q 5.515625 40.671875 12.859375 48.328125 
Q 20.21875 56 33.015625 56 
Q 37.15625 56 41.109375 55.140625 
Q 45.0625 54.296875 48.78125 52.59375 
" id="BitstreamVeraSans-Roman-63"/>
     </defs>
     <g transform="translate(16.54453125 338.789375)rotate(-90.0)scale(0.17 -0.17)">
      <use xlink:href="#BitstreamVeraSans-Roman-46"/>
      <use x="57.41015625" xlink:href="#BitstreamVeraSans-Roman-72"/>
      <use x="98.5234375" xlink:href="#BitstreamVeraSans-Roman-61"/>
      <use x="159.802734375" xlink:href="#BitstreamVeraSans-Roman-63"/>
      <use x="214.783203125" xlink:href="#BitstreamVeraSans-Roman-74"/>
      <use x="253.9921875" xlink:href="#BitstreamVeraSans-Roman-69"/>
      <use x="281.775390625" xlink:href="#BitstreamVeraSans-Roman-6f"/>
      <use x="342.95703125" xlink:href="#BitstreamVeraSans-Roman-6e"/>
      <use x="406.3359375" xlink:href="#BitstreamVeraSans-Roman-20"/>
      <use x="438.123046875" xlink:href="#BitstreamVeraSans-Roman-6f"/>
      <use x="499.3046875" xlink:href="#BitstreamVeraSans-Roman-66"/>
      <use x="534.509765625" xlink:href="#BitstreamVeraSans-Roman-20"/>
      <use x="566.296875" xlink:href="#BitstreamVeraSans-Roman-66"/>
      <use x="601.501953125" xlink:href="#BitstreamVeraSans-Roman-75"/>
      <use x="664.880859375" xlink:href="#BitstreamVeraSans-Roman-6e"/>
      <use x="728.259765625" xlink:href="#BitstreamVeraSans-Roman-63"/>
      <use x="783.240234375" xlink:href="#BitstreamVeraSans-Roman-74"/>
      <use x="822.44921875" xlink:href="#BitstreamVeraSans-Roman-69"/>
      <use x="850.232421875" xlink:href="#BitstreamVeraSans-Roman-6f"/>
      <use x="911.4140625" xlink:href="#BitstreamVeraSans-Roman-6e"/>
      <use x="974.79296875" xlink:href="#BitstreamVeraSans-Roman-2c"/>
      <use x="1006.58007812" xlink:href="#BitstreamVeraSans-Roman-74"/>
      <use x="1045.7890625" xlink:href="#BitstreamVeraSans-Roman-61"/>
      <use x="1107.06835938" xlink:href="#BitstreamVeraSans-Roman-72"/>
      <use x="1148.16601562" xlink:href="#BitstreamVeraSans-Roman-67"/>
      <use x="1211.64257812" xlink:href="#BitstreamVeraSans-Roman-65"/>
      <use x="1273.16601562" xlink:href="#BitstreamVeraSans-Roman-74"/>
      <use x="1312.375" xlink:href="#BitstreamVeraSans-Roman-20"/>
      <use x="1344.16210938" xlink:href="#BitstreamVeraSans-Roman-70"/>
      <use x="1407.63867188" xlink:href="#BitstreamVeraSans-Roman-61"/>
      <use x="1468.91796875" xlink:href="#BitstreamVeraSans-Roman-69"/>
      <use x="1496.70117188" xlink:href="#BitstreamVeraSans-Roman-72"/>
      <use x="1537.81445312" xlink:href="#BitstreamVeraSans-Roman-73"/>
     </g>
    </g>
   </g>
   <g id="text_18">
    <!-- AdapSS3 -->
    <defs>
     <path d="M 53.515625 70.515625 
L 53.515625 60.890625 
Q 47.90625 63.578125 42.921875 64.890625 
Q 37.9375 66.21875 33.296875 66.21875 
Q 25.25 66.21875 20.875 63.09375 
Q 16.5 59.96875 16.5 54.203125 
Q 16.5 49.359375 19.40625 46.890625 
Q 22.3125 44.4375 30.421875 42.921875 
L 36.375 41.703125 
Q 47.40625 39.59375 52.65625 34.296875 
Q 57.90625 29 57.90625 20.125 
Q 57.90625 9.515625 50.796875 4.046875 
Q 43.703125 -1.421875 29.984375 -1.421875 
Q 24.8125 -1.421875 18.96875 -0.25 
Q 13.140625 0.921875 6.890625 3.21875 
L 6.890625 13.375 
Q 12.890625 10.015625 18.65625 8.296875 
Q 24.421875 6.59375 29.984375 6.59375 
Q 38.421875 6.59375 43.015625 9.90625 
Q 47.609375 13.234375 47.609375 19.390625 
Q 47.609375 24.75 44.3125 27.78125 
Q 41.015625 30.8125 33.5 32.328125 
L 27.484375 33.5 
Q 16.453125 35.6875 11.515625 40.375 
Q 6.59375 45.0625 6.59375 53.421875 
Q 6.59375 63.09375 13.40625 68.65625 
Q 20.21875 74.21875 32.171875 74.21875 
Q 37.3125 74.21875 42.625 73.28125 
Q 47.953125 72.359375 53.515625 70.515625 
" id="BitstreamVeraSans-Roman-53"/>
     <path d="M 34.1875 63.1875 
L 20.796875 26.90625 
L 47.609375 26.90625 
z
M 28.609375 72.90625 
L 39.796875 72.90625 
L 67.578125 0 
L 57.328125 0 
L 50.6875 18.703125 
L 17.828125 18.703125 
L 11.1875 0 
L 0.78125 0 
z
" id="BitstreamVeraSans-Roman-41"/>
    </defs>
    <g transform="translate(464.017862903 382.412719678)scale(0.17 -0.17)">
     <use xlink:href="#BitstreamVeraSans-Roman-41"/>
     <use x="68.392578125" xlink:href="#BitstreamVeraSans-Roman-64"/>
     <use x="131.869140625" xlink:href="#BitstreamVeraSans-Roman-61"/>
     <use x="193.1484375" xlink:href="#BitstreamVeraSans-Roman-70"/>
     <use x="256.625" xlink:href="#BitstreamVeraSans-Roman-53"/>
     <use x="320.1015625" xlink:href="#BitstreamVeraSans-Roman-53"/>
     <use x="383.578125" xlink:href="#BitstreamVeraSans-Roman-33"/>
    </g>
   </g>
   <g id="text_19">
    <!-- FAUC3 -->
    <defs>
     <path d="M 64.40625 67.28125 
L 64.40625 56.890625 
Q 59.421875 61.53125 53.78125 63.8125 
Q 48.140625 66.109375 41.796875 66.109375 
Q 29.296875 66.109375 22.65625 58.46875 
Q 16.015625 50.828125 16.015625 36.375 
Q 16.015625 21.96875 22.65625 14.328125 
Q 29.296875 6.6875 41.796875 6.6875 
Q 48.140625 6.6875 53.78125 8.984375 
Q 59.421875 11.28125 64.40625 15.921875 
L 64.40625 5.609375 
Q 59.234375 2.09375 53.4375 0.328125 
Q 47.65625 -1.421875 41.21875 -1.421875 
Q 24.65625 -1.421875 15.125 8.703125 
Q 5.609375 18.84375 5.609375 36.375 
Q 5.609375 53.953125 15.125 64.078125 
Q 24.65625 74.21875 41.21875 74.21875 
Q 47.75 74.21875 53.53125 72.484375 
Q 59.328125 70.75 64.40625 67.28125 
" id="BitstreamVeraSans-Roman-43"/>
     <path d="M 8.6875 72.90625 
L 18.609375 72.90625 
L 18.609375 28.609375 
Q 18.609375 16.890625 22.84375 11.734375 
Q 27.09375 6.59375 36.625 6.59375 
Q 46.09375 6.59375 50.34375 11.734375 
Q 54.59375 16.890625 54.59375 28.609375 
L 54.59375 72.90625 
L 64.5 72.90625 
L 64.5 27.390625 
Q 64.5 13.140625 57.4375 5.859375 
Q 50.390625 -1.421875 36.625 -1.421875 
Q 22.796875 -1.421875 15.734375 5.859375 
Q 8.6875 13.140625 8.6875 27.390625 
z
" id="BitstreamVeraSans-Roman-55"/>
    </defs>
    <g transform="translate(464.017862903 210.135491955)scale(0.17 -0.17)">
     <use xlink:href="#BitstreamVeraSans-Roman-46"/>
     <use x="57.37890625" xlink:href="#BitstreamVeraSans-Roman-41"/>
     <use x="125.787109375" xlink:href="#BitstreamVeraSans-Roman-55"/>
     <use x="198.98046875" xlink:href="#BitstreamVeraSans-Roman-43"/>
     <use x="268.8046875" xlink:href="#BitstreamVeraSans-Roman-33"/>
    </g>
   </g>
   <g id="text_20">
    <!-- best 2009 -->
    <defs>
     <path d="M 10.984375 1.515625 
L 10.984375 10.5 
Q 14.703125 8.734375 18.5 7.8125 
Q 22.3125 6.890625 25.984375 6.890625 
Q 35.75 6.890625 40.890625 13.453125 
Q 46.046875 20.015625 46.78125 33.40625 
Q 43.953125 29.203125 39.59375 26.953125 
Q 35.25 24.703125 29.984375 24.703125 
Q 19.046875 24.703125 12.671875 31.3125 
Q 6.296875 37.9375 6.296875 49.421875 
Q 6.296875 60.640625 12.9375 67.421875 
Q 19.578125 74.21875 30.609375 74.21875 
Q 43.265625 74.21875 49.921875 64.515625 
Q 56.59375 54.828125 56.59375 36.375 
Q 56.59375 19.140625 48.40625 8.859375 
Q 40.234375 -1.421875 26.421875 -1.421875 
Q 22.703125 -1.421875 18.890625 -0.6875 
Q 15.09375 0.046875 10.984375 1.515625 
M 30.609375 32.421875 
Q 37.25 32.421875 41.125 36.953125 
Q 45.015625 41.5 45.015625 49.421875 
Q 45.015625 57.28125 41.125 61.84375 
Q 37.25 66.40625 30.609375 66.40625 
Q 23.96875 66.40625 20.09375 61.84375 
Q 16.21875 57.28125 16.21875 49.421875 
Q 16.21875 41.5 20.09375 36.953125 
Q 23.96875 32.421875 30.609375 32.421875 
" id="BitstreamVeraSans-Roman-39"/>
     <path d="M 48.6875 27.296875 
Q 48.6875 37.203125 44.609375 42.84375 
Q 40.53125 48.484375 33.40625 48.484375 
Q 26.265625 48.484375 22.1875 42.84375 
Q 18.109375 37.203125 18.109375 27.296875 
Q 18.109375 17.390625 22.1875 11.75 
Q 26.265625 6.109375 33.40625 6.109375 
Q 40.53125 6.109375 44.609375 11.75 
Q 48.6875 17.390625 48.6875 27.296875 
M 18.109375 46.390625 
Q 20.953125 51.265625 25.265625 53.625 
Q 29.59375 56 35.59375 56 
Q 45.5625 56 51.78125 48.09375 
Q 58.015625 40.1875 58.015625 27.296875 
Q 58.015625 14.40625 51.78125 6.484375 
Q 45.5625 -1.421875 35.59375 -1.421875 
Q 29.59375 -1.421875 25.265625 0.953125 
Q 20.953125 3.328125 18.109375 8.203125 
L 18.109375 0 
L 9.078125 0 
L 9.078125 75.984375 
L 18.109375 75.984375 
z
" id="BitstreamVeraSans-Roman-62"/>
    </defs>
    <g transform="translate(464.017862903 37.8582642327)scale(0.17 -0.17)">
     <use xlink:href="#BitstreamVeraSans-Roman-62"/>
     <use x="63.4765625" xlink:href="#BitstreamVeraSans-Roman-65"/>
     <use x="125.0" xlink:href="#BitstreamVeraSans-Roman-73"/>
     <use x="177.099609375" xlink:href="#BitstreamVeraSans-Roman-74"/>
     <use x="216.30859375" xlink:href="#BitstreamVeraSans-Roman-20"/>
     <use x="248.095703125" xlink:href="#BitstreamVeraSans-Roman-32"/>
     <use x="311.71875" xlink:href="#BitstreamVeraSans-Roman-30"/>
     <use x="375.341796875" xlink:href="#BitstreamVeraSans-Roman-30"/>
     <use x="438.96484375" xlink:href="#BitstreamVeraSans-Roman-39"/>
    </g>
   </g>
   <g id="text_21">
    <!-- bbob f9, 5-D -->
    <defs>
     <path d="M 19.671875 64.796875 
L 19.671875 8.109375 
L 31.59375 8.109375 
Q 46.6875 8.109375 53.6875 14.9375 
Q 60.6875 21.78125 60.6875 36.53125 
Q 60.6875 51.171875 53.6875 57.984375 
Q 46.6875 64.796875 31.59375 64.796875 
z
M 9.8125 72.90625 
L 30.078125 72.90625 
Q 51.265625 72.90625 61.171875 64.09375 
Q 71.09375 55.28125 71.09375 36.53125 
Q 71.09375 17.671875 61.125 8.828125 
Q 51.171875 0 30.078125 0 
L 9.8125 0 
z
" id="BitstreamVeraSans-Roman-44"/>
    </defs>
    <g transform="translate(59.01855 33.77540625)scale(0.102 -0.102)">
     <use xlink:href="#BitstreamVeraSans-Roman-62"/>
     <use x="63.4765625" xlink:href="#BitstreamVeraSans-Roman-62"/>
     <use x="126.953125" xlink:href="#BitstreamVeraSans-Roman-6f"/>
     <use x="188.134765625" xlink:href="#BitstreamVeraSans-Roman-62"/>
     <use x="251.611328125" xlink:href="#BitstreamVeraSans-Roman-20"/>
     <use x="283.3984375" xlink:href="#BitstreamVeraSans-Roman-66"/>
     <use x="318.603515625" xlink:href="#BitstreamVeraSans-Roman-39"/>
     <use x="382.2265625" xlink:href="#BitstreamVeraSans-Roman-2c"/>
     <use x="414.013671875" xlink:href="#BitstreamVeraSans-Roman-20"/>
     <use x="445.80078125" xlink:href="#BitstreamVeraSans-Roman-35"/>
     <use x="509.423828125" xlink:href="#BitstreamVeraSans-Roman-2d"/>
     <use x="545.5078125" xlink:href="#BitstreamVeraSans-Roman-44"/>
    </g>
    <!-- 51 targets: 100..1e-08 -->
    <defs>
     <path d="M 11.71875 12.40625 
L 22.015625 12.40625 
L 22.015625 0 
L 11.71875 0 
z
M 11.71875 51.703125 
L 22.015625 51.703125 
L 22.015625 39.3125 
L 11.71875 39.3125 
z
" id="BitstreamVeraSans-Roman-3a"/>
    </defs>
    <g transform="translate(59.01855 45.197175)scale(0.102 -0.102)">
     <use xlink:href="#BitstreamVeraSans-Roman-35"/>
     <use x="63.623046875" xlink:href="#BitstreamVeraSans-Roman-31"/>
     <use x="127.24609375" xlink:href="#BitstreamVeraSans-Roman-20"/>
     <use x="159.033203125" xlink:href="#BitstreamVeraSans-Roman-74"/>
     <use x="198.2421875" xlink:href="#BitstreamVeraSans-Roman-61"/>
     <use x="259.521484375" xlink:href="#BitstreamVeraSans-Roman-72"/>
     <use x="300.619140625" xlink:href="#BitstreamVeraSans-Roman-67"/>
     <use x="364.095703125" xlink:href="#BitstreamVeraSans-Roman-65"/>
     <use x="425.619140625" xlink:href="#BitstreamVeraSans-Roman-74"/>
     <use x="464.828125" xlink:href="#BitstreamVeraSans-Roman-73"/>
     <use x="516.927734375" xlink:href="#BitstreamVeraSans-Roman-3a"/>
     <use x="550.619140625" xlink:href="#BitstreamVeraSans-Roman-20"/>
     <use x="582.40625" xlink:href="#BitstreamVeraSans-Roman-31"/>
     <use x="646.029296875" xlink:href="#BitstreamVeraSans-Roman-30"/>
     <use x="709.65234375" xlink:href="#BitstreamVeraSans-Roman-30"/>
     <use x="773.275390625" xlink:href="#BitstreamVeraSans-Roman-2e"/>
     <use x="805.0625" xlink:href="#BitstreamVeraSans-Roman-2e"/>
     <use x="836.849609375" xlink:href="#BitstreamVeraSans-Roman-31"/>
     <use x="900.47265625" xlink:href="#BitstreamVeraSans-Roman-65"/>
     <use x="961.99609375" xlink:href="#BitstreamVeraSans-Roman-2d"/>
     <use x="998.080078125" xlink:href="#BitstreamVeraSans-Roman-30"/>
     <use x="1061.703125" xlink:href="#BitstreamVeraSans-Roman-38"/>
    </g>
    <!-- 15 instances -->
    <g transform="translate(59.01855 56.61894375)scale(0.102 -0.102)">
     <use xlink:href="#BitstreamVeraSans-Roman-31"/>
     <use x="63.623046875" xlink:href="#BitstreamVeraSans-Roman-35"/>
     <use x="127.24609375" xlink:href="#BitstreamVeraSans-Roman-20"/>
     <use x="159.033203125" xlink:href="#BitstreamVeraSans-Roman-69"/>
     <use x="186.81640625" xlink:href="#BitstreamVeraSans-Roman-6e"/>
     <use x="250.1953125" xlink:href="#BitstreamVeraSans-Roman-73"/>
     <use x="302.294921875" xlink:href="#BitstreamVeraSans-Roman-74"/>
     <use x="341.50390625" xlink:href="#BitstreamVeraSans-Roman-61"/>
     <use x="402.783203125" xlink:href="#BitstreamVeraSans-Roman-6e"/>
     <use x="466.162109375" xlink:href="#BitstreamVeraSans-Roman-63"/>
     <use x="521.142578125" xlink:href="#BitstreamVeraSans-Roman-65"/>
     <use x="582.666015625" xlink:href="#BitstreamVeraSans-Roman-73"/>
    </g>
   </g>
   <g id="text_22">
    <!-- v0.0.0 -->
    <g style="fill:#808080;" transform="translate(263.52125 379.1953125)scale(0.1 -0.1)">
     <use xlink:href="#BitstreamVeraSans-Roman-76"/>
     <use x="59.1796875" xlink:href="#BitstreamVeraSans-Roman-30"/>
     <use x="122.802734375" xlink:href="#BitstreamVeraSans-Roman-2e"/>
     <use x="154.58984375" xlink:href="#BitstreamVeraSans-Roman-30"/>
     <use x="218.212890625" xlink:href="#BitstreamVeraSans-Roman-2e"/>
     <use x="250.0" xlink:href="#BitstreamVeraSans-Roman-30"/>
    </g>
   </g>
   <g id="text_23">
    <!-- 9 Rosenbrock rotated -->
    <defs>
     <path d="M 44.390625 34.1875 
Q 47.5625 33.109375 50.5625 29.59375 
Q 53.5625 26.078125 56.59375 19.921875 
L 66.609375 0 
L 56 0 
L 46.6875 18.703125 
Q 43.0625 26.03125 39.671875 28.421875 
Q 36.28125 30.8125 30.421875 30.8125 
L 19.671875 30.8125 
L 19.671875 0 
L 9.8125 0 
L 9.8125 72.90625 
L 32.078125 72.90625 
Q 44.578125 72.90625 50.734375 67.671875 
Q 56.890625 62.453125 56.890625 51.90625 
Q 56.890625 45.015625 53.6875 40.46875 
Q 50.484375 35.9375 44.390625 34.1875 
M 19.671875 64.796875 
L 19.671875 38.921875 
L 32.078125 38.921875 
Q 39.203125 38.921875 42.84375 42.21875 
Q 46.484375 45.515625 46.484375 51.90625 
Q 46.484375 58.296875 42.84375 61.546875 
Q 39.203125 64.796875 32.078125 64.796875 
z
" id="BitstreamVeraSans-Roman-52"/>
     <path d="M 9.078125 75.984375 
L 18.109375 75.984375 
L 18.109375 31.109375 
L 44.921875 54.6875 
L 56.390625 54.6875 
L 27.390625 29.109375 
L 57.625 0 
L 45.90625 0 
L 18.109375 26.703125 
L 18.109375 0 
L 9.078125 0 
z
" id="BitstreamVeraSans-Roman-6b"/>
    </defs>
    <g transform="translate(171.161875 17.4)scale(0.2 -0.2)">
     <use xlink:href="#BitstreamVeraSans-Roman-39"/>
     <use x="63.623046875" xlink:href="#BitstreamVeraSans-Roman-20"/>
     <use x="95.41015625" xlink:href="#BitstreamVeraSans-Roman-52"/>
     <use x="164.830078125" xlink:href="#BitstreamVeraSans-Roman-6f"/>
     <use x="226.01171875" xlink:href="#BitstreamVeraSans-Roman-73"/>
     <use x="278.111328125" xlink:href="#BitstreamVeraSans-Roman-65"/>
     <use x="339.634765625" xlink:href="#BitstreamVeraSans-Roman-6e"/>
     <use x="403.013671875" xlink:href="#BitstreamVeraSans-Roman-62"/>
     <use x="466.490234375" xlink:href="#BitstreamVeraSans-Roman-72"/>
     <use x="507.572265625" xlink:href="#BitstreamVeraSans-Roman-6f"/>
     <use x="568.75390625" xlink:href="#BitstreamVeraSans-Roman-63"/>
     <use x="623.734375" xlink:href="#BitstreamVeraSans-Roman-6b"/>
     <use x="681.64453125" xlink:href="#BitstreamVeraSans-Roman-20"/>
     <use x="713.431640625" xlink:href="#BitstreamVeraSans-Roman-72"/>
     <use x="754.513671875" xlink:href="#BitstreamVeraSans-Roman-6f"/>
     <use x="815.6953125" xlink:href="#BitstreamVeraSans-Roman-74"/>
     <use x="854.904296875" xlink:href="#BitstreamVeraSans-Roman-61"/>
     <use x="916.18359375" xlink:href="#BitstreamVeraSans-Roman-74"/>
     <use x="955.392578125" xlink:href="#BitstreamVeraSans-Roman-65"/>
     <use x="1016.91601562" xlink:href="#BitstreamVeraSans-Roman-64"/>
    </g>
   </g>
  </g>
 </g>
 <defs>
  <clipPath id="p43584f6049">
   <rect height="362.5" width="449.355" x="54.525" y="22.4"/>
  </clipPath>
 </defs>
</svg>
