<?xml version="1.0" encoding="utf-8" standalone="no"?>
<!DOCTYPE svg PUBLIC "-//W3C//DTD SVG 1.1//EN"
  "http://www.w3.org/Graphics/SVG/1.1/DTD/svg11.dtd">
<!-- Created with matplotlib (http://matplotlib.org/) -->
<svg height="432pt" version="1.1" viewBox="0 0 576 432" width="576pt" xmlns="http://www.w3.org/2000/svg" xmlns:xlink="http://www.w3.org/1999/xlink">
 <defs>
  <style type="text/css">
*{stroke-linecap:butt;stroke-linejoin:round;stroke-miterlimit:100000;}
  </style>
 </defs>
 <g id="figure_1">
  <g id="patch_1">
   <path d="M 0 432 
L 576 432 
L 576 0 
L 0 0 
z
" style="fill:#ffffff;"/>
  </g>
  <g id="axes_1">
   <g id="patch_2">
    <path d="M 54.525 384.9 
L 503.88 384.9 
L 503.88 22.4 
L 54.525 22.4 
z
" style="fill:#ffffff;"/>
   </g>
   <g id="line2d_1">
    <path d="M 100.707854 384.9 
L 100.707854 377.862532 
L 116.001771 377.862532 
L 116.001771 370.825063 
L 122.101747 370.825063 
L 122.101747 363.787595 
L 128.458123 363.787595 
L 128.458123 356.750126 
L 132.793704 356.750126 
L 132.793704 349.712658 
L 136.719224 349.712658 
L 136.719224 342.675189 
L 139.140269 342.675189 
L 139.140269 335.637721 
L 141.561193 335.637721 
L 141.561193 328.600252 
L 143.403988 328.600252 
L 143.403988 321.562784 
L 145.107115 321.562784 
L 145.107115 314.525315 
L 146.42774 314.525315 
L 146.42774 307.487847 
L 147.675077 307.487847 
L 147.675077 300.450379 
L 149.192911 300.450379 
L 149.192911 293.41291 
L 150.646015 293.41291 
L 150.646015 286.375442 
L 152.010877 286.375442 
L 152.010877 279.337973 
L 152.961613 279.337973 
L 152.961613 272.300505 
L 154.196499 272.300505 
L 154.196499 265.263036 
L 155.112164 265.263036 
L 155.112164 258.225568 
L 156.18835 258.225568 
L 156.18835 251.188099 
L 157.238702 251.188099 
L 157.238702 244.150631 
L 158.375597 244.150631 
L 158.375597 237.113162 
L 159.436619 237.113162 
L 159.436619 230.075694 
L 188.289835 230.075694 
L 188.289835 223.038226 
L 190.809946 223.038226 
L 190.809946 216.000757 
L 191.587519 216.000757 
L 191.587519 208.963289 
L 192.309706 208.963289 
L 192.309706 201.92582 
L 192.990402 201.92582 
L 192.990402 194.888352 
L 193.729457 194.888352 
L 193.729457 187.850883 
L 194.485069 187.850883 
L 194.485069 180.813415 
L 195.116827 180.813415 
L 195.116827 173.775946 
L 195.731318 173.775946 
L 195.731318 166.738478 
L 196.366321 166.738478 
L 196.366321 159.70101 
L 197.193911 159.70101 
L 197.193911 152.663541 
L 197.820154 152.663541 
L 197.820154 145.626073 
L 198.425691 145.626073 
L 198.425691 138.588604 
L 199.113343 138.588604 
L 199.113343 131.551136 
L 199.79113 131.551136 
L 199.79113 124.513667 
L 200.274355 124.513667 
L 200.274355 117.476199 
L 200.824737 117.476199 
L 200.824737 110.43873 
L 201.263443 110.43873 
L 201.263443 103.401262 
L 201.841795 103.401262 
L 201.841795 96.363793 
L 202.305313 96.363793 
L 202.305313 89.326325 
L 202.808684 89.326325 
L 202.808684 82.288857 
L 203.337077 82.288857 
L 203.337077 75.251388 
L 203.762223 75.251388 
L 203.762223 68.21392 
L 204.185259 68.21392 
L 204.185259 61.176451 
L 204.637338 61.176451 
L 204.637338 54.138983 
L 205.030456 54.138983 
L 205.030456 47.101514 
L 205.474205 47.101514 
L 205.474205 40.064046 
L 205.845028 40.064046 
L 205.845028 33.026577 
L 206.291566 33.026577 
L 206.291566 25.989109 
L 416.908065 25.989109 
" style="fill:none;stroke:#f5deb3;stroke-linecap:square;stroke-width:6.0;"/>
   </g>
   <g id="line2d_2">
    <defs>
     <path d="M -0 7.778175 
L 7.778175 0 
L 0 -7.778175 
L -7.778175 -0 
z
" id="mfab21c7b4b" style="stroke:#f5deb3;stroke-linejoin:miter;stroke-width:1.5;"/>
    </defs>
    <g>
     <use style="fill:#f5deb3;stroke:#f5deb3;stroke-linejoin:miter;stroke-width:1.5;" x="190.809946002" xlink:href="#mfab21c7b4b" y="223.038225587"/>
     <use style="fill:#f5deb3;stroke:#f5deb3;stroke-linejoin:miter;stroke-width:1.5;" x="203.337077248" xlink:href="#mfab21c7b4b" y="82.2888565327"/>
     <use style="fill:#f5deb3;stroke:#f5deb3;stroke-linejoin:miter;stroke-width:1.5;" x="206.291566146" xlink:href="#mfab21c7b4b" y="25.9891089109"/>
     <use style="fill:#f5deb3;stroke:#f5deb3;stroke-linejoin:miter;stroke-width:1.5;" x="206.291566146" xlink:href="#mfab21c7b4b" y="25.9891089109"/>
     <use style="fill:#f5deb3;stroke:#f5deb3;stroke-linejoin:miter;stroke-width:1.5;" x="416.908064516" xlink:href="#mfab21c7b4b" y="25.9891089109"/>
    </g>
   </g>
   <g id="line2d_3">
    <path d="M -15527.946774 743.810891 
" style="fill:none;stroke:#f5deb3;stroke-linecap:square;stroke-width:6.0;"/>
    <g>
     <use style="fill:#f5deb3;stroke:#f5deb3;stroke-linejoin:miter;stroke-width:1.5;" x="-15527.9467742" xlink:href="#mfab21c7b4b" y="743.810891089"/>
    </g>
   </g>
   <g id="line2d_4">
    <path d="M 416.908065 25.989109 
L 456.770202 33.167327 
" style="fill:none;stroke:#f5deb3;stroke-linecap:square;stroke-width:6.0;"/>
    <g>
     <use style="fill:#f5deb3;stroke:#f5deb3;stroke-linejoin:miter;stroke-width:1.5;" x="416.908064516" xlink:href="#mfab21c7b4b" y="25.9891089109"/>
     <use style="fill:#f5deb3;stroke:#f5deb3;stroke-linejoin:miter;stroke-width:1.5;" x="456.770201613" xlink:href="#mfab21c7b4b" y="33.1673267327"/>
    </g>
   </g>
   <g id="line2d_5">
    <defs>
     <path d="M 0 1.5 
C 0.397805 1.5 0.77937 1.341951 1.06066 1.06066 
C 1.341951 0.77937 1.5 0.397805 1.5 0 
C 1.5 -0.397805 1.341951 -0.77937 1.06066 -1.06066 
C 0.77937 -1.341951 0.397805 -1.5 0 -1.5 
C -0.397805 -1.5 -0.77937 -1.341951 -1.06066 -1.06066 
C -1.341951 -0.77937 -1.5 -0.397805 -1.5 0 
C -1.5 0.397805 -1.341951 0.77937 -1.06066 1.06066 
C -0.77937 1.341951 -0.397805 1.5 0 1.5 
z
" id="m0c54ba04ee" style="stroke:#f5deb3;stroke-width:0.5;"/>
    </defs>
    <g>
     <use style="fill:#f5deb3;stroke:#f5deb3;stroke-width:0.5;" x="206.291566146" xlink:href="#m0c54ba04ee" y="25.9891089109"/>
     <use style="fill:#f5deb3;stroke:#f5deb3;stroke-width:0.5;" x="206.291566146" xlink:href="#m0c54ba04ee" y="25.9891089109"/>
    </g>
   </g>
   <g id="line2d_6">
    <defs>
     <path d="M 0 1.5 
C 0.397805 1.5 0.77937 1.341951 1.06066 1.06066 
C 1.341951 0.77937 1.5 0.397805 1.5 0 
C 1.5 -0.397805 1.341951 -0.77937 1.06066 -1.06066 
C 0.77937 -1.341951 0.397805 -1.5 0 -1.5 
C -0.397805 -1.5 -0.77937 -1.341951 -1.06066 -1.06066 
C -1.341951 -0.77937 -1.5 -0.397805 -1.5 0 
C -1.5 0.397805 -1.341951 0.77937 -1.06066 1.06066 
C -0.77937 1.341951 -0.397805 1.5 0 1.5 
z
" id="m55a224f939" style="stroke:#6495ed;stroke-width:0.5;"/>
    </defs>
    <g>
     <use style="fill:#6495ed;stroke:#6495ed;stroke-width:0.5;" x="255.906239728" xlink:href="#m55a224f939" y="25.9891089109"/>
     <use style="fill:#6495ed;stroke:#6495ed;stroke-width:0.5;" x="255.906239728" xlink:href="#m55a224f939" y="25.9891089109"/>
    </g>
   </g>
   <g id="line2d_7">
    <path d="M 135.341672 384.9 
L 135.341672 383.492506 
L 137.796799 383.492506 
L 137.796799 382.788759 
L 138.289747 382.788759 
L 138.289747 382.085013 
L 138.45169 382.085013 
L 138.45169 380.677519 
L 138.825082 380.677519 
L 138.825082 379.973772 
L 139.706881 379.973772 
L 139.706881 379.270025 
L 139.909432 379.270025 
L 139.909432 378.566278 
L 140.798985 378.566278 
L 140.798985 377.862532 
L 140.943881 377.862532 
L 140.943881 377.158785 
L 142.070613 377.158785 
L 142.070613 376.455038 
L 142.34369 376.455038 
L 142.34369 375.751291 
L 142.478994 375.751291 
L 142.478994 375.047544 
L 142.968257 375.047544 
L 143.056082 373.64005 
L 143.187178 373.64005 
L 143.187178 372.936304 
L 143.66143 372.936304 
L 143.66143 369.417569 
L 144.82532 369.417569 
L 144.82532 368.713823 
L 145.026962 368.713823 
L 145.026962 367.306329 
L 145.582126 367.306329 
L 145.582126 366.602582 
L 145.777123 366.602582 
L 145.777123 365.898835 
L 146.085642 365.898835 
L 146.085642 364.491341 
L 147.096705 364.491341 
L 147.096705 363.787595 
L 147.27905 363.787595 
L 147.27905 363.083848 
L 147.495929 363.083848 
L 147.495929 362.380101 
L 148.06425 362.380101 
L 148.169229 360.972607 
L 148.377728 360.972607 
L 148.377728 360.26886 
L 149.687788 360.26886 
L 149.785469 358.861367 
L 150.108043 358.861367 
L 150.108043 356.750126 
L 150.520587 356.750126 
L 150.520587 356.046379 
L 151.048891 356.046379 
L 151.110237 354.638886 
L 151.654939 354.638886 
L 151.744453 353.231392 
L 151.833612 353.231392 
L 151.833612 352.527645 
L 152.649147 352.527645 
L 152.649147 351.823898 
L 152.763274 351.823898 
L 152.763274 349.712658 
L 153.186164 349.712658 
L 153.186164 348.305164 
L 153.79236 348.305164 
L 153.79236 346.89767 
L 153.927882 346.89767 
L 153.927882 346.193924 
L 154.356143 346.193924 
L 154.356143 344.78643 
L 154.567252 344.78643 
L 154.567252 344.082683 
L 155.086513 344.082683 
L 155.086513 342.675189 
L 155.86839 342.675189 
L 155.86839 341.971442 
L 155.991991 341.971442 
L 155.991991 340.563949 
L 156.527906 340.563949 
L 156.527906 339.860202 
L 157.285299 339.860202 
L 157.285299 338.452708 
L 157.424513 338.452708 
L 157.424513 337.045215 
L 157.585848 337.045215 
L 157.654638 334.933974 
L 158.68389 334.933974 
L 158.749406 332.822733 
L 159.159967 332.822733 
L 159.159967 332.118987 
L 159.330617 332.118987 
L 159.330617 331.41524 
L 159.95926 331.41524 
L 159.95926 330.711493 
L 160.082907 330.711493 
L 160.082907 330.007746 
L 160.328178 330.007746 
L 160.328178 329.303999 
L 160.530547 329.303999 
L 160.530547 328.600252 
L 160.671128 328.600252 
L 160.671128 327.192759 
L 161.707936 327.192759 
L 161.803324 324.377771 
L 163.294761 324.377771 
L 163.294761 323.674024 
L 163.648275 323.674024 
L 163.648275 322.970278 
L 164.030825 322.970278 
L 164.030825 321.562784 
L 164.65988 321.562784 
L 164.65988 320.859037 
L 165.075167 320.859037 
L 165.075167 320.15529 
L 165.883413 320.15529 
L 165.883413 319.451543 
L 167.119054 319.451543 
L 167.119054 318.747797 
L 167.988711 318.747797 
L 167.988711 318.04405 
L 168.489148 318.04405 
L 168.489148 315.229062 
L 169.376385 315.229062 
L 169.376385 313.821569 
L 170.256093 313.821569 
L 170.256093 313.117822 
L 171.353042 313.117822 
L 171.353042 312.414075 
L 173.568215 312.414075 
L 173.568215 311.006581 
L 174.180262 311.006581 
L 174.180262 310.302834 
L 175.210197 310.302834 
L 175.210197 308.895341 
L 175.830742 308.895341 
L 175.830742 306.7841 
L 177.234532 306.7841 
L 177.234532 306.080353 
L 177.969891 306.080353 
L 177.969891 305.376606 
L 178.771639 305.376606 
L 178.771639 303.265366 
L 179.493834 303.265366 
L 179.493834 302.561619 
L 180.4442 302.561619 
L 180.4442 301.857872 
L 181.324082 301.857872 
L 181.324082 300.450379 
L 183.347504 300.450379 
L 183.347504 299.746632 
L 183.716858 299.746632 
L 183.716858 297.635391 
L 184.865056 297.635391 
L 184.865056 296.931644 
L 185.095931 296.931644 
L 185.095931 296.227897 
L 185.550689 296.227897 
L 185.550689 295.524151 
L 186.022378 295.524151 
L 186.022378 294.820404 
L 186.337821 294.820404 
L 186.337821 294.116657 
L 186.598404 294.116657 
L 186.617353 291.30167 
L 186.856002 291.30167 
L 186.856002 290.597923 
L 186.999226 290.597923 
L 187.061214 288.486682 
L 187.252297 288.486682 
L 187.252297 287.782935 
L 187.551059 287.782935 
L 187.575273 285.671695 
L 187.839923 285.671695 
L 187.941346 283.560454 
L 187.959197 283.560454 
L 187.977033 280.745467 
L 188.148728 280.745467 
L 188.254641 276.522986 
L 188.307411 276.522986 
L 188.412581 271.596758 
L 188.494042 271.596758 
L 188.494042 270.189264 
L 188.644546 270.189264 
L 188.69641 268.078024 
L 188.868431 268.078024 
L 188.965328 265.966783 
L 189.140955 265.966783 
L 189.140955 265.263036 
L 189.287205 265.263036 
L 189.287205 264.559289 
L 189.527011 264.559289 
L 189.532558 263.151796 
L 189.72583 263.151796 
L 189.72583 262.448049 
L 189.89018 262.448049 
L 189.966468 258.929315 
L 190.134475 258.929315 
L 190.236829 254.706834 
L 190.306594 254.706834 
L 190.376143 251.891846 
L 190.445477 251.891846 
L 190.482723 248.373112 
L 190.799464 248.373112 
L 190.898843 246.261871 
L 190.961382 246.261871 
L 191.034126 244.854378 
L 191.096291 244.854378 
L 191.189218 243.446884 
L 191.214962 243.446884 
L 191.214962 242.743137 
L 191.348363 242.743137 
L 191.348363 242.03939 
L 191.536847 242.03939 
L 191.536847 241.335644 
L 191.648174 241.335644 
L 191.748905 237.816909 
L 191.794086 237.816909 
L 191.869188 235.001922 
L 191.94404 235.001922 
L 192.013678 233.594428 
L 192.630897 233.594428 
L 192.645388 230.779441 
L 192.770588 230.779441 
L 192.852075 227.964454 
L 192.957091 227.964454 
L 193.04265 225.853213 
L 193.075835 225.853213 
L 193.113701 223.741972 
L 193.226918 223.741972 
L 193.311459 222.334479 
L 193.502844 222.334479 
L 193.590986 220.223238 
L 193.770832 220.223238 
L 193.812132 218.815745 
L 193.903638 218.815745 
L 193.903638 218.111998 
L 194.035663 218.111998 
L 194.112699 213.889517 
L 194.212001 213.889517 
L 194.212001 212.482023 
L 194.40037 212.482023 
L 194.444988 209.667036 
L 194.604883 209.667036 
L 194.604883 208.963289 
L 194.811939 208.963289 
L 194.825091 206.852048 
L 194.947471 206.852048 
L 194.947471 206.148301 
L 195.241937 206.148301 
L 195.241937 204.740808 
L 195.409098 204.740808 
L 195.409098 204.037061 
L 195.638518 204.037061 
L 195.697617 200.518327 
L 195.873988 200.518327 
L 195.936644 196.999592 
L 196.069729 196.999592 
L 196.1649 193.480858 
L 196.263781 193.480858 
L 196.333559 191.369618 
L 196.468396 191.369618 
L 196.468396 190.665871 
L 196.695376 190.665871 
L 196.695376 189.258377 
L 196.816036 189.258377 
L 196.916094 187.850883 
L 197.019685 187.850883 
L 197.1228 185.035896 
L 197.166283 185.035896 
L 197.166283 184.332149 
L 197.347218 184.332149 
L 197.347218 183.628402 
L 198.22314 183.628402 
L 198.22314 182.924655 
L 198.556006 182.924655 
L 198.556006 181.517162 
L 198.692951 181.517162 
L 198.692951 180.813415 
L 198.986227 180.813415 
L 199.03716 177.998427 
L 199.135062 177.998427 
L 199.239743 176.590934 
L 199.354691 176.590934 
L 199.354691 175.18344 
L 199.557997 175.18344 
L 199.557997 174.479693 
L 199.68546 174.479693 
L 199.68546 173.775946 
L 199.861302 173.775946 
L 199.910292 170.960959 
L 200.373875 170.960959 
L 200.390989 169.553465 
L 200.673199 169.553465 
L 200.673199 168.849719 
L 200.985258 168.849719 
L 200.985258 167.442225 
L 201.174401 167.442225 
L 201.174401 166.738478 
L 201.726019 166.738478 
L 201.83217 164.627237 
L 202.283306 164.627237 
L 202.346125 162.515997 
L 202.465 162.515997 
L 202.561514 160.404756 
L 202.697794 160.404756 
L 202.697794 159.70101 
L 202.943479 159.70101 
L 202.943479 158.997263 
L 203.110843 158.997263 
L 203.110843 156.886022 
L 203.255895 156.886022 
L 203.27697 155.478528 
L 203.400017 155.478528 
L 203.400017 154.774782 
L 203.543221 154.774782 
L 203.626338 151.959794 
L 203.682564 151.959794 
L 203.70029 149.144807 
L 204.211256 149.144807 
L 204.211256 147.033566 
L 204.455311 147.033566 
L 204.455311 146.329819 
L 204.761632 146.329819 
L 204.761632 145.626073 
L 204.904845 145.626073 
L 205.008177 140.699845 
L 205.124899 140.699845 
L 205.124899 139.996098 
L 205.290602 139.996098 
L 205.33733 137.884857 
L 205.944137 137.884857 
L 205.944137 136.477364 
L 206.96306 136.477364 
L 207.052283 135.06987 
L 207.153821 135.06987 
L 207.153821 133.662376 
L 207.736334 133.662376 
L 207.736334 132.958629 
L 207.871663 132.958629 
L 207.910879 131.551136 
L 208.067062 131.551136 
L 208.144749 128.736148 
L 208.320974 128.736148 
L 208.431314 127.328655 
L 208.486282 127.328655 
L 208.486282 126.624908 
L 208.737889 126.624908 
L 208.737889 125.217414 
L 208.968028 125.217414 
L 208.975036 123.80992 
L 209.1588 123.80992 
L 209.221262 120.994933 
L 209.295068 120.994933 
L 209.389278 118.883692 
L 209.435092 118.883692 
L 209.435092 118.179946 
L 209.66277 118.179946 
L 209.674093 116.772452 
L 209.982161 116.772452 
L 210.086884 111.846224 
L 210.257403 111.846224 
L 210.27725 110.43873 
L 210.393771 110.43873 
L 210.393771 109.734983 
L 210.700852 109.734983 
L 210.700852 109.031237 
L 211.252112 109.031237 
L 211.252112 107.623743 
L 211.543599 107.623743 
L 211.543599 106.919996 
L 211.66619 106.919996 
L 211.763372 104.808756 
L 211.929875 104.808756 
L 211.929875 104.105009 
L 212.305599 104.105009 
L 212.305599 103.401262 
L 212.508104 103.401262 
L 212.508104 102.697515 
L 213.814699 102.697515 
L 213.865491 100.586275 
L 214.026513 100.586275 
L 214.115886 97.771287 
L 214.422259 97.771287 
L 214.422259 97.06754 
L 214.539272 97.06754 
L 214.6339 94.9563 
L 214.827369 94.9563 
L 214.919001 92.845059 
L 215.020973 92.845059 
L 215.131367 90.733819 
L 215.359336 90.733819 
L 215.401495 89.326325 
L 215.952763 89.326325 
L 215.952763 88.622578 
L 216.074021 88.622578 
L 216.074021 86.511338 
L 216.250465 86.511338 
L 216.250465 85.807591 
L 216.807937 85.807591 
L 216.807937 85.103844 
L 217.470683 85.103844 
L 217.52504 82.288857 
L 217.742745 82.288857 
L 217.742745 81.58511 
L 217.901903 81.58511 
L 217.901903 80.881363 
L 218.089549 80.881363 
L 218.19674 79.473869 
L 218.332711 79.473869 
L 218.332711 78.770122 
L 218.564125 78.770122 
L 218.564125 78.066375 
L 218.972067 78.066375 
L 218.972067 77.362629 
L 219.406541 77.362629 
L 219.406541 76.658882 
L 219.720097 76.658882 
L 219.720097 75.955135 
L 220.48327 75.955135 
L 220.48327 75.251388 
L 220.677024 75.251388 
L 220.677024 74.547641 
L 220.9035 74.547641 
L 220.98579 73.140148 
L 221.066416 73.140148 
L 221.066416 72.436401 
L 221.306573 72.436401 
L 221.356453 71.028907 
L 221.561546 71.028907 
L 221.561546 69.621413 
L 221.687956 69.621413 
L 221.742293 68.21392 
L 222.081239 68.21392 
L 222.081239 66.806426 
L 224.319553 66.806426 
L 224.319553 64.695185 
L 224.434929 64.695185 
L 224.434929 63.287692 
L 224.563732 63.287692 
L 224.615047 61.880198 
L 224.6918 61.880198 
L 224.6918 61.176451 
L 225.027124 61.176451 
L 225.126412 59.768957 
L 225.4834 59.768957 
L 225.4834 59.065211 
L 225.600776 59.065211 
L 225.679799 57.657717 
L 225.929502 57.657717 
L 225.929502 56.95397 
L 226.072982 56.95397 
L 226.072982 56.250223 
L 229.724983 56.250223 
L 229.724983 55.546476 
L 230.014531 55.546476 
L 230.014531 54.138983 
L 231.993625 54.138983 
L 231.993625 53.435236 
L 232.126633 53.435236 
L 232.206561 52.027742 
L 232.320962 52.027742 
L 232.320962 51.323995 
L 233.220564 51.323995 
L 233.220564 49.916502 
L 233.831077 49.916502 
L 233.865843 48.509008 
L 235.312809 48.509008 
L 235.312809 47.805261 
L 238.701095 47.805261 
L 238.768856 44.286527 
L 238.841362 44.286527 
L 238.93706 40.767793 
L 239.050136 40.767793 
L 239.088722 38.656552 
L 239.516659 38.656552 
L 239.516659 37.952805 
L 239.83087 37.952805 
L 239.83087 37.249058 
L 241.324847 37.249058 
L 241.324847 36.545312 
L 243.489755 36.545312 
L 243.564099 32.322831 
L 248.204384 32.322831 
L 248.204384 31.619084 
L 251.629961 31.619084 
L 251.734113 29.507843 
L 251.771045 29.507843 
L 251.811044 26.692856 
L 255.90624 26.692856 
L 255.90624 25.989109 
L 416.908065 25.989109 
L 416.908065 25.989109 
" style="fill:none;stroke:#6495ed;stroke-linecap:square;stroke-width:1.5;"/>
   </g>
   <g id="line2d_8">
    <defs>
     <path d="M -0 6 
L 6 -6 
L -6 -6 
z
" id="m7f3abd60ef" style="stroke:#6495ed;stroke-linejoin:miter;stroke-width:1.5;"/>
    </defs>
    <g>
     <use style="fill:none;stroke:#6495ed;stroke-linejoin:miter;stroke-width:1.5;" x="200.390989394" xlink:href="#m7f3abd60ef" y="169.553465347"/>
     <use style="fill:none;stroke:#6495ed;stroke-linejoin:miter;stroke-width:1.5;" x="251.734113356" xlink:href="#m7f3abd60ef" y="29.5078431373"/>
     <use style="fill:none;stroke:#6495ed;stroke-linejoin:miter;stroke-width:1.5;" x="255.906239728" xlink:href="#m7f3abd60ef" y="25.9891089109"/>
     <use style="fill:none;stroke:#6495ed;stroke-linejoin:miter;stroke-width:1.5;" x="255.906239728" xlink:href="#m7f3abd60ef" y="25.9891089109"/>
     <use style="fill:none;stroke:#6495ed;stroke-linejoin:miter;stroke-width:1.5;" x="416.908064516" xlink:href="#m7f3abd60ef" y="25.9891089109"/>
    </g>
   </g>
   <g id="line2d_9">
    <path d="M -15527.946774 743.810891 
" style="fill:none;stroke:#6495ed;stroke-linecap:square;stroke-width:1.5;"/>
    <g>
     <use style="fill:none;stroke:#6495ed;stroke-linejoin:miter;stroke-width:1.5;" x="-15527.9467742" xlink:href="#m7f3abd60ef" y="743.810891089"/>
    </g>
   </g>
   <g id="line2d_10">
    <defs>
     <path d="M 0 1.5 
C 0.397805 1.5 0.77937 1.341951 1.06066 1.06066 
C 1.341951 0.77937 1.5 0.397805 1.5 0 
C 1.5 -0.397805 1.341951 -0.77937 1.06066 -1.06066 
C 0.77937 -1.341951 0.397805 -1.5 0 -1.5 
C -0.397805 -1.5 -0.77937 -1.341951 -1.06066 -1.06066 
C -1.341951 -0.77937 -1.5 -0.397805 -1.5 0 
C -1.5 0.397805 -1.341951 0.77937 -1.06066 1.06066 
C -0.77937 1.341951 -0.397805 1.5 0 1.5 
z
" id="mbf7e05a3b4" style="stroke:#adff2f;stroke-width:0.5;"/>
    </defs>
    <g>
     <use style="fill:#adff2f;stroke:#adff2f;stroke-width:0.5;" x="236.708339663" xlink:href="#mbf7e05a3b4" y="25.9891089109"/>
     <use style="fill:#adff2f;stroke:#adff2f;stroke-width:0.5;" x="236.708339663" xlink:href="#mbf7e05a3b4" y="25.9891089109"/>
    </g>
   </g>
   <g id="line2d_11">
    <path d="M 164.926546 384.9 
L 164.926546 384.196253 
L 166.463349 384.196253 
L 166.463349 382.788759 
L 167.945293 382.788759 
L 167.945293 381.381266 
L 168.798101 381.381266 
L 168.798101 380.677519 
L 169.389974 380.677519 
L 169.389974 379.973772 
L 170.006352 379.973772 
L 170.006352 378.566278 
L 171.440017 378.566278 
L 171.440017 377.862532 
L 171.930663 377.862532 
L 171.930663 377.158785 
L 172.75265 377.158785 
L 172.75265 375.751291 
L 173.100871 375.751291 
L 173.158387 374.343797 
L 174.224131 374.343797 
L 174.224131 372.936304 
L 175.304378 372.936304 
L 175.325253 371.52881 
L 176.896581 371.52881 
L 176.896581 370.825063 
L 177.425391 370.825063 
L 177.425391 369.417569 
L 178.264754 369.417569 
L 178.264754 368.713823 
L 178.67297 368.713823 
L 178.780587 367.306329 
L 179.58034 367.306329 
L 179.649306 365.898835 
L 180.551953 365.898835 
L 180.551953 365.195088 
L 180.724931 365.195088 
L 180.724931 363.787595 
L 182.078299 363.787595 
L 182.078299 363.083848 
L 182.468918 363.083848 
L 182.468918 362.380101 
L 183.164208 362.380101 
L 183.164208 361.676354 
L 183.514827 361.676354 
L 183.608853 359.565114 
L 183.895721 359.565114 
L 183.895721 358.861367 
L 184.631785 358.861367 
L 184.631785 358.15762 
L 185.464458 358.15762 
L 185.464458 357.453873 
L 185.662956 357.453873 
L 185.662956 355.342632 
L 186.617353 355.342632 
L 186.617353 354.638886 
L 187.036439 354.638886 
L 187.036439 353.935139 
L 187.21544 353.935139 
L 187.21544 353.231392 
L 188.089671 353.231392 
L 188.089671 352.527645 
L 188.684895 352.527645 
L 188.753897 349.712658 
L 188.914082 349.712658 
L 188.914082 348.305164 
L 189.236688 348.305164 
L 189.236688 347.601417 
L 190.615241 347.601417 
L 190.615241 346.89767 
L 191.94404 346.89767 
L 191.94404 346.193924 
L 192.132557 346.193924 
L 192.206539 344.78643 
L 192.44653 344.78643 
L 192.44653 344.082683 
L 192.635728 344.082683 
L 192.635728 343.378936 
L 192.871205 343.378936 
L 192.871205 341.267696 
L 193.581724 341.267696 
L 193.660328 339.860202 
L 195.14709 339.860202 
L 195.14709 337.748961 
L 195.349234 337.748961 
L 195.349234 337.045215 
L 196.263781 337.045215 
L 196.263781 336.341468 
L 196.642888 336.341468 
L 196.642888 335.637721 
L 196.820047 335.637721 
L 196.820047 334.230227 
L 198.162773 334.230227 
L 198.162773 332.822733 
L 199.124205 332.822733 
L 199.124205 331.41524 
L 199.447655 331.41524 
L 199.447655 330.711493 
L 199.64659 330.711493 
L 199.660732 328.600252 
L 199.976608 328.600252 
L 199.976608 327.192759 
L 200.246823 327.192759 
L 200.246823 326.489012 
L 200.524035 326.489012 
L 200.524035 325.785265 
L 200.881719 325.785265 
L 200.908485 324.377771 
L 201.008572 324.377771 
L 201.008572 323.674024 
L 201.531724 323.674024 
L 201.531724 322.970278 
L 202.125486 322.970278 
L 202.150811 320.859037 
L 202.922088 320.859037 
L 202.961797 318.747797 
L 203.15022 318.747797 
L 203.15022 318.04405 
L 203.815173 318.04405 
L 203.815173 316.636556 
L 204.251636 316.636556 
L 204.251636 315.932809 
L 204.398125 315.932809 
L 204.398125 315.229062 
L 204.679788 315.229062 
L 204.679788 314.525315 
L 204.983086 314.525315 
L 204.983086 313.821569 
L 205.169206 313.821569 
L 205.185799 311.710328 
L 205.301606 311.710328 
L 205.301606 311.006581 
L 205.694189 311.006581 
L 205.694189 308.895341 
L 206.109238 308.895341 
L 206.19398 306.7841 
L 206.359888 306.7841 
L 206.45937 304.67286 
L 206.711334 304.67286 
L 206.711334 303.969113 
L 206.996241 303.969113 
L 206.996241 303.265366 
L 207.375603 303.265366 
L 207.375603 302.561619 
L 207.837293 302.561619 
L 207.888829 300.450379 
L 208.057333 300.450379 
L 208.103512 299.042885 
L 208.347409 299.042885 
L 208.452839 297.635391 
L 208.464789 297.635391 
L 208.507754 295.524151 
L 208.692996 295.524151 
L 208.692996 294.820404 
L 208.928274 294.820404 
L 208.958681 293.41291 
L 209.040339 293.41291 
L 209.126343 291.30167 
L 209.499074 291.30167 
L 209.549219 287.079189 
L 209.658239 287.079189 
L 209.658239 286.375442 
L 209.845513 286.375442 
L 209.845513 284.967948 
L 210.162338 284.967948 
L 210.162338 284.264201 
L 210.303685 284.264201 
L 210.402541 279.337973 
L 210.441961 279.337973 
L 210.514054 272.300505 
L 210.804441 272.300505 
L 210.82381 270.189264 
L 211.58523 270.189264 
L 211.601861 267.374277 
L 211.765435 267.374277 
L 211.874511 264.559289 
L 211.876564 264.559289 
L 211.97693 261.744302 
L 212.09922 261.744302 
L 212.149979 257.521821 
L 212.283433 257.521821 
L 212.382003 254.706834 
L 212.494128 254.706834 
L 212.597746 252.595593 
L 212.617618 252.595593 
L 212.617618 251.891846 
L 212.811438 251.891846 
L 212.901841 250.484353 
L 212.923406 250.484353 
L 213.007506 249.076859 
L 213.091292 249.076859 
L 213.170892 244.150631 
L 213.240553 244.150631 
L 213.240553 243.446884 
L 213.363864 243.446884 
L 213.363864 242.03939 
L 213.507513 242.03939 
L 213.507513 241.335644 
L 213.652148 241.335644 
L 213.712769 239.92815 
L 213.844812 239.92815 
L 213.844812 239.224403 
L 214.080552 239.224403 
L 214.080552 238.520656 
L 214.276976 238.520656 
L 214.308318 235.705669 
L 214.641162 235.705669 
L 214.672002 232.890681 
L 214.845365 232.890681 
L 214.906446 230.075694 
L 215.006689 230.075694 
L 215.006689 228.6682 
L 215.216463 228.6682 
L 215.295949 225.149466 
L 215.392718 225.149466 
L 215.471584 220.926985 
L 215.518772 220.926985 
L 215.518772 219.519491 
L 215.654537 219.519491 
L 215.654537 218.815745 
L 215.829126 218.815745 
L 215.829126 216.000757 
L 215.949338 216.000757 
L 215.949338 215.29701 
L 216.106359 215.29701 
L 216.160719 213.889517 
L 216.250465 213.889517 
L 216.334804 211.074529 
L 216.375174 211.074529 
L 216.427213 209.667036 
L 216.500867 209.667036 
L 216.557617 208.259542 
L 216.614224 208.259542 
L 216.715428 206.148301 
L 216.756774 206.148301 
L 216.855695 204.037061 
L 217.00163 204.037061 
L 217.088087 202.629567 
L 217.238997 202.629567 
L 217.287462 201.222073 
L 217.491482 201.222073 
L 217.491482 200.518327 
L 217.638128 200.518327 
L 217.725342 197.703339 
L 217.769613 197.703339 
L 217.848451 196.295845 
L 217.975584 196.295845 
L 217.975584 195.592099 
L 218.269463 195.592099 
L 218.269463 194.888352 
L 218.395781 194.888352 
L 218.503055 191.369618 
L 218.519866 191.369618 
L 218.608298 188.55463 
L 218.647827 188.55463 
L 218.647827 187.850883 
L 218.845943 187.850883 
L 218.943601 185.035896 
L 218.966077 185.035896 
L 219.02441 182.220909 
L 219.121297 182.220909 
L 219.121297 180.813415 
L 219.262155 180.813415 
L 219.34772 177.998427 
L 219.49156 177.998427 
L 219.567511 176.590934 
L 219.920511 176.590934 
L 219.99932 175.18344 
L 220.146171 175.18344 
L 220.146171 174.479693 
L 220.349881 174.479693 
L 220.4258 172.368453 
L 220.547576 172.368453 
L 220.571294 169.553465 
L 220.863618 169.553465 
L 220.863618 167.442225 
L 221.093681 167.442225 
L 221.168491 165.330984 
L 221.26064 165.330984 
L 221.363185 161.81225 
L 221.434421 161.81225 
L 221.455882 158.997263 
L 221.650772 158.997263 
L 221.664059 156.886022 
L 221.916346 156.886022 
L 222.009411 153.367288 
L 222.027716 153.367288 
L 222.027716 151.959794 
L 222.256579 151.959794 
L 222.256579 151.256047 
L 222.50234 151.256047 
L 222.50234 149.144807 
L 222.737846 149.144807 
L 222.806126 146.329819 
L 222.929513 146.329819 
L 223.017235 143.514832 
L 223.206546 143.514832 
L 223.314188 140.699845 
L 223.352419 140.699845 
L 223.423774 137.18111 
L 223.496128 137.18111 
L 223.516933 135.06987 
L 223.757837 135.06987 
L 223.85083 132.958629 
L 223.906201 132.958629 
L 223.959037 130.143642 
L 224.132282 130.143642 
L 224.203582 126.624908 
L 224.299478 126.624908 
L 224.299478 125.217414 
L 224.484195 125.217414 
L 224.576571 121.69868 
L 224.632514 121.69868 
L 224.632514 120.994933 
L 224.798355 120.994933 
L 224.868728 119.587439 
L 224.925098 119.587439 
L 224.925098 118.179946 
L 225.107046 118.179946 
L 225.201443 113.253718 
L 225.316909 113.253718 
L 225.316909 112.549971 
L 225.533779 112.549971 
L 225.533779 111.846224 
L 225.676465 111.846224 
L 225.700898 110.43873 
L 226.024892 110.43873 
L 226.105711 108.32749 
L 226.187327 108.32749 
L 226.292446 106.216249 
L 226.298932 106.216249 
L 226.407835 104.105009 
L 226.418589 104.105009 
L 226.48086 102.697515 
L 226.646432 102.697515 
L 226.646432 101.993768 
L 226.763199 101.993768 
L 226.763199 99.882528 
L 226.902525 99.882528 
L 226.902525 99.178781 
L 227.260573 99.178781 
L 227.320558 95.660047 
L 227.531301 95.660047 
L 227.604852 93.548806 
L 227.650699 93.548806 
L 227.725889 90.733819 
L 227.85435 90.733819 
L 227.918808 89.326325 
L 228.467226 89.326325 
L 228.543652 87.918831 
L 228.656833 87.918831 
L 228.706414 84.400097 
L 228.840028 84.400097 
L 228.840028 83.69635 
L 228.975732 83.69635 
L 228.975732 82.992603 
L 229.171583 82.992603 
L 229.280707 78.066375 
L 229.287333 78.066375 
L 229.387421 76.658882 
L 229.446697 76.658882 
L 229.446697 75.955135 
L 229.562913 75.955135 
L 229.625457 73.140148 
L 229.705485 73.140148 
L 229.705485 72.436401 
L 229.821298 72.436401 
L 229.909839 69.621413 
L 230.138792 69.621413 
L 230.204301 67.510173 
L 230.259652 67.510173 
L 230.296779 65.398932 
L 230.446473 65.398932 
L 230.516469 63.991439 
L 230.627298 63.991439 
L 230.702066 61.880198 
L 230.821711 61.880198 
L 230.884381 57.657717 
L 230.982009 57.657717 
L 231.056484 54.84273 
L 231.166429 54.84273 
L 231.256775 53.435236 
L 231.359708 53.435236 
L 231.359708 52.027742 
L 231.765095 52.027742 
L 231.871638 49.916502 
L 232.20573 49.916502 
L 232.290346 47.101514 
L 232.421616 47.101514 
L 232.421616 46.397767 
L 232.646047 46.397767 
L 232.646047 45.694021 
L 232.822213 45.694021 
L 232.860995 43.58278 
L 232.949618 43.58278 
L 232.949618 42.175286 
L 233.142572 42.175286 
L 233.230889 40.767793 
L 233.520447 40.767793 
L 233.520447 40.064046 
L 233.646306 40.064046 
L 233.646306 39.360299 
L 233.810192 39.360299 
L 233.887448 37.249058 
L 234.129846 37.249058 
L 234.236408 33.730324 
L 234.457806 33.730324 
L 234.457806 32.322831 
L 234.594239 32.322831 
L 234.594239 31.619084 
L 234.756578 31.619084 
L 234.843223 30.21159 
L 235.270061 30.21159 
L 235.270061 29.507843 
L 235.512429 29.507843 
L 235.512429 28.100349 
L 235.951503 28.100349 
L 235.951503 27.396603 
L 236.543788 27.396603 
L 236.543788 26.692856 
L 236.70834 26.692856 
L 236.70834 25.989109 
L 416.908065 25.989109 
L 416.908065 25.989109 
" style="fill:none;stroke:#adff2f;stroke-linecap:square;stroke-width:1.5;"/>
   </g>
   <g id="line2d_12">
    <defs>
     <path d="M 0 0 
L -6 -0 
M 0 0 
L 3 4.8 
M 0 0 
L 3 -4.8 
" id="mbb1ac5c9eb" style="stroke:#adff2f;stroke-width:1.5;"/>
    </defs>
    <g>
     <use style="fill:none;stroke:#adff2f;stroke-width:1.5;" x="205.694188947" xlink:href="#mbb1ac5c9eb" y="311.006581246"/>
     <use style="fill:none;stroke:#adff2f;stroke-width:1.5;" x="225.53377923" xlink:href="#mbb1ac5c9eb" y="111.846224034"/>
     <use style="fill:none;stroke:#adff2f;stroke-width:1.5;" x="236.708339663" xlink:href="#mbb1ac5c9eb" y="26.6928557562"/>
     <use style="fill:none;stroke:#adff2f;stroke-width:1.5;" x="236.708339663" xlink:href="#mbb1ac5c9eb" y="25.9891089109"/>
     <use style="fill:none;stroke:#adff2f;stroke-width:1.5;" x="416.908064516" xlink:href="#mbb1ac5c9eb" y="25.9891089109"/>
    </g>
   </g>
   <g id="line2d_13">
    <path d="M -15527.946774 743.810891 
" style="fill:none;stroke:#adff2f;stroke-linecap:square;stroke-width:1.5;"/>
    <g>
     <use style="fill:none;stroke:#adff2f;stroke-width:1.5;" x="-15527.9467742" xlink:href="#mbb1ac5c9eb" y="743.810891089"/>
    </g>
   </g>
   <g id="line2d_14">
    <path d="M 416.908065 25.989109 
L 456.770202 377.721782 
" style="fill:none;stroke:#6495ed;stroke-linecap:square;stroke-width:1.5;"/>
    <g>
     <use style="fill:none;stroke:#6495ed;stroke-linejoin:miter;stroke-width:1.5;" x="416.908064516" xlink:href="#m7f3abd60ef" y="25.9891089109"/>
     <use style="fill:none;stroke:#6495ed;stroke-linejoin:miter;stroke-width:1.5;" x="456.770201613" xlink:href="#m7f3abd60ef" y="377.721782178"/>
    </g>
   </g>
   <g id="line2d_15">
    <path d="M 416.908065 25.989109 
L 456.770202 205.444554 
" style="fill:none;stroke:#adff2f;stroke-linecap:square;stroke-width:1.5;"/>
    <g>
     <use style="fill:none;stroke:#adff2f;stroke-width:1.5;" x="416.908064516" xlink:href="#mbb1ac5c9eb" y="25.9891089109"/>
     <use style="fill:none;stroke:#adff2f;stroke-width:1.5;" x="456.770201613" xlink:href="#mbb1ac5c9eb" y="205.444554455"/>
    </g>
   </g>
   <g id="line2d_16">
    <path d="M 416.908065 384.9 
L 416.908065 25.989109 
" style="fill:none;stroke:#000000;stroke-linecap:square;"/>
   </g>
   <g id="patch_3">
    <path d="M 54.525 22.4 
L 503.88 22.4 
" style="fill:none;stroke:#000000;stroke-linecap:square;stroke-linejoin:miter;"/>
   </g>
   <g id="patch_4">
    <path d="M 503.88 384.9 
L 503.88 22.4 
" style="fill:none;stroke:#000000;stroke-linecap:square;stroke-linejoin:miter;"/>
   </g>
   <g id="patch_5">
    <path d="M 54.525 384.9 
L 503.88 384.9 
" style="fill:none;stroke:#000000;stroke-linecap:square;stroke-linejoin:miter;"/>
   </g>
   <g id="patch_6">
    <path d="M 54.525 384.9 
L 54.525 22.4 
" style="fill:none;stroke:#000000;stroke-linecap:square;stroke-linejoin:miter;"/>
   </g>
   <g id="matplotlib.axis_1">
    <g id="xtick_1">
     <g id="line2d_17">
      <path clip-path="url(#p175fcf95aa)" d="M 54.525 384.9 
L 54.525 22.4 
" style="fill:none;stroke:#000000;stroke-dasharray:1.000000,3.000000;stroke-dashoffset:0.0;stroke-width:0.5;"/>
     </g>
     <g id="line2d_18">
      <defs>
       <path d="M 0 0 
L 0 -4 
" id="m7a310cb229" style="stroke:#000000;stroke-width:0.5;"/>
      </defs>
      <g>
       <use style="stroke:#000000;stroke-width:0.5;" x="54.525" xlink:href="#m7a310cb229" y="384.9"/>
      </g>
     </g>
     <g id="line2d_19">
      <defs>
       <path d="M 0 0 
L 0 4 
" id="m2d980f90d2" style="stroke:#000000;stroke-width:0.5;"/>
      </defs>
      <g>
       <use style="stroke:#000000;stroke-width:0.5;" x="54.525" xlink:href="#m2d980f90d2" y="22.4"/>
      </g>
     </g>
     <g id="text_1">
      <!-- 0 -->
      <defs>
       <path d="M 31.78125 66.40625 
Q 24.171875 66.40625 20.328125 58.90625 
Q 16.5 51.421875 16.5 36.375 
Q 16.5 21.390625 20.328125 13.890625 
Q 24.171875 6.390625 31.78125 6.390625 
Q 39.453125 6.390625 43.28125 13.890625 
Q 47.125 21.390625 47.125 36.375 
Q 47.125 51.421875 43.28125 58.90625 
Q 39.453125 66.40625 31.78125 66.40625 
M 31.78125 74.21875 
Q 44.046875 74.21875 50.515625 64.515625 
Q 56.984375 54.828125 56.984375 36.375 
Q 56.984375 17.96875 50.515625 8.265625 
Q 44.046875 -1.421875 31.78125 -1.421875 
Q 19.53125 -1.421875 13.0625 8.265625 
Q 6.59375 17.96875 6.59375 36.375 
Q 6.59375 54.828125 13.0625 64.515625 
Q 19.53125 74.21875 31.78125 74.21875 
" id="BitstreamVeraSans-Roman-30"/>
      </defs>
      <g transform="translate(48.1625 404.096875)scale(0.2 -0.2)">
       <use xlink:href="#BitstreamVeraSans-Roman-30"/>
      </g>
     </g>
    </g>
    <g id="xtick_2">
     <g id="line2d_20">
      <path clip-path="url(#p175fcf95aa)" d="M 106.294009 384.9 
L 106.294009 22.4 
" style="fill:none;stroke:#000000;stroke-dasharray:1.000000,3.000000;stroke-dashoffset:0.0;stroke-width:0.5;"/>
     </g>
     <g id="line2d_21">
      <g>
       <use style="stroke:#000000;stroke-width:0.5;" x="106.294009217" xlink:href="#m7a310cb229" y="384.9"/>
      </g>
     </g>
     <g id="line2d_22">
      <g>
       <use style="stroke:#000000;stroke-width:0.5;" x="106.294009217" xlink:href="#m2d980f90d2" y="22.4"/>
      </g>
     </g>
     <g id="text_2">
      <!-- 1 -->
      <defs>
       <path d="M 12.40625 8.296875 
L 28.515625 8.296875 
L 28.515625 63.921875 
L 10.984375 60.40625 
L 10.984375 69.390625 
L 28.421875 72.90625 
L 38.28125 72.90625 
L 38.28125 8.296875 
L 54.390625 8.296875 
L 54.390625 0 
L 12.40625 0 
z
" id="BitstreamVeraSans-Roman-31"/>
      </defs>
      <g transform="translate(99.9315092166 404.096875)scale(0.2 -0.2)">
       <use xlink:href="#BitstreamVeraSans-Roman-31"/>
      </g>
     </g>
    </g>
    <g id="xtick_3">
     <g id="line2d_23">
      <path clip-path="url(#p175fcf95aa)" d="M 158.063018 384.9 
L 158.063018 22.4 
" style="fill:none;stroke:#000000;stroke-dasharray:1.000000,3.000000;stroke-dashoffset:0.0;stroke-width:0.5;"/>
     </g>
     <g id="line2d_24">
      <g>
       <use style="stroke:#000000;stroke-width:0.5;" x="158.063018433" xlink:href="#m7a310cb229" y="384.9"/>
      </g>
     </g>
     <g id="line2d_25">
      <g>
       <use style="stroke:#000000;stroke-width:0.5;" x="158.063018433" xlink:href="#m2d980f90d2" y="22.4"/>
      </g>
     </g>
     <g id="text_3">
      <!-- 2 -->
      <defs>
       <path d="M 19.1875 8.296875 
L 53.609375 8.296875 
L 53.609375 0 
L 7.328125 0 
L 7.328125 8.296875 
Q 12.9375 14.109375 22.625 23.890625 
Q 32.328125 33.6875 34.8125 36.53125 
Q 39.546875 41.84375 41.421875 45.53125 
Q 43.3125 49.21875 43.3125 52.78125 
Q 43.3125 58.59375 39.234375 62.25 
Q 35.15625 65.921875 28.609375 65.921875 
Q 23.96875 65.921875 18.8125 64.3125 
Q 13.671875 62.703125 7.8125 59.421875 
L 7.8125 69.390625 
Q 13.765625 71.78125 18.9375 73 
Q 24.125 74.21875 28.421875 74.21875 
Q 39.75 74.21875 46.484375 68.546875 
Q 53.21875 62.890625 53.21875 53.421875 
Q 53.21875 48.921875 51.53125 44.890625 
Q 49.859375 40.875 45.40625 35.40625 
Q 44.1875 33.984375 37.640625 27.21875 
Q 31.109375 20.453125 19.1875 8.296875 
" id="BitstreamVeraSans-Roman-32"/>
      </defs>
      <g transform="translate(151.700518433 404.096875)scale(0.2 -0.2)">
       <use xlink:href="#BitstreamVeraSans-Roman-32"/>
      </g>
     </g>
    </g>
    <g id="xtick_4">
     <g id="line2d_26">
      <path clip-path="url(#p175fcf95aa)" d="M 209.832028 384.9 
L 209.832028 22.4 
" style="fill:none;stroke:#000000;stroke-dasharray:1.000000,3.000000;stroke-dashoffset:0.0;stroke-width:0.5;"/>
     </g>
     <g id="line2d_27">
      <g>
       <use style="stroke:#000000;stroke-width:0.5;" x="209.83202765" xlink:href="#m7a310cb229" y="384.9"/>
      </g>
     </g>
     <g id="line2d_28">
      <g>
       <use style="stroke:#000000;stroke-width:0.5;" x="209.83202765" xlink:href="#m2d980f90d2" y="22.4"/>
      </g>
     </g>
     <g id="text_4">
      <!-- 3 -->
      <defs>
       <path d="M 40.578125 39.3125 
Q 47.65625 37.796875 51.625 33 
Q 55.609375 28.21875 55.609375 21.1875 
Q 55.609375 10.40625 48.1875 4.484375 
Q 40.765625 -1.421875 27.09375 -1.421875 
Q 22.515625 -1.421875 17.65625 -0.515625 
Q 12.796875 0.390625 7.625 2.203125 
L 7.625 11.71875 
Q 11.71875 9.328125 16.59375 8.109375 
Q 21.484375 6.890625 26.8125 6.890625 
Q 36.078125 6.890625 40.9375 10.546875 
Q 45.796875 14.203125 45.796875 21.1875 
Q 45.796875 27.640625 41.28125 31.265625 
Q 36.765625 34.90625 28.71875 34.90625 
L 20.21875 34.90625 
L 20.21875 43.015625 
L 29.109375 43.015625 
Q 36.375 43.015625 40.234375 45.921875 
Q 44.09375 48.828125 44.09375 54.296875 
Q 44.09375 59.90625 40.109375 62.90625 
Q 36.140625 65.921875 28.71875 65.921875 
Q 24.65625 65.921875 20.015625 65.03125 
Q 15.375 64.15625 9.8125 62.3125 
L 9.8125 71.09375 
Q 15.4375 72.65625 20.34375 73.4375 
Q 25.25 74.21875 29.59375 74.21875 
Q 40.828125 74.21875 47.359375 69.109375 
Q 53.90625 64.015625 53.90625 55.328125 
Q 53.90625 49.265625 50.4375 45.09375 
Q 46.96875 40.921875 40.578125 39.3125 
" id="BitstreamVeraSans-Roman-33"/>
      </defs>
      <g transform="translate(203.46952765 404.096875)scale(0.2 -0.2)">
       <use xlink:href="#BitstreamVeraSans-Roman-33"/>
      </g>
     </g>
    </g>
    <g id="xtick_5">
     <g id="line2d_29">
      <path clip-path="url(#p175fcf95aa)" d="M 261.601037 384.9 
L 261.601037 22.4 
" style="fill:none;stroke:#000000;stroke-dasharray:1.000000,3.000000;stroke-dashoffset:0.0;stroke-width:0.5;"/>
     </g>
     <g id="line2d_30">
      <g>
       <use style="stroke:#000000;stroke-width:0.5;" x="261.601036866" xlink:href="#m7a310cb229" y="384.9"/>
      </g>
     </g>
     <g id="line2d_31">
      <g>
       <use style="stroke:#000000;stroke-width:0.5;" x="261.601036866" xlink:href="#m2d980f90d2" y="22.4"/>
      </g>
     </g>
     <g id="text_5">
      <!-- 4 -->
      <defs>
       <path d="M 37.796875 64.3125 
L 12.890625 25.390625 
L 37.796875 25.390625 
z
M 35.203125 72.90625 
L 47.609375 72.90625 
L 47.609375 25.390625 
L 58.015625 25.390625 
L 58.015625 17.1875 
L 47.609375 17.1875 
L 47.609375 0 
L 37.796875 0 
L 37.796875 17.1875 
L 4.890625 17.1875 
L 4.890625 26.703125 
z
" id="BitstreamVeraSans-Roman-34"/>
      </defs>
      <g transform="translate(255.238536866 404.096875)scale(0.2 -0.2)">
       <use xlink:href="#BitstreamVeraSans-Roman-34"/>
      </g>
     </g>
    </g>
    <g id="xtick_6">
     <g id="line2d_32">
      <path clip-path="url(#p175fcf95aa)" d="M 313.370046 384.9 
L 313.370046 22.4 
" style="fill:none;stroke:#000000;stroke-dasharray:1.000000,3.000000;stroke-dashoffset:0.0;stroke-width:0.5;"/>
     </g>
     <g id="line2d_33">
      <g>
       <use style="stroke:#000000;stroke-width:0.5;" x="313.370046083" xlink:href="#m7a310cb229" y="384.9"/>
      </g>
     </g>
     <g id="line2d_34">
      <g>
       <use style="stroke:#000000;stroke-width:0.5;" x="313.370046083" xlink:href="#m2d980f90d2" y="22.4"/>
      </g>
     </g>
     <g id="text_6">
      <!-- 5 -->
      <defs>
       <path d="M 10.796875 72.90625 
L 49.515625 72.90625 
L 49.515625 64.59375 
L 19.828125 64.59375 
L 19.828125 46.734375 
Q 21.96875 47.46875 24.109375 47.828125 
Q 26.265625 48.1875 28.421875 48.1875 
Q 40.625 48.1875 47.75 41.5 
Q 54.890625 34.8125 54.890625 23.390625 
Q 54.890625 11.625 47.5625 5.09375 
Q 40.234375 -1.421875 26.90625 -1.421875 
Q 22.3125 -1.421875 17.546875 -0.640625 
Q 12.796875 0.140625 7.71875 1.703125 
L 7.71875 11.625 
Q 12.109375 9.234375 16.796875 8.0625 
Q 21.484375 6.890625 26.703125 6.890625 
Q 35.15625 6.890625 40.078125 11.328125 
Q 45.015625 15.765625 45.015625 23.390625 
Q 45.015625 31 40.078125 35.4375 
Q 35.15625 39.890625 26.703125 39.890625 
Q 22.75 39.890625 18.8125 39.015625 
Q 14.890625 38.140625 10.796875 36.28125 
z
" id="BitstreamVeraSans-Roman-35"/>
      </defs>
      <g transform="translate(307.007546083 404.096875)scale(0.2 -0.2)">
       <use xlink:href="#BitstreamVeraSans-Roman-35"/>
      </g>
     </g>
    </g>
    <g id="xtick_7">
     <g id="line2d_35">
      <path clip-path="url(#p175fcf95aa)" d="M 365.139055 384.9 
L 365.139055 22.4 
" style="fill:none;stroke:#000000;stroke-dasharray:1.000000,3.000000;stroke-dashoffset:0.0;stroke-width:0.5;"/>
     </g>
     <g id="line2d_36">
      <g>
       <use style="stroke:#000000;stroke-width:0.5;" x="365.1390553" xlink:href="#m7a310cb229" y="384.9"/>
      </g>
     </g>
     <g id="line2d_37">
      <g>
       <use style="stroke:#000000;stroke-width:0.5;" x="365.1390553" xlink:href="#m2d980f90d2" y="22.4"/>
      </g>
     </g>
     <g id="text_7">
      <!-- 6 -->
      <defs>
       <path d="M 33.015625 40.375 
Q 26.375 40.375 22.484375 35.828125 
Q 18.609375 31.296875 18.609375 23.390625 
Q 18.609375 15.53125 22.484375 10.953125 
Q 26.375 6.390625 33.015625 6.390625 
Q 39.65625 6.390625 43.53125 10.953125 
Q 47.40625 15.53125 47.40625 23.390625 
Q 47.40625 31.296875 43.53125 35.828125 
Q 39.65625 40.375 33.015625 40.375 
M 52.59375 71.296875 
L 52.59375 62.3125 
Q 48.875 64.0625 45.09375 64.984375 
Q 41.3125 65.921875 37.59375 65.921875 
Q 27.828125 65.921875 22.671875 59.328125 
Q 17.53125 52.734375 16.796875 39.40625 
Q 19.671875 43.65625 24.015625 45.921875 
Q 28.375 48.1875 33.59375 48.1875 
Q 44.578125 48.1875 50.953125 41.515625 
Q 57.328125 34.859375 57.328125 23.390625 
Q 57.328125 12.15625 50.6875 5.359375 
Q 44.046875 -1.421875 33.015625 -1.421875 
Q 20.359375 -1.421875 13.671875 8.265625 
Q 6.984375 17.96875 6.984375 36.375 
Q 6.984375 53.65625 15.1875 63.9375 
Q 23.390625 74.21875 37.203125 74.21875 
Q 40.921875 74.21875 44.703125 73.484375 
Q 48.484375 72.75 52.59375 71.296875 
" id="BitstreamVeraSans-Roman-36"/>
      </defs>
      <g transform="translate(358.7765553 404.096875)scale(0.2 -0.2)">
       <use xlink:href="#BitstreamVeraSans-Roman-36"/>
      </g>
     </g>
    </g>
    <g id="xtick_8">
     <g id="line2d_38">
      <path clip-path="url(#p175fcf95aa)" d="M 416.908065 384.9 
L 416.908065 22.4 
" style="fill:none;stroke:#000000;stroke-dasharray:1.000000,3.000000;stroke-dashoffset:0.0;stroke-width:0.5;"/>
     </g>
     <g id="line2d_39">
      <g>
       <use style="stroke:#000000;stroke-width:0.5;" x="416.908064516" xlink:href="#m7a310cb229" y="384.9"/>
      </g>
     </g>
     <g id="line2d_40">
      <g>
       <use style="stroke:#000000;stroke-width:0.5;" x="416.908064516" xlink:href="#m2d980f90d2" y="22.4"/>
      </g>
     </g>
     <g id="text_8">
      <!-- 7 -->
      <defs>
       <path d="M 8.203125 72.90625 
L 55.078125 72.90625 
L 55.078125 68.703125 
L 28.609375 0 
L 18.3125 0 
L 43.21875 64.59375 
L 8.203125 64.59375 
z
" id="BitstreamVeraSans-Roman-37"/>
      </defs>
      <g transform="translate(410.545564516 404.096875)scale(0.2 -0.2)">
       <use xlink:href="#BitstreamVeraSans-Roman-37"/>
      </g>
     </g>
    </g>
    <g id="xtick_9">
     <g id="line2d_41">
      <path clip-path="url(#p175fcf95aa)" d="M 468.677074 384.9 
L 468.677074 22.4 
" style="fill:none;stroke:#000000;stroke-dasharray:1.000000,3.000000;stroke-dashoffset:0.0;stroke-width:0.5;"/>
     </g>
     <g id="line2d_42">
      <g>
       <use style="stroke:#000000;stroke-width:0.5;" x="468.677073733" xlink:href="#m7a310cb229" y="384.9"/>
      </g>
     </g>
     <g id="line2d_43">
      <g>
       <use style="stroke:#000000;stroke-width:0.5;" x="468.677073733" xlink:href="#m2d980f90d2" y="22.4"/>
      </g>
     </g>
     <g id="text_9">
      <!-- 8 -->
      <defs>
       <path d="M 31.78125 34.625 
Q 24.75 34.625 20.71875 30.859375 
Q 16.703125 27.09375 16.703125 20.515625 
Q 16.703125 13.921875 20.71875 10.15625 
Q 24.75 6.390625 31.78125 6.390625 
Q 38.8125 6.390625 42.859375 10.171875 
Q 46.921875 13.96875 46.921875 20.515625 
Q 46.921875 27.09375 42.890625 30.859375 
Q 38.875 34.625 31.78125 34.625 
M 21.921875 38.8125 
Q 15.578125 40.375 12.03125 44.71875 
Q 8.5 49.078125 8.5 55.328125 
Q 8.5 64.0625 14.71875 69.140625 
Q 20.953125 74.21875 31.78125 74.21875 
Q 42.671875 74.21875 48.875 69.140625 
Q 55.078125 64.0625 55.078125 55.328125 
Q 55.078125 49.078125 51.53125 44.71875 
Q 48 40.375 41.703125 38.8125 
Q 48.828125 37.15625 52.796875 32.3125 
Q 56.78125 27.484375 56.78125 20.515625 
Q 56.78125 9.90625 50.3125 4.234375 
Q 43.84375 -1.421875 31.78125 -1.421875 
Q 19.734375 -1.421875 13.25 4.234375 
Q 6.78125 9.90625 6.78125 20.515625 
Q 6.78125 27.484375 10.78125 32.3125 
Q 14.796875 37.15625 21.921875 38.8125 
M 18.3125 54.390625 
Q 18.3125 48.734375 21.84375 45.5625 
Q 25.390625 42.390625 31.78125 42.390625 
Q 38.140625 42.390625 41.71875 45.5625 
Q 45.3125 48.734375 45.3125 54.390625 
Q 45.3125 60.0625 41.71875 63.234375 
Q 38.140625 66.40625 31.78125 66.40625 
Q 25.390625 66.40625 21.84375 63.234375 
Q 18.3125 60.0625 18.3125 54.390625 
" id="BitstreamVeraSans-Roman-38"/>
      </defs>
      <g transform="translate(462.314573733 404.096875)scale(0.2 -0.2)">
       <use xlink:href="#BitstreamVeraSans-Roman-38"/>
      </g>
     </g>
    </g>
    <g id="xtick_10">
     <g id="line2d_44">
      <defs>
       <path d="M 0 0 
L 0 -2 
" id="m31b504afed" style="stroke:#000000;stroke-width:0.5;"/>
      </defs>
      <g>
       <use style="stroke:#000000;stroke-width:0.5;" x="70.10902462" xlink:href="#m31b504afed" y="384.9"/>
      </g>
     </g>
     <g id="line2d_45">
      <defs>
       <path d="M 0 0 
L 0 2 
" id="m70d6cbf2d0" style="stroke:#000000;stroke-width:0.5;"/>
      </defs>
      <g>
       <use style="stroke:#000000;stroke-width:0.5;" x="70.10902462" xlink:href="#m70d6cbf2d0" y="22.4"/>
      </g>
     </g>
    </g>
    <g id="xtick_11">
     <g id="line2d_46">
      <g>
       <use style="stroke:#000000;stroke-width:0.5;" x="85.69304924" xlink:href="#m31b504afed" y="384.9"/>
      </g>
     </g>
     <g id="line2d_47">
      <g>
       <use style="stroke:#000000;stroke-width:0.5;" x="85.69304924" xlink:href="#m70d6cbf2d0" y="22.4"/>
      </g>
     </g>
    </g>
    <g id="xtick_12">
     <g id="line2d_48">
      <g>
       <use style="stroke:#000000;stroke-width:0.5;" x="94.809119253" xlink:href="#m31b504afed" y="384.9"/>
      </g>
     </g>
     <g id="line2d_49">
      <g>
       <use style="stroke:#000000;stroke-width:0.5;" x="94.809119253" xlink:href="#m70d6cbf2d0" y="22.4"/>
      </g>
     </g>
    </g>
    <g id="xtick_13">
     <g id="line2d_50">
      <g>
       <use style="stroke:#000000;stroke-width:0.5;" x="101.27707386" xlink:href="#m31b504afed" y="384.9"/>
      </g>
     </g>
     <g id="line2d_51">
      <g>
       <use style="stroke:#000000;stroke-width:0.5;" x="101.27707386" xlink:href="#m70d6cbf2d0" y="22.4"/>
      </g>
     </g>
    </g>
    <g id="xtick_14">
     <g id="line2d_52">
      <g>
       <use style="stroke:#000000;stroke-width:0.5;" x="121.878033837" xlink:href="#m31b504afed" y="384.9"/>
      </g>
     </g>
     <g id="line2d_53">
      <g>
       <use style="stroke:#000000;stroke-width:0.5;" x="121.878033837" xlink:href="#m70d6cbf2d0" y="22.4"/>
      </g>
     </g>
    </g>
    <g id="xtick_15">
     <g id="line2d_54">
      <g>
       <use style="stroke:#000000;stroke-width:0.5;" x="137.462058457" xlink:href="#m31b504afed" y="384.9"/>
      </g>
     </g>
     <g id="line2d_55">
      <g>
       <use style="stroke:#000000;stroke-width:0.5;" x="137.462058457" xlink:href="#m70d6cbf2d0" y="22.4"/>
      </g>
     </g>
    </g>
    <g id="xtick_16">
     <g id="line2d_56">
      <g>
       <use style="stroke:#000000;stroke-width:0.5;" x="146.57812847" xlink:href="#m31b504afed" y="384.9"/>
      </g>
     </g>
     <g id="line2d_57">
      <g>
       <use style="stroke:#000000;stroke-width:0.5;" x="146.57812847" xlink:href="#m70d6cbf2d0" y="22.4"/>
      </g>
     </g>
    </g>
    <g id="xtick_17">
     <g id="line2d_58">
      <g>
       <use style="stroke:#000000;stroke-width:0.5;" x="153.046083077" xlink:href="#m31b504afed" y="384.9"/>
      </g>
     </g>
     <g id="line2d_59">
      <g>
       <use style="stroke:#000000;stroke-width:0.5;" x="153.046083077" xlink:href="#m70d6cbf2d0" y="22.4"/>
      </g>
     </g>
    </g>
    <g id="xtick_18">
     <g id="line2d_60">
      <g>
       <use style="stroke:#000000;stroke-width:0.5;" x="173.647043053" xlink:href="#m31b504afed" y="384.9"/>
      </g>
     </g>
     <g id="line2d_61">
      <g>
       <use style="stroke:#000000;stroke-width:0.5;" x="173.647043053" xlink:href="#m70d6cbf2d0" y="22.4"/>
      </g>
     </g>
    </g>
    <g id="xtick_19">
     <g id="line2d_62">
      <g>
       <use style="stroke:#000000;stroke-width:0.5;" x="189.231067673" xlink:href="#m31b504afed" y="384.9"/>
      </g>
     </g>
     <g id="line2d_63">
      <g>
       <use style="stroke:#000000;stroke-width:0.5;" x="189.231067673" xlink:href="#m70d6cbf2d0" y="22.4"/>
      </g>
     </g>
    </g>
    <g id="xtick_20">
     <g id="line2d_64">
      <g>
       <use style="stroke:#000000;stroke-width:0.5;" x="198.347137686" xlink:href="#m31b504afed" y="384.9"/>
      </g>
     </g>
     <g id="line2d_65">
      <g>
       <use style="stroke:#000000;stroke-width:0.5;" x="198.347137686" xlink:href="#m70d6cbf2d0" y="22.4"/>
      </g>
     </g>
    </g>
    <g id="xtick_21">
     <g id="line2d_66">
      <g>
       <use style="stroke:#000000;stroke-width:0.5;" x="204.815092293" xlink:href="#m31b504afed" y="384.9"/>
      </g>
     </g>
     <g id="line2d_67">
      <g>
       <use style="stroke:#000000;stroke-width:0.5;" x="204.815092293" xlink:href="#m70d6cbf2d0" y="22.4"/>
      </g>
     </g>
    </g>
    <g id="xtick_22">
     <g id="line2d_68">
      <g>
       <use style="stroke:#000000;stroke-width:0.5;" x="225.41605227" xlink:href="#m31b504afed" y="384.9"/>
      </g>
     </g>
     <g id="line2d_69">
      <g>
       <use style="stroke:#000000;stroke-width:0.5;" x="225.41605227" xlink:href="#m70d6cbf2d0" y="22.4"/>
      </g>
     </g>
    </g>
    <g id="xtick_23">
     <g id="line2d_70">
      <g>
       <use style="stroke:#000000;stroke-width:0.5;" x="241.00007689" xlink:href="#m31b504afed" y="384.9"/>
      </g>
     </g>
     <g id="line2d_71">
      <g>
       <use style="stroke:#000000;stroke-width:0.5;" x="241.00007689" xlink:href="#m70d6cbf2d0" y="22.4"/>
      </g>
     </g>
    </g>
    <g id="xtick_24">
     <g id="line2d_72">
      <g>
       <use style="stroke:#000000;stroke-width:0.5;" x="250.116146903" xlink:href="#m31b504afed" y="384.9"/>
      </g>
     </g>
     <g id="line2d_73">
      <g>
       <use style="stroke:#000000;stroke-width:0.5;" x="250.116146903" xlink:href="#m70d6cbf2d0" y="22.4"/>
      </g>
     </g>
    </g>
    <g id="xtick_25">
     <g id="line2d_74">
      <g>
       <use style="stroke:#000000;stroke-width:0.5;" x="256.58410151" xlink:href="#m31b504afed" y="384.9"/>
      </g>
     </g>
     <g id="line2d_75">
      <g>
       <use style="stroke:#000000;stroke-width:0.5;" x="256.58410151" xlink:href="#m70d6cbf2d0" y="22.4"/>
      </g>
     </g>
    </g>
    <g id="xtick_26">
     <g id="line2d_76">
      <g>
       <use style="stroke:#000000;stroke-width:0.5;" x="277.185061486" xlink:href="#m31b504afed" y="384.9"/>
      </g>
     </g>
     <g id="line2d_77">
      <g>
       <use style="stroke:#000000;stroke-width:0.5;" x="277.185061486" xlink:href="#m70d6cbf2d0" y="22.4"/>
      </g>
     </g>
    </g>
    <g id="xtick_27">
     <g id="line2d_78">
      <g>
       <use style="stroke:#000000;stroke-width:0.5;" x="292.769086106" xlink:href="#m31b504afed" y="384.9"/>
      </g>
     </g>
     <g id="line2d_79">
      <g>
       <use style="stroke:#000000;stroke-width:0.5;" x="292.769086106" xlink:href="#m70d6cbf2d0" y="22.4"/>
      </g>
     </g>
    </g>
    <g id="xtick_28">
     <g id="line2d_80">
      <g>
       <use style="stroke:#000000;stroke-width:0.5;" x="301.885156119" xlink:href="#m31b504afed" y="384.9"/>
      </g>
     </g>
     <g id="line2d_81">
      <g>
       <use style="stroke:#000000;stroke-width:0.5;" x="301.885156119" xlink:href="#m70d6cbf2d0" y="22.4"/>
      </g>
     </g>
    </g>
    <g id="xtick_29">
     <g id="line2d_82">
      <g>
       <use style="stroke:#000000;stroke-width:0.5;" x="308.353110726" xlink:href="#m31b504afed" y="384.9"/>
      </g>
     </g>
     <g id="line2d_83">
      <g>
       <use style="stroke:#000000;stroke-width:0.5;" x="308.353110726" xlink:href="#m70d6cbf2d0" y="22.4"/>
      </g>
     </g>
    </g>
    <g id="xtick_30">
     <g id="line2d_84">
      <g>
       <use style="stroke:#000000;stroke-width:0.5;" x="328.954070703" xlink:href="#m31b504afed" y="384.9"/>
      </g>
     </g>
     <g id="line2d_85">
      <g>
       <use style="stroke:#000000;stroke-width:0.5;" x="328.954070703" xlink:href="#m70d6cbf2d0" y="22.4"/>
      </g>
     </g>
    </g>
    <g id="xtick_31">
     <g id="line2d_86">
      <g>
       <use style="stroke:#000000;stroke-width:0.5;" x="344.538095323" xlink:href="#m31b504afed" y="384.9"/>
      </g>
     </g>
     <g id="line2d_87">
      <g>
       <use style="stroke:#000000;stroke-width:0.5;" x="344.538095323" xlink:href="#m70d6cbf2d0" y="22.4"/>
      </g>
     </g>
    </g>
    <g id="xtick_32">
     <g id="line2d_88">
      <g>
       <use style="stroke:#000000;stroke-width:0.5;" x="353.654165336" xlink:href="#m31b504afed" y="384.9"/>
      </g>
     </g>
     <g id="line2d_89">
      <g>
       <use style="stroke:#000000;stroke-width:0.5;" x="353.654165336" xlink:href="#m70d6cbf2d0" y="22.4"/>
      </g>
     </g>
    </g>
    <g id="xtick_33">
     <g id="line2d_90">
      <g>
       <use style="stroke:#000000;stroke-width:0.5;" x="360.122119943" xlink:href="#m31b504afed" y="384.9"/>
      </g>
     </g>
     <g id="line2d_91">
      <g>
       <use style="stroke:#000000;stroke-width:0.5;" x="360.122119943" xlink:href="#m70d6cbf2d0" y="22.4"/>
      </g>
     </g>
    </g>
    <g id="xtick_34">
     <g id="line2d_92">
      <g>
       <use style="stroke:#000000;stroke-width:0.5;" x="380.72307992" xlink:href="#m31b504afed" y="384.9"/>
      </g>
     </g>
     <g id="line2d_93">
      <g>
       <use style="stroke:#000000;stroke-width:0.5;" x="380.72307992" xlink:href="#m70d6cbf2d0" y="22.4"/>
      </g>
     </g>
    </g>
    <g id="xtick_35">
     <g id="line2d_94">
      <g>
       <use style="stroke:#000000;stroke-width:0.5;" x="396.30710454" xlink:href="#m31b504afed" y="384.9"/>
      </g>
     </g>
     <g id="line2d_95">
      <g>
       <use style="stroke:#000000;stroke-width:0.5;" x="396.30710454" xlink:href="#m70d6cbf2d0" y="22.4"/>
      </g>
     </g>
    </g>
    <g id="xtick_36">
     <g id="line2d_96">
      <g>
       <use style="stroke:#000000;stroke-width:0.5;" x="405.423174553" xlink:href="#m31b504afed" y="384.9"/>
      </g>
     </g>
     <g id="line2d_97">
      <g>
       <use style="stroke:#000000;stroke-width:0.5;" x="405.423174553" xlink:href="#m70d6cbf2d0" y="22.4"/>
      </g>
     </g>
    </g>
    <g id="xtick_37">
     <g id="line2d_98">
      <g>
       <use style="stroke:#000000;stroke-width:0.5;" x="411.89112916" xlink:href="#m31b504afed" y="384.9"/>
      </g>
     </g>
     <g id="line2d_99">
      <g>
       <use style="stroke:#000000;stroke-width:0.5;" x="411.89112916" xlink:href="#m70d6cbf2d0" y="22.4"/>
      </g>
     </g>
    </g>
    <g id="xtick_38">
     <g id="line2d_100">
      <g>
       <use style="stroke:#000000;stroke-width:0.5;" x="432.492089136" xlink:href="#m31b504afed" y="384.9"/>
      </g>
     </g>
     <g id="line2d_101">
      <g>
       <use style="stroke:#000000;stroke-width:0.5;" x="432.492089136" xlink:href="#m70d6cbf2d0" y="22.4"/>
      </g>
     </g>
    </g>
    <g id="xtick_39">
     <g id="line2d_102">
      <g>
       <use style="stroke:#000000;stroke-width:0.5;" x="448.076113756" xlink:href="#m31b504afed" y="384.9"/>
      </g>
     </g>
     <g id="line2d_103">
      <g>
       <use style="stroke:#000000;stroke-width:0.5;" x="448.076113756" xlink:href="#m70d6cbf2d0" y="22.4"/>
      </g>
     </g>
    </g>
    <g id="xtick_40">
     <g id="line2d_104">
      <g>
       <use style="stroke:#000000;stroke-width:0.5;" x="457.192183769" xlink:href="#m31b504afed" y="384.9"/>
      </g>
     </g>
     <g id="line2d_105">
      <g>
       <use style="stroke:#000000;stroke-width:0.5;" x="457.192183769" xlink:href="#m70d6cbf2d0" y="22.4"/>
      </g>
     </g>
    </g>
    <g id="xtick_41">
     <g id="line2d_106">
      <g>
       <use style="stroke:#000000;stroke-width:0.5;" x="463.660138376" xlink:href="#m31b504afed" y="384.9"/>
      </g>
     </g>
     <g id="line2d_107">
      <g>
       <use style="stroke:#000000;stroke-width:0.5;" x="463.660138376" xlink:href="#m70d6cbf2d0" y="22.4"/>
      </g>
     </g>
    </g>
    <g id="xtick_42">
     <g id="line2d_108">
      <g>
       <use style="stroke:#000000;stroke-width:0.5;" x="484.261098353" xlink:href="#m31b504afed" y="384.9"/>
      </g>
     </g>
     <g id="line2d_109">
      <g>
       <use style="stroke:#000000;stroke-width:0.5;" x="484.261098353" xlink:href="#m70d6cbf2d0" y="22.4"/>
      </g>
     </g>
    </g>
    <g id="xtick_43">
     <g id="line2d_110">
      <g>
       <use style="stroke:#000000;stroke-width:0.5;" x="499.845122973" xlink:href="#m31b504afed" y="384.9"/>
      </g>
     </g>
     <g id="line2d_111">
      <g>
       <use style="stroke:#000000;stroke-width:0.5;" x="499.845122973" xlink:href="#m70d6cbf2d0" y="22.4"/>
      </g>
     </g>
    </g>
    <g id="text_10">
     <!-- log10(# f-evals / dimension) -->
     <defs>
      <path id="BitstreamVeraSans-Roman-20"/>
      <path d="M 51.125 44 
L 36.921875 44 
L 32.8125 27.6875 
L 47.125 27.6875 
z
M 43.796875 71.78125 
L 38.71875 51.515625 
L 52.984375 51.515625 
L 58.109375 71.78125 
L 65.921875 71.78125 
L 60.890625 51.515625 
L 76.125 51.515625 
L 76.125 44 
L 58.984375 44 
L 54.984375 27.6875 
L 70.515625 27.6875 
L 70.515625 20.21875 
L 53.078125 20.21875 
L 48 0 
L 40.1875 0 
L 45.21875 20.21875 
L 30.90625 20.21875 
L 25.875 0 
L 18.015625 0 
L 23.09375 20.21875 
L 7.71875 20.21875 
L 7.71875 27.6875 
L 24.90625 27.6875 
L 29 44 
L 13.28125 44 
L 13.28125 51.515625 
L 30.90625 51.515625 
L 35.890625 71.78125 
z
" id="BitstreamVeraSans-Roman-23"/>
      <path d="M 52 44.1875 
Q 55.375 50.25 60.0625 53.125 
Q 64.75 56 71.09375 56 
Q 79.640625 56 84.28125 50.015625 
Q 88.921875 44.046875 88.921875 33.015625 
L 88.921875 0 
L 79.890625 0 
L 79.890625 32.71875 
Q 79.890625 40.578125 77.09375 44.375 
Q 74.3125 48.1875 68.609375 48.1875 
Q 61.625 48.1875 57.5625 43.546875 
Q 53.515625 38.921875 53.515625 30.90625 
L 53.515625 0 
L 44.484375 0 
L 44.484375 32.71875 
Q 44.484375 40.625 41.703125 44.40625 
Q 38.921875 48.1875 33.109375 48.1875 
Q 26.21875 48.1875 22.15625 43.53125 
Q 18.109375 38.875 18.109375 30.90625 
L 18.109375 0 
L 9.078125 0 
L 9.078125 54.6875 
L 18.109375 54.6875 
L 18.109375 46.1875 
Q 21.1875 51.21875 25.484375 53.609375 
Q 29.78125 56 35.6875 56 
Q 41.65625 56 45.828125 52.96875 
Q 50 49.953125 52 44.1875 
" id="BitstreamVeraSans-Roman-6d"/>
      <path d="M 54.890625 33.015625 
L 54.890625 0 
L 45.90625 0 
L 45.90625 32.71875 
Q 45.90625 40.484375 42.875 44.328125 
Q 39.84375 48.1875 33.796875 48.1875 
Q 26.515625 48.1875 22.3125 43.546875 
Q 18.109375 38.921875 18.109375 30.90625 
L 18.109375 0 
L 9.078125 0 
L 9.078125 54.6875 
L 18.109375 54.6875 
L 18.109375 46.1875 
Q 21.34375 51.125 25.703125 53.5625 
Q 30.078125 56 35.796875 56 
Q 45.21875 56 50.046875 50.171875 
Q 54.890625 44.34375 54.890625 33.015625 
" id="BitstreamVeraSans-Roman-6e"/>
      <path d="M 31 75.875 
Q 24.46875 64.65625 21.28125 53.65625 
Q 18.109375 42.671875 18.109375 31.390625 
Q 18.109375 20.125 21.3125 9.0625 
Q 24.515625 -2 31 -13.1875 
L 23.1875 -13.1875 
Q 15.875 -1.703125 12.234375 9.375 
Q 8.59375 20.453125 8.59375 31.390625 
Q 8.59375 42.28125 12.203125 53.3125 
Q 15.828125 64.359375 23.1875 75.875 
z
" id="BitstreamVeraSans-Roman-28"/>
      <path d="M 30.609375 48.390625 
Q 23.390625 48.390625 19.1875 42.75 
Q 14.984375 37.109375 14.984375 27.296875 
Q 14.984375 17.484375 19.15625 11.84375 
Q 23.34375 6.203125 30.609375 6.203125 
Q 37.796875 6.203125 41.984375 11.859375 
Q 46.1875 17.53125 46.1875 27.296875 
Q 46.1875 37.015625 41.984375 42.703125 
Q 37.796875 48.390625 30.609375 48.390625 
M 30.609375 56 
Q 42.328125 56 49.015625 48.375 
Q 55.71875 40.765625 55.71875 27.296875 
Q 55.71875 13.875 49.015625 6.21875 
Q 42.328125 -1.421875 30.609375 -1.421875 
Q 18.84375 -1.421875 12.171875 6.21875 
Q 5.515625 13.875 5.515625 27.296875 
Q 5.515625 40.765625 12.171875 48.375 
Q 18.84375 56 30.609375 56 
" id="BitstreamVeraSans-Roman-6f"/>
      <path d="M 9.421875 75.984375 
L 18.40625 75.984375 
L 18.40625 0 
L 9.421875 0 
z
" id="BitstreamVeraSans-Roman-6c"/>
      <path d="M 2.984375 54.6875 
L 12.5 54.6875 
L 29.59375 8.796875 
L 46.6875 54.6875 
L 56.203125 54.6875 
L 35.6875 0 
L 23.484375 0 
z
" id="BitstreamVeraSans-Roman-76"/>
      <path d="M 9.421875 54.6875 
L 18.40625 54.6875 
L 18.40625 0 
L 9.421875 0 
z
M 9.421875 75.984375 
L 18.40625 75.984375 
L 18.40625 64.59375 
L 9.421875 64.59375 
z
" id="BitstreamVeraSans-Roman-69"/>
      <path d="M 4.890625 31.390625 
L 31.203125 31.390625 
L 31.203125 23.390625 
L 4.890625 23.390625 
z
" id="BitstreamVeraSans-Roman-2d"/>
      <path d="M 25.390625 72.90625 
L 33.6875 72.90625 
L 8.296875 -9.28125 
L 0 -9.28125 
z
" id="BitstreamVeraSans-Roman-2f"/>
      <path d="M 56.203125 29.59375 
L 56.203125 25.203125 
L 14.890625 25.203125 
Q 15.484375 15.921875 20.484375 11.0625 
Q 25.484375 6.203125 34.421875 6.203125 
Q 39.59375 6.203125 44.453125 7.46875 
Q 49.3125 8.734375 54.109375 11.28125 
L 54.109375 2.78125 
Q 49.265625 0.734375 44.1875 -0.34375 
Q 39.109375 -1.421875 33.890625 -1.421875 
Q 20.796875 -1.421875 13.15625 6.1875 
Q 5.515625 13.8125 5.515625 26.8125 
Q 5.515625 40.234375 12.765625 48.109375 
Q 20.015625 56 32.328125 56 
Q 43.359375 56 49.78125 48.890625 
Q 56.203125 41.796875 56.203125 29.59375 
M 47.21875 32.234375 
Q 47.125 39.59375 43.09375 43.984375 
Q 39.0625 48.390625 32.421875 48.390625 
Q 24.90625 48.390625 20.390625 44.140625 
Q 15.875 39.890625 15.1875 32.171875 
z
" id="BitstreamVeraSans-Roman-65"/>
      <path d="M 45.40625 46.390625 
L 45.40625 75.984375 
L 54.390625 75.984375 
L 54.390625 0 
L 45.40625 0 
L 45.40625 8.203125 
Q 42.578125 3.328125 38.25 0.953125 
Q 33.9375 -1.421875 27.875 -1.421875 
Q 17.96875 -1.421875 11.734375 6.484375 
Q 5.515625 14.40625 5.515625 27.296875 
Q 5.515625 40.1875 11.734375 48.09375 
Q 17.96875 56 27.875 56 
Q 33.9375 56 38.25 53.625 
Q 42.578125 51.265625 45.40625 46.390625 
M 14.796875 27.296875 
Q 14.796875 17.390625 18.875 11.75 
Q 22.953125 6.109375 30.078125 6.109375 
Q 37.203125 6.109375 41.296875 11.75 
Q 45.40625 17.390625 45.40625 27.296875 
Q 45.40625 37.203125 41.296875 42.84375 
Q 37.203125 48.484375 30.078125 48.484375 
Q 22.953125 48.484375 18.875 42.84375 
Q 14.796875 37.203125 14.796875 27.296875 
" id="BitstreamVeraSans-Roman-64"/>
      <path d="M 45.40625 27.984375 
Q 45.40625 37.75 41.375 43.109375 
Q 37.359375 48.484375 30.078125 48.484375 
Q 22.859375 48.484375 18.828125 43.109375 
Q 14.796875 37.75 14.796875 27.984375 
Q 14.796875 18.265625 18.828125 12.890625 
Q 22.859375 7.515625 30.078125 7.515625 
Q 37.359375 7.515625 41.375 12.890625 
Q 45.40625 18.265625 45.40625 27.984375 
M 54.390625 6.78125 
Q 54.390625 -7.171875 48.1875 -13.984375 
Q 42 -20.796875 29.203125 -20.796875 
Q 24.46875 -20.796875 20.265625 -20.09375 
Q 16.0625 -19.390625 12.109375 -17.921875 
L 12.109375 -9.1875 
Q 16.0625 -11.328125 19.921875 -12.34375 
Q 23.78125 -13.375 27.78125 -13.375 
Q 36.625 -13.375 41.015625 -8.765625 
Q 45.40625 -4.15625 45.40625 5.171875 
L 45.40625 9.625 
Q 42.625 4.78125 38.28125 2.390625 
Q 33.9375 0 27.875 0 
Q 17.828125 0 11.671875 7.65625 
Q 5.515625 15.328125 5.515625 27.984375 
Q 5.515625 40.671875 11.671875 48.328125 
Q 17.828125 56 27.875 56 
Q 33.9375 56 38.28125 53.609375 
Q 42.625 51.21875 45.40625 46.390625 
L 45.40625 54.6875 
L 54.390625 54.6875 
z
" id="BitstreamVeraSans-Roman-67"/>
      <path d="M 37.109375 75.984375 
L 37.109375 68.5 
L 28.515625 68.5 
Q 23.6875 68.5 21.796875 66.546875 
Q 19.921875 64.59375 19.921875 59.515625 
L 19.921875 54.6875 
L 34.71875 54.6875 
L 34.71875 47.703125 
L 19.921875 47.703125 
L 19.921875 0 
L 10.890625 0 
L 10.890625 47.703125 
L 2.296875 47.703125 
L 2.296875 54.6875 
L 10.890625 54.6875 
L 10.890625 58.5 
Q 10.890625 67.625 15.140625 71.796875 
Q 19.390625 75.984375 28.609375 75.984375 
z
" id="BitstreamVeraSans-Roman-66"/>
      <path d="M 34.28125 27.484375 
Q 23.390625 27.484375 19.1875 25 
Q 14.984375 22.515625 14.984375 16.5 
Q 14.984375 11.71875 18.140625 8.90625 
Q 21.296875 6.109375 26.703125 6.109375 
Q 34.1875 6.109375 38.703125 11.40625 
Q 43.21875 16.703125 43.21875 25.484375 
L 43.21875 27.484375 
z
M 52.203125 31.203125 
L 52.203125 0 
L 43.21875 0 
L 43.21875 8.296875 
Q 40.140625 3.328125 35.546875 0.953125 
Q 30.953125 -1.421875 24.3125 -1.421875 
Q 15.921875 -1.421875 10.953125 3.296875 
Q 6 8.015625 6 15.921875 
Q 6 25.140625 12.171875 29.828125 
Q 18.359375 34.515625 30.609375 34.515625 
L 43.21875 34.515625 
L 43.21875 35.40625 
Q 43.21875 41.609375 39.140625 45 
Q 35.0625 48.390625 27.6875 48.390625 
Q 23 48.390625 18.546875 47.265625 
Q 14.109375 46.140625 10.015625 43.890625 
L 10.015625 52.203125 
Q 14.9375 54.109375 19.578125 55.046875 
Q 24.21875 56 28.609375 56 
Q 40.484375 56 46.34375 49.84375 
Q 52.203125 43.703125 52.203125 31.203125 
" id="BitstreamVeraSans-Roman-61"/>
      <path d="M 44.28125 53.078125 
L 44.28125 44.578125 
Q 40.484375 46.53125 36.375 47.5 
Q 32.28125 48.484375 27.875 48.484375 
Q 21.1875 48.484375 17.84375 46.4375 
Q 14.5 44.390625 14.5 40.28125 
Q 14.5 37.15625 16.890625 35.375 
Q 19.28125 33.59375 26.515625 31.984375 
L 29.59375 31.296875 
Q 39.15625 29.25 43.1875 25.515625 
Q 47.21875 21.78125 47.21875 15.09375 
Q 47.21875 7.46875 41.1875 3.015625 
Q 35.15625 -1.421875 24.609375 -1.421875 
Q 20.21875 -1.421875 15.453125 -0.5625 
Q 10.6875 0.296875 5.421875 2 
L 5.421875 11.28125 
Q 10.40625 8.6875 15.234375 7.390625 
Q 20.0625 6.109375 24.8125 6.109375 
Q 31.15625 6.109375 34.5625 8.28125 
Q 37.984375 10.453125 37.984375 14.40625 
Q 37.984375 18.0625 35.515625 20.015625 
Q 33.0625 21.96875 24.703125 23.78125 
L 21.578125 24.515625 
Q 13.234375 26.265625 9.515625 29.90625 
Q 5.8125 33.546875 5.8125 39.890625 
Q 5.8125 47.609375 11.28125 51.796875 
Q 16.75 56 26.8125 56 
Q 31.78125 56 36.171875 55.265625 
Q 40.578125 54.546875 44.28125 53.078125 
" id="BitstreamVeraSans-Roman-73"/>
      <path d="M 8.015625 75.875 
L 15.828125 75.875 
Q 23.140625 64.359375 26.78125 53.3125 
Q 30.421875 42.28125 30.421875 31.390625 
Q 30.421875 20.453125 26.78125 9.375 
Q 23.140625 -1.703125 15.828125 -13.1875 
L 8.015625 -13.1875 
Q 14.5 -2 17.703125 9.0625 
Q 20.90625 20.125 20.90625 31.390625 
Q 20.90625 42.671875 17.703125 53.65625 
Q 14.5 64.65625 8.015625 75.875 
" id="BitstreamVeraSans-Roman-29"/>
     </defs>
     <g transform="translate(158.36171875 426.17359375)scale(0.17 -0.17)">
      <use xlink:href="#BitstreamVeraSans-Roman-6c"/>
      <use x="27.783203125" xlink:href="#BitstreamVeraSans-Roman-6f"/>
      <use x="88.96484375" xlink:href="#BitstreamVeraSans-Roman-67"/>
      <use x="152.44140625" xlink:href="#BitstreamVeraSans-Roman-31"/>
      <use x="216.064453125" xlink:href="#BitstreamVeraSans-Roman-30"/>
      <use x="279.6875" xlink:href="#BitstreamVeraSans-Roman-28"/>
      <use x="318.701171875" xlink:href="#BitstreamVeraSans-Roman-23"/>
      <use x="402.490234375" xlink:href="#BitstreamVeraSans-Roman-20"/>
      <use x="434.27734375" xlink:href="#BitstreamVeraSans-Roman-66"/>
      <use x="469.404296875" xlink:href="#BitstreamVeraSans-Roman-2d"/>
      <use x="505.48828125" xlink:href="#BitstreamVeraSans-Roman-65"/>
      <use x="567.01171875" xlink:href="#BitstreamVeraSans-Roman-76"/>
      <use x="626.19140625" xlink:href="#BitstreamVeraSans-Roman-61"/>
      <use x="687.470703125" xlink:href="#BitstreamVeraSans-Roman-6c"/>
      <use x="715.25390625" xlink:href="#BitstreamVeraSans-Roman-73"/>
      <use x="767.353515625" xlink:href="#BitstreamVeraSans-Roman-20"/>
      <use x="799.140625" xlink:href="#BitstreamVeraSans-Roman-2f"/>
      <use x="832.83203125" xlink:href="#BitstreamVeraSans-Roman-20"/>
      <use x="864.619140625" xlink:href="#BitstreamVeraSans-Roman-64"/>
      <use x="928.095703125" xlink:href="#BitstreamVeraSans-Roman-69"/>
      <use x="955.87890625" xlink:href="#BitstreamVeraSans-Roman-6d"/>
      <use x="1053.29101562" xlink:href="#BitstreamVeraSans-Roman-65"/>
      <use x="1114.81445312" xlink:href="#BitstreamVeraSans-Roman-6e"/>
      <use x="1178.19335938" xlink:href="#BitstreamVeraSans-Roman-73"/>
      <use x="1230.29296875" xlink:href="#BitstreamVeraSans-Roman-69"/>
      <use x="1258.07617188" xlink:href="#BitstreamVeraSans-Roman-6f"/>
      <use x="1319.2578125" xlink:href="#BitstreamVeraSans-Roman-6e"/>
      <use x="1382.63671875" xlink:href="#BitstreamVeraSans-Roman-29"/>
     </g>
    </g>
   </g>
   <g id="matplotlib.axis_2">
    <g id="ytick_1">
     <g id="line2d_112">
      <path clip-path="url(#p175fcf95aa)" d="M 54.525 384.9 
L 503.88 384.9 
" style="fill:none;stroke:#000000;stroke-dasharray:1.000000,3.000000;stroke-dashoffset:0.0;stroke-width:0.5;"/>
     </g>
     <g id="line2d_113">
      <defs>
       <path d="M 0 0 
L 4 0 
" id="medc32bdd21" style="stroke:#000000;stroke-width:0.5;"/>
      </defs>
      <g>
       <use style="stroke:#000000;stroke-width:0.5;" x="54.525" xlink:href="#medc32bdd21" y="384.9"/>
      </g>
     </g>
     <g id="line2d_114">
      <defs>
       <path d="M 0 0 
L -4 0 
" id="m171c04425e" style="stroke:#000000;stroke-width:0.5;"/>
      </defs>
      <g>
       <use style="stroke:#000000;stroke-width:0.5;" x="503.88" xlink:href="#m171c04425e" y="384.9"/>
      </g>
     </g>
     <g id="text_11">
      <!-- 0.0 -->
      <defs>
       <path d="M 10.6875 12.40625 
L 21 12.40625 
L 21 0 
L 10.6875 0 
z
" id="BitstreamVeraSans-Roman-2e"/>
      </defs>
      <g transform="translate(25.08 389.315)scale(0.16 -0.16)">
       <use xlink:href="#BitstreamVeraSans-Roman-30"/>
       <use x="63.623046875" xlink:href="#BitstreamVeraSans-Roman-2e"/>
       <use x="95.41015625" xlink:href="#BitstreamVeraSans-Roman-30"/>
      </g>
     </g>
    </g>
    <g id="ytick_2">
     <g id="line2d_115">
      <path clip-path="url(#p175fcf95aa)" d="M 54.525 313.117822 
L 503.88 313.117822 
" style="fill:none;stroke:#000000;stroke-dasharray:1.000000,3.000000;stroke-dashoffset:0.0;stroke-width:0.5;"/>
     </g>
     <g id="line2d_116">
      <g>
       <use style="stroke:#000000;stroke-width:0.5;" x="54.525" xlink:href="#medc32bdd21" y="313.117821782"/>
      </g>
     </g>
     <g id="line2d_117">
      <g>
       <use style="stroke:#000000;stroke-width:0.5;" x="503.88" xlink:href="#m171c04425e" y="313.117821782"/>
      </g>
     </g>
     <g id="text_12">
      <!-- 0.2 -->
      <g transform="translate(25.08 317.532821782)scale(0.16 -0.16)">
       <use xlink:href="#BitstreamVeraSans-Roman-30"/>
       <use x="63.623046875" xlink:href="#BitstreamVeraSans-Roman-2e"/>
       <use x="95.41015625" xlink:href="#BitstreamVeraSans-Roman-32"/>
      </g>
     </g>
    </g>
    <g id="ytick_3">
     <g id="line2d_118">
      <path clip-path="url(#p175fcf95aa)" d="M 54.525 241.335644 
L 503.88 241.335644 
" style="fill:none;stroke:#000000;stroke-dasharray:1.000000,3.000000;stroke-dashoffset:0.0;stroke-width:0.5;"/>
     </g>
     <g id="line2d_119">
      <g>
       <use style="stroke:#000000;stroke-width:0.5;" x="54.525" xlink:href="#medc32bdd21" y="241.335643564"/>
      </g>
     </g>
     <g id="line2d_120">
      <g>
       <use style="stroke:#000000;stroke-width:0.5;" x="503.88" xlink:href="#m171c04425e" y="241.335643564"/>
      </g>
     </g>
     <g id="text_13">
      <!-- 0.4 -->
      <g transform="translate(25.08 245.750643564)scale(0.16 -0.16)">
       <use xlink:href="#BitstreamVeraSans-Roman-30"/>
       <use x="63.623046875" xlink:href="#BitstreamVeraSans-Roman-2e"/>
       <use x="95.41015625" xlink:href="#BitstreamVeraSans-Roman-34"/>
      </g>
     </g>
    </g>
    <g id="ytick_4">
     <g id="line2d_121">
      <path clip-path="url(#p175fcf95aa)" d="M 54.525 169.553465 
L 503.88 169.553465 
" style="fill:none;stroke:#000000;stroke-dasharray:1.000000,3.000000;stroke-dashoffset:0.0;stroke-width:0.5;"/>
     </g>
     <g id="line2d_122">
      <g>
       <use style="stroke:#000000;stroke-width:0.5;" x="54.525" xlink:href="#medc32bdd21" y="169.553465347"/>
      </g>
     </g>
     <g id="line2d_123">
      <g>
       <use style="stroke:#000000;stroke-width:0.5;" x="503.88" xlink:href="#m171c04425e" y="169.553465347"/>
      </g>
     </g>
     <g id="text_14">
      <!-- 0.6 -->
      <g transform="translate(25.08 173.968465347)scale(0.16 -0.16)">
       <use xlink:href="#BitstreamVeraSans-Roman-30"/>
       <use x="63.623046875" xlink:href="#BitstreamVeraSans-Roman-2e"/>
       <use x="95.41015625" xlink:href="#BitstreamVeraSans-Roman-36"/>
      </g>
     </g>
    </g>
    <g id="ytick_5">
     <g id="line2d_124">
      <path clip-path="url(#p175fcf95aa)" d="M 54.525 97.771287 
L 503.88 97.771287 
" style="fill:none;stroke:#000000;stroke-dasharray:1.000000,3.000000;stroke-dashoffset:0.0;stroke-width:0.5;"/>
     </g>
     <g id="line2d_125">
      <g>
       <use style="stroke:#000000;stroke-width:0.5;" x="54.525" xlink:href="#medc32bdd21" y="97.7712871287"/>
      </g>
     </g>
     <g id="line2d_126">
      <g>
       <use style="stroke:#000000;stroke-width:0.5;" x="503.88" xlink:href="#m171c04425e" y="97.7712871287"/>
      </g>
     </g>
     <g id="text_15">
      <!-- 0.8 -->
      <g transform="translate(25.08 102.186287129)scale(0.16 -0.16)">
       <use xlink:href="#BitstreamVeraSans-Roman-30"/>
       <use x="63.623046875" xlink:href="#BitstreamVeraSans-Roman-2e"/>
       <use x="95.41015625" xlink:href="#BitstreamVeraSans-Roman-38"/>
      </g>
     </g>
    </g>
    <g id="ytick_6">
     <g id="line2d_127">
      <path clip-path="url(#p175fcf95aa)" d="M 54.525 25.989109 
L 503.88 25.989109 
" style="fill:none;stroke:#000000;stroke-dasharray:1.000000,3.000000;stroke-dashoffset:0.0;stroke-width:0.5;"/>
     </g>
     <g id="line2d_128">
      <g>
       <use style="stroke:#000000;stroke-width:0.5;" x="54.525" xlink:href="#medc32bdd21" y="25.9891089109"/>
      </g>
     </g>
     <g id="line2d_129">
      <g>
       <use style="stroke:#000000;stroke-width:0.5;" x="503.88" xlink:href="#m171c04425e" y="25.9891089109"/>
      </g>
     </g>
     <g id="text_16">
      <!-- 1.0 -->
      <g transform="translate(25.08 30.4041089109)scale(0.16 -0.16)">
       <use xlink:href="#BitstreamVeraSans-Roman-31"/>
       <use x="63.623046875" xlink:href="#BitstreamVeraSans-Roman-2e"/>
       <use x="95.41015625" xlink:href="#BitstreamVeraSans-Roman-30"/>
      </g>
     </g>
    </g>
    <g id="text_17">
     <!-- Fraction of function,target pairs -->
     <defs>
      <path d="M 9.8125 72.90625 
L 51.703125 72.90625 
L 51.703125 64.59375 
L 19.671875 64.59375 
L 19.671875 43.109375 
L 48.578125 43.109375 
L 48.578125 34.8125 
L 19.671875 34.8125 
L 19.671875 0 
L 9.8125 0 
z
" id="BitstreamVeraSans-Roman-46"/>
      <path d="M 11.71875 12.40625 
L 22.015625 12.40625 
L 22.015625 4 
L 14.015625 -11.625 
L 7.71875 -11.625 
L 11.71875 4 
z
" id="BitstreamVeraSans-Roman-2c"/>
      <path d="M 18.109375 8.203125 
L 18.109375 -20.796875 
L 9.078125 -20.796875 
L 9.078125 54.6875 
L 18.109375 54.6875 
L 18.109375 46.390625 
Q 20.953125 51.265625 25.265625 53.625 
Q 29.59375 56 35.59375 56 
Q 45.5625 56 51.78125 48.09375 
Q 58.015625 40.1875 58.015625 27.296875 
Q 58.015625 14.40625 51.78125 6.484375 
Q 45.5625 -1.421875 35.59375 -1.421875 
Q 29.59375 -1.421875 25.265625 0.953125 
Q 20.953125 3.328125 18.109375 8.203125 
M 48.6875 27.296875 
Q 48.6875 37.203125 44.609375 42.84375 
Q 40.53125 48.484375 33.40625 48.484375 
Q 26.265625 48.484375 22.1875 42.84375 
Q 18.109375 37.203125 18.109375 27.296875 
Q 18.109375 17.390625 22.1875 11.75 
Q 26.265625 6.109375 33.40625 6.109375 
Q 40.53125 6.109375 44.609375 11.75 
Q 48.6875 17.390625 48.6875 27.296875 
" id="BitstreamVeraSans-Roman-70"/>
      <path d="M 18.3125 70.21875 
L 18.3125 54.6875 
L 36.8125 54.6875 
L 36.8125 47.703125 
L 18.3125 47.703125 
L 18.3125 18.015625 
Q 18.3125 11.328125 20.140625 9.421875 
Q 21.96875 7.515625 27.59375 7.515625 
L 36.8125 7.515625 
L 36.8125 0 
L 27.59375 0 
Q 17.1875 0 13.234375 3.875 
Q 9.28125 7.765625 9.28125 18.015625 
L 9.28125 47.703125 
L 2.6875 47.703125 
L 2.6875 54.6875 
L 9.28125 54.6875 
L 9.28125 70.21875 
z
" id="BitstreamVeraSans-Roman-74"/>
      <path d="M 8.5 21.578125 
L 8.5 54.6875 
L 17.484375 54.6875 
L 17.484375 21.921875 
Q 17.484375 14.15625 20.5 10.265625 
Q 23.53125 6.390625 29.59375 6.390625 
Q 36.859375 6.390625 41.078125 11.03125 
Q 45.3125 15.671875 45.3125 23.6875 
L 45.3125 54.6875 
L 54.296875 54.6875 
L 54.296875 0 
L 45.3125 0 
L 45.3125 8.40625 
Q 42.046875 3.421875 37.71875 1 
Q 33.40625 -1.421875 27.6875 -1.421875 
Q 18.265625 -1.421875 13.375 4.4375 
Q 8.5 10.296875 8.5 21.578125 
" id="BitstreamVeraSans-Roman-75"/>
      <path d="M 41.109375 46.296875 
Q 39.59375 47.171875 37.8125 47.578125 
Q 36.03125 48 33.890625 48 
Q 26.265625 48 22.1875 43.046875 
Q 18.109375 38.09375 18.109375 28.8125 
L 18.109375 0 
L 9.078125 0 
L 9.078125 54.6875 
L 18.109375 54.6875 
L 18.109375 46.1875 
Q 20.953125 51.171875 25.484375 53.578125 
Q 30.03125 56 36.53125 56 
Q 37.453125 56 38.578125 55.875 
Q 39.703125 55.765625 41.0625 55.515625 
z
" id="BitstreamVeraSans-Roman-72"/>
      <path d="M 48.78125 52.59375 
L 48.78125 44.1875 
Q 44.96875 46.296875 41.140625 47.34375 
Q 37.3125 48.390625 33.40625 48.390625 
Q 24.65625 48.390625 19.8125 42.84375 
Q 14.984375 37.3125 14.984375 27.296875 
Q 14.984375 17.28125 19.8125 11.734375 
Q 24.65625 6.203125 33.40625 6.203125 
Q 37.3125 6.203125 41.140625 7.25 
Q 44.96875 8.296875 48.78125 10.40625 
L 48.78125 2.09375 
Q 45.015625 0.34375 40.984375 -0.53125 
Q 36.96875 -1.421875 32.421875 -1.421875 
Q 20.0625 -1.421875 12.78125 6.34375 
Q 5.515625 14.109375 5.515625 27.296875 
Q 5.515625 40.671875 12.859375 48.328125 
Q 20.21875 56 33.015625 56 
Q 37.15625 56 41.109375 55.140625 
Q 45.0625 54.296875 48.78125 52.59375 
" id="BitstreamVeraSans-Roman-63"/>
     </defs>
     <g transform="translate(16.54453125 338.789375)rotate(-90.0)scale(0.17 -0.17)">
      <use xlink:href="#BitstreamVeraSans-Roman-46"/>
      <use x="57.41015625" xlink:href="#BitstreamVeraSans-Roman-72"/>
      <use x="98.5234375" xlink:href="#BitstreamVeraSans-Roman-61"/>
      <use x="159.802734375" xlink:href="#BitstreamVeraSans-Roman-63"/>
      <use x="214.783203125" xlink:href="#BitstreamVeraSans-Roman-74"/>
      <use x="253.9921875" xlink:href="#BitstreamVeraSans-Roman-69"/>
      <use x="281.775390625" xlink:href="#BitstreamVeraSans-Roman-6f"/>
      <use x="342.95703125" xlink:href="#BitstreamVeraSans-Roman-6e"/>
      <use x="406.3359375" xlink:href="#BitstreamVeraSans-Roman-20"/>
      <use x="438.123046875" xlink:href="#BitstreamVeraSans-Roman-6f"/>
      <use x="499.3046875" xlink:href="#BitstreamVeraSans-Roman-66"/>
      <use x="534.509765625" xlink:href="#BitstreamVeraSans-Roman-20"/>
      <use x="566.296875" xlink:href="#BitstreamVeraSans-Roman-66"/>
      <use x="601.501953125" xlink:href="#BitstreamVeraSans-Roman-75"/>
      <use x="664.880859375" xlink:href="#BitstreamVeraSans-Roman-6e"/>
      <use x="728.259765625" xlink:href="#BitstreamVeraSans-Roman-63"/>
      <use x="783.240234375" xlink:href="#BitstreamVeraSans-Roman-74"/>
      <use x="822.44921875" xlink:href="#BitstreamVeraSans-Roman-69"/>
      <use x="850.232421875" xlink:href="#BitstreamVeraSans-Roman-6f"/>
      <use x="911.4140625" xlink:href="#BitstreamVeraSans-Roman-6e"/>
      <use x="974.79296875" xlink:href="#BitstreamVeraSans-Roman-2c"/>
      <use x="1006.58007812" xlink:href="#BitstreamVeraSans-Roman-74"/>
      <use x="1045.7890625" xlink:href="#BitstreamVeraSans-Roman-61"/>
      <use x="1107.06835938" xlink:href="#BitstreamVeraSans-Roman-72"/>
      <use x="1148.16601562" xlink:href="#BitstreamVeraSans-Roman-67"/>
      <use x="1211.64257812" xlink:href="#BitstreamVeraSans-Roman-65"/>
      <use x="1273.16601562" xlink:href="#BitstreamVeraSans-Roman-74"/>
      <use x="1312.375" xlink:href="#BitstreamVeraSans-Roman-20"/>
      <use x="1344.16210938" xlink:href="#BitstreamVeraSans-Roman-70"/>
      <use x="1407.63867188" xlink:href="#BitstreamVeraSans-Roman-61"/>
      <use x="1468.91796875" xlink:href="#BitstreamVeraSans-Roman-69"/>
      <use x="1496.70117188" xlink:href="#BitstreamVeraSans-Roman-72"/>
      <use x="1537.81445312" xlink:href="#BitstreamVeraSans-Roman-73"/>
     </g>
    </g>
   </g>
   <g id="text_18">
    <!-- CMAES -->
    <defs>
     <path d="M 9.8125 72.90625 
L 55.90625 72.90625 
L 55.90625 64.59375 
L 19.671875 64.59375 
L 19.671875 43.015625 
L 54.390625 43.015625 
L 54.390625 34.71875 
L 19.671875 34.71875 
L 19.671875 8.296875 
L 56.78125 8.296875 
L 56.78125 0 
L 9.8125 0 
z
" id="BitstreamVeraSans-Roman-45"/>
     <path d="M 9.8125 72.90625 
L 24.515625 72.90625 
L 43.109375 23.296875 
L 61.8125 72.90625 
L 76.515625 72.90625 
L 76.515625 0 
L 66.890625 0 
L 66.890625 64.015625 
L 48.09375 14.015625 
L 38.1875 14.015625 
L 19.390625 64.015625 
L 19.390625 0 
L 9.8125 0 
z
" id="BitstreamVeraSans-Roman-4d"/>
     <path d="M 64.40625 67.28125 
L 64.40625 56.890625 
Q 59.421875 61.53125 53.78125 63.8125 
Q 48.140625 66.109375 41.796875 66.109375 
Q 29.296875 66.109375 22.65625 58.46875 
Q 16.015625 50.828125 16.015625 36.375 
Q 16.015625 21.96875 22.65625 14.328125 
Q 29.296875 6.6875 41.796875 6.6875 
Q 48.140625 6.6875 53.78125 8.984375 
Q 59.421875 11.28125 64.40625 15.921875 
L 64.40625 5.609375 
Q 59.234375 2.09375 53.4375 0.328125 
Q 47.65625 -1.421875 41.21875 -1.421875 
Q 24.65625 -1.421875 15.125 8.703125 
Q 5.609375 18.84375 5.609375 36.375 
Q 5.609375 53.953125 15.125 64.078125 
Q 24.65625 74.21875 41.21875 74.21875 
Q 47.75 74.21875 53.53125 72.484375 
Q 59.328125 70.75 64.40625 67.28125 
" id="BitstreamVeraSans-Roman-43"/>
     <path d="M 53.515625 70.515625 
L 53.515625 60.890625 
Q 47.90625 63.578125 42.921875 64.890625 
Q 37.9375 66.21875 33.296875 66.21875 
Q 25.25 66.21875 20.875 63.09375 
Q 16.5 59.96875 16.5 54.203125 
Q 16.5 49.359375 19.40625 46.890625 
Q 22.3125 44.4375 30.421875 42.921875 
L 36.375 41.703125 
Q 47.40625 39.59375 52.65625 34.296875 
Q 57.90625 29 57.90625 20.125 
Q 57.90625 9.515625 50.796875 4.046875 
Q 43.703125 -1.421875 29.984375 -1.421875 
Q 24.8125 -1.421875 18.96875 -0.25 
Q 13.140625 0.921875 6.890625 3.21875 
L 6.890625 13.375 
Q 12.890625 10.015625 18.65625 8.296875 
Q 24.421875 6.59375 29.984375 6.59375 
Q 38.421875 6.59375 43.015625 9.90625 
Q 47.609375 13.234375 47.609375 19.390625 
Q 47.609375 24.75 44.3125 27.78125 
Q 41.015625 30.8125 33.5 32.328125 
L 27.484375 33.5 
Q 16.453125 35.6875 11.515625 40.375 
Q 6.59375 45.0625 6.59375 53.421875 
Q 6.59375 63.09375 13.40625 68.65625 
Q 20.21875 74.21875 32.171875 74.21875 
Q 37.3125 74.21875 42.625 73.28125 
Q 47.953125 72.359375 53.515625 70.515625 
" id="BitstreamVeraSans-Roman-53"/>
     <path d="M 34.1875 63.1875 
L 20.796875 26.90625 
L 47.609375 26.90625 
z
M 28.609375 72.90625 
L 39.796875 72.90625 
L 67.578125 0 
L 57.328125 0 
L 50.6875 18.703125 
L 17.828125 18.703125 
L 11.1875 0 
L 0.78125 0 
z
" id="BitstreamVeraSans-Roman-41"/>
    </defs>
    <g transform="translate(464.017862903 382.412719678)scale(0.17 -0.17)">
     <use xlink:href="#BitstreamVeraSans-Roman-43"/>
     <use x="69.82421875" xlink:href="#BitstreamVeraSans-Roman-4d"/>
     <use x="156.103515625" xlink:href="#BitstreamVeraSans-Roman-41"/>
     <use x="224.51171875" xlink:href="#BitstreamVeraSans-Roman-45"/>
     <use x="287.6953125" xlink:href="#BitstreamVeraSans-Roman-53"/>
    </g>
   </g>
   <g id="text_19">
    <!-- JADE -->
    <defs>
     <path d="M 19.671875 64.796875 
L 19.671875 8.109375 
L 31.59375 8.109375 
Q 46.6875 8.109375 53.6875 14.9375 
Q 60.6875 21.78125 60.6875 36.53125 
Q 60.6875 51.171875 53.6875 57.984375 
Q 46.6875 64.796875 31.59375 64.796875 
z
M 9.8125 72.90625 
L 30.078125 72.90625 
Q 51.265625 72.90625 61.171875 64.09375 
Q 71.09375 55.28125 71.09375 36.53125 
Q 71.09375 17.671875 61.125 8.828125 
Q 51.171875 0 30.078125 0 
L 9.8125 0 
z
" id="BitstreamVeraSans-Roman-44"/>
     <path d="M 9.8125 72.90625 
L 19.671875 72.90625 
L 19.671875 5.078125 
Q 19.671875 -8.109375 14.671875 -14.0625 
Q 9.671875 -20.015625 -1.421875 -20.015625 
L -5.171875 -20.015625 
L -5.171875 -11.71875 
L -2.09375 -11.71875 
Q 4.4375 -11.71875 7.125 -8.046875 
Q 9.8125 -4.390625 9.8125 5.078125 
z
" id="BitstreamVeraSans-Roman-4a"/>
    </defs>
    <g transform="translate(464.017862903 210.135491955)scale(0.17 -0.17)">
     <use xlink:href="#BitstreamVeraSans-Roman-4a"/>
     <use x="29.4765625" xlink:href="#BitstreamVeraSans-Roman-41"/>
     <use x="97.884765625" xlink:href="#BitstreamVeraSans-Roman-44"/>
     <use x="174.88671875" xlink:href="#BitstreamVeraSans-Roman-45"/>
    </g>
   </g>
   <g id="text_20">
    <!-- best 2009 -->
    <defs>
     <path d="M 10.984375 1.515625 
L 10.984375 10.5 
Q 14.703125 8.734375 18.5 7.8125 
Q 22.3125 6.890625 25.984375 6.890625 
Q 35.75 6.890625 40.890625 13.453125 
Q 46.046875 20.015625 46.78125 33.40625 
Q 43.953125 29.203125 39.59375 26.953125 
Q 35.25 24.703125 29.984375 24.703125 
Q 19.046875 24.703125 12.671875 31.3125 
Q 6.296875 37.9375 6.296875 49.421875 
Q 6.296875 60.640625 12.9375 67.421875 
Q 19.578125 74.21875 30.609375 74.21875 
Q 43.265625 74.21875 49.921875 64.515625 
Q 56.59375 54.828125 56.59375 36.375 
Q 56.59375 19.140625 48.40625 8.859375 
Q 40.234375 -1.421875 26.421875 -1.421875 
Q 22.703125 -1.421875 18.890625 -0.6875 
Q 15.09375 0.046875 10.984375 1.515625 
M 30.609375 32.421875 
Q 37.25 32.421875 41.125 36.953125 
Q 45.015625 41.5 45.015625 49.421875 
Q 45.015625 57.28125 41.125 61.84375 
Q 37.25 66.40625 30.609375 66.40625 
Q 23.96875 66.40625 20.09375 61.84375 
Q 16.21875 57.28125 16.21875 49.421875 
Q 16.21875 41.5 20.09375 36.953125 
Q 23.96875 32.421875 30.609375 32.421875 
" id="BitstreamVeraSans-Roman-39"/>
     <path d="M 48.6875 27.296875 
Q 48.6875 37.203125 44.609375 42.84375 
Q 40.53125 48.484375 33.40625 48.484375 
Q 26.265625 48.484375 22.1875 42.84375 
Q 18.109375 37.203125 18.109375 27.296875 
Q 18.109375 17.390625 22.1875 11.75 
Q 26.265625 6.109375 33.40625 6.109375 
Q 40.53125 6.109375 44.609375 11.75 
Q 48.6875 17.390625 48.6875 27.296875 
M 18.109375 46.390625 
Q 20.953125 51.265625 25.265625 53.625 
Q 29.59375 56 35.59375 56 
Q 45.5625 56 51.78125 48.09375 
Q 58.015625 40.1875 58.015625 27.296875 
Q 58.015625 14.40625 51.78125 6.484375 
Q 45.5625 -1.421875 35.59375 -1.421875 
Q 29.59375 -1.421875 25.265625 0.953125 
Q 20.953125 3.328125 18.109375 8.203125 
L 18.109375 0 
L 9.078125 0 
L 9.078125 75.984375 
L 18.109375 75.984375 
z
" id="BitstreamVeraSans-Roman-62"/>
    </defs>
    <g transform="translate(464.017862903 37.8582642327)scale(0.17 -0.17)">
     <use xlink:href="#BitstreamVeraSans-Roman-62"/>
     <use x="63.4765625" xlink:href="#BitstreamVeraSans-Roman-65"/>
     <use x="125.0" xlink:href="#BitstreamVeraSans-Roman-73"/>
     <use x="177.099609375" xlink:href="#BitstreamVeraSans-Roman-74"/>
     <use x="216.30859375" xlink:href="#BitstreamVeraSans-Roman-20"/>
     <use x="248.095703125" xlink:href="#BitstreamVeraSans-Roman-32"/>
     <use x="311.71875" xlink:href="#BitstreamVeraSans-Roman-30"/>
     <use x="375.341796875" xlink:href="#BitstreamVeraSans-Roman-30"/>
     <use x="438.96484375" xlink:href="#BitstreamVeraSans-Roman-39"/>
    </g>
   </g>
   <g id="text_21">
    <!-- bbob f13, 10-D -->
    <g transform="translate(59.01855 33.77540625)scale(0.102 -0.102)">
     <use xlink:href="#BitstreamVeraSans-Roman-62"/>
     <use x="63.4765625" xlink:href="#BitstreamVeraSans-Roman-62"/>
     <use x="126.953125" xlink:href="#BitstreamVeraSans-Roman-6f"/>
     <use x="188.134765625" xlink:href="#BitstreamVeraSans-Roman-62"/>
     <use x="251.611328125" xlink:href="#BitstreamVeraSans-Roman-20"/>
     <use x="283.3984375" xlink:href="#BitstreamVeraSans-Roman-66"/>
     <use x="318.603515625" xlink:href="#BitstreamVeraSans-Roman-31"/>
     <use x="382.2265625" xlink:href="#BitstreamVeraSans-Roman-33"/>
     <use x="445.849609375" xlink:href="#BitstreamVeraSans-Roman-2c"/>
     <use x="477.63671875" xlink:href="#BitstreamVeraSans-Roman-20"/>
     <use x="509.423828125" xlink:href="#BitstreamVeraSans-Roman-31"/>
     <use x="573.046875" xlink:href="#BitstreamVeraSans-Roman-30"/>
     <use x="636.669921875" xlink:href="#BitstreamVeraSans-Roman-2d"/>
     <use x="672.75390625" xlink:href="#BitstreamVeraSans-Roman-44"/>
    </g>
    <!-- 51 targets: 100..1e-08 -->
    <defs>
     <path d="M 11.71875 12.40625 
L 22.015625 12.40625 
L 22.015625 0 
L 11.71875 0 
z
M 11.71875 51.703125 
L 22.015625 51.703125 
L 22.015625 39.3125 
L 11.71875 39.3125 
z
" id="BitstreamVeraSans-Roman-3a"/>
    </defs>
    <g transform="translate(59.01855 45.197175)scale(0.102 -0.102)">
     <use xlink:href="#BitstreamVeraSans-Roman-35"/>
     <use x="63.623046875" xlink:href="#BitstreamVeraSans-Roman-31"/>
     <use x="127.24609375" xlink:href="#BitstreamVeraSans-Roman-20"/>
     <use x="159.033203125" xlink:href="#BitstreamVeraSans-Roman-74"/>
     <use x="198.2421875" xlink:href="#BitstreamVeraSans-Roman-61"/>
     <use x="259.521484375" xlink:href="#BitstreamVeraSans-Roman-72"/>
     <use x="300.619140625" xlink:href="#BitstreamVeraSans-Roman-67"/>
     <use x="364.095703125" xlink:href="#BitstreamVeraSans-Roman-65"/>
     <use x="425.619140625" xlink:href="#BitstreamVeraSans-Roman-74"/>
     <use x="464.828125" xlink:href="#BitstreamVeraSans-Roman-73"/>
     <use x="516.927734375" xlink:href="#BitstreamVeraSans-Roman-3a"/>
     <use x="550.619140625" xlink:href="#BitstreamVeraSans-Roman-20"/>
     <use x="582.40625" xlink:href="#BitstreamVeraSans-Roman-31"/>
     <use x="646.029296875" xlink:href="#BitstreamVeraSans-Roman-30"/>
     <use x="709.65234375" xlink:href="#BitstreamVeraSans-Roman-30"/>
     <use x="773.275390625" xlink:href="#BitstreamVeraSans-Roman-2e"/>
     <use x="805.0625" xlink:href="#BitstreamVeraSans-Roman-2e"/>
     <use x="836.849609375" xlink:href="#BitstreamVeraSans-Roman-31"/>
     <use x="900.47265625" xlink:href="#BitstreamVeraSans-Roman-65"/>
     <use x="961.99609375" xlink:href="#BitstreamVeraSans-Roman-2d"/>
     <use x="998.080078125" xlink:href="#BitstreamVeraSans-Roman-30"/>
     <use x="1061.703125" xlink:href="#BitstreamVeraSans-Roman-38"/>
    </g>
    <!-- 15 instances -->
    <g transform="translate(59.01855 56.61894375)scale(0.102 -0.102)">
     <use xlink:href="#BitstreamVeraSans-Roman-31"/>
     <use x="63.623046875" xlink:href="#BitstreamVeraSans-Roman-35"/>
     <use x="127.24609375" xlink:href="#BitstreamVeraSans-Roman-20"/>
     <use x="159.033203125" xlink:href="#BitstreamVeraSans-Roman-69"/>
     <use x="186.81640625" xlink:href="#BitstreamVeraSans-Roman-6e"/>
     <use x="250.1953125" xlink:href="#BitstreamVeraSans-Roman-73"/>
     <use x="302.294921875" xlink:href="#BitstreamVeraSans-Roman-74"/>
     <use x="341.50390625" xlink:href="#BitstreamVeraSans-Roman-61"/>
     <use x="402.783203125" xlink:href="#BitstreamVeraSans-Roman-6e"/>
     <use x="466.162109375" xlink:href="#BitstreamVeraSans-Roman-63"/>
     <use x="521.142578125" xlink:href="#BitstreamVeraSans-Roman-65"/>
     <use x="582.666015625" xlink:href="#BitstreamVeraSans-Roman-73"/>
    </g>
   </g>
   <g id="text_22">
    <!-- v0.0.0 -->
    <g style="fill:#808080;" transform="translate(263.52125 379.1953125)scale(0.1 -0.1)">
     <use xlink:href="#BitstreamVeraSans-Roman-76"/>
     <use x="59.1796875" xlink:href="#BitstreamVeraSans-Roman-30"/>
     <use x="122.802734375" xlink:href="#BitstreamVeraSans-Roman-2e"/>
     <use x="154.58984375" xlink:href="#BitstreamVeraSans-Roman-30"/>
     <use x="218.212890625" xlink:href="#BitstreamVeraSans-Roman-2e"/>
     <use x="250.0" xlink:href="#BitstreamVeraSans-Roman-30"/>
    </g>
   </g>
   <g id="text_23">
    <!-- 13 Sharp ridge -->
    <defs>
     <path d="M 54.890625 33.015625 
L 54.890625 0 
L 45.90625 0 
L 45.90625 32.71875 
Q 45.90625 40.484375 42.875 44.328125 
Q 39.84375 48.1875 33.796875 48.1875 
Q 26.515625 48.1875 22.3125 43.546875 
Q 18.109375 38.921875 18.109375 30.90625 
L 18.109375 0 
L 9.078125 0 
L 9.078125 75.984375 
L 18.109375 75.984375 
L 18.109375 46.1875 
Q 21.34375 51.125 25.703125 53.5625 
Q 30.078125 56 35.796875 56 
Q 45.21875 56 50.046875 50.171875 
Q 54.890625 44.34375 54.890625 33.015625 
" id="BitstreamVeraSans-Roman-68"/>
    </defs>
    <g transform="translate(205.10875 17.4)scale(0.2 -0.2)">
     <use xlink:href="#BitstreamVeraSans-Roman-31"/>
     <use x="63.623046875" xlink:href="#BitstreamVeraSans-Roman-33"/>
     <use x="127.24609375" xlink:href="#BitstreamVeraSans-Roman-20"/>
     <use x="159.033203125" xlink:href="#BitstreamVeraSans-Roman-53"/>
     <use x="222.509765625" xlink:href="#BitstreamVeraSans-Roman-68"/>
     <use x="285.888671875" xlink:href="#BitstreamVeraSans-Roman-61"/>
     <use x="347.16796875" xlink:href="#BitstreamVeraSans-Roman-72"/>
     <use x="388.28125" xlink:href="#BitstreamVeraSans-Roman-70"/>
     <use x="451.7578125" xlink:href="#BitstreamVeraSans-Roman-20"/>
     <use x="483.544921875" xlink:href="#BitstreamVeraSans-Roman-72"/>
     <use x="524.658203125" xlink:href="#BitstreamVeraSans-Roman-69"/>
     <use x="552.44140625" xlink:href="#BitstreamVeraSans-Roman-64"/>
     <use x="615.91796875" xlink:href="#BitstreamVeraSans-Roman-67"/>
     <use x="679.39453125" xlink:href="#BitstreamVeraSans-Roman-65"/>
    </g>
   </g>
  </g>
 </g>
 <defs>
  <clipPath id="p175fcf95aa">
   <rect height="362.5" width="449.355" x="54.525" y="22.4"/>
  </clipPath>
 </defs>
</svg>
